<mxfile host="app.diagrams.net" agent="Mozilla/5.0 (Windows NT 10.0; Win64; x64) AppleWebKit/537.36 (KHTML, like Gecko) Chrome/127.0.0.0 Safari/537.36 OPR/113.0.0.0 (Edition Yx 05)" version="24.7.16">
  <diagram id="C5RBs43oDa-KdzZeNtuy" name="Page-1">
    <mxGraphModel dx="1048" dy="551" grid="1" gridSize="10" guides="1" tooltips="1" connect="1" arrows="1" fold="1" page="1" pageScale="1" pageWidth="827" pageHeight="1169" backgroundImage="{&quot;src&quot;:&quot;data:image/jpeg;base64,/9j/4QAiRXhpZgAATU0AKgAAAAgAAQESAAMAAAABAAEAAAAAAAD/4QAC/9sAhAAIBgYJBgkOCAgOEQ0LDREVEhEREhUcFxcXFxccEQwMDAwMDBEMDAwMDAwMDAwMDAwMDAwMDAwMDAwMDAwMDAwMAQkJCQsKCxILCxIUDg4OFBQODg4OFBEMDAwMDBERDAwMDAwMEQwMDAwMDAwMDAwMDAwMDAwMDAwMDAwMDAwMDAz/wgARCAu4F3ADASIAAhEBAxEB/8QALwABAQEBAQAAAAAAAAAAAAAAAAEDBAIBAQEBAQEBAAAAAAAAAAAAAAABAwIGB//aAAwDAQACEAMQAAAA1Hu/lgKAEgApKAAAAIAKBAACgAAAAAKBAAIAAAUAAAgQAAoAAFAAApKQAACACgAAIEFAACgEAAAKIAKAAAACgIAoACwAAAAsoCACxFAAAoEAgAAqggCgABRAAAACgAKBICrKgAAQAKAAKAAAQAsqAAUAQKAAAACgACygAASAFAACkAAACgAAAAABRFRFEoAAACgIACgKIAAAAAAKRURQAAAFAAFRFEURRFEoAAAAARRFEURRFVAAAAJRFigAAAiUsUQAAAAACURRFEURRFlBAAAEUQWgAgAEUsWAAAACVUUkWAKAlEAAlEVUAACgJRAARRAAAAARZQAEWAKAFAJRFgABFgAAFJRFEAAlEFAJSwCUQAAAEWWgJSQAKABFlARYAAoUlEABAAAAJYBSUQKAABFgBFigJVQAAAEWAEWUCgRRFEAAAlECgABQAEWAAEWAKAFAARYAAAAAJSwACUQUAAAABFigABQAEWKABReQAABQAIAABACoAAFAAAAAACgIAFIpIoiiUAACgIAABAAFAAAoCAAAQAUAAFAgAEAWUCABSKJQAFAQAAAoAAUQAWAAAABQIAUAQAABSABSUAAARZQABSAACiKAAgBQAFAAABYigEBVlQIAKJQAAAUQIBaAAEKIoAAFAgAUAABBSKgFAAKAQAAFUkAAAFIoigAAAAAUiiUAAAAAACoBAUAAAAKUkAAAAABRSUAAAIoikgAAAAIq2AAAASiKIoiiAAAAAAAiiKIsAAAAEoixQAAAIogoAAAAAABKIogoBKIABKIAAALQIogAEogAAAIoiwAAiygUCLAAAKAAiwAAiwAACgEogAEogtBEsUBKIAAACLLQIsAQFASiCgIsAAUKSiASiAAAAixQpKIAAACBQIsAEsoAAACAAiy0AAABKIABKIFAACgAIAACLAFACgAIsAAAAAEpYABKIKAAAAAgUAAKAAixQKLyAAUAABAAICqIAEFAAAAAACkAAFAAAIAAApAAAIAAKSgAAoBAAIAAKAACwAACACgQCqIAAAAogApFAAACgCCwAAAAKBACgCACkUSkACgAAAIKAAKQAAoACkVAAAACgALAAApFEUBACyoAAoABAApKAAFAAKkUSgEACgACgAAEFEoAAAACkpAAAAoCAAAoSACkpQAAQAAAAKAAAAAAAFAAAAAAABQAAAAAAABFEAAAABFEAAFAAAARZAAAAUAAAAlEWKAAAAlEWAAAAEUQUAAAAAAAlEAAlVAAJRAAABaAlEAAlEAAAABFgABFloAEWAAAUABFgABFgAAFAJRAAJSwAVFgAlEWAAAEWWgJRFgAAlEFARSwIChSWAAEUQAAEWKFRYAAAJRAoEWAEWUAAAlEABFloAAACUQKABFEUQAUAlEAABFgCgBQAEWAAAAACUsAAlEFAAAAJSwAAAUABFi0XkoACACgAAAAEAUgAAUiiKIolIAAUAAAQAAUlIAABAABQAAUlIAABAABQAAWAAAQAVQgBRAAACiUABQEAAAFAkBVAAAEAogBQAFAQAIAFAACiKAAQBSAAFAABSABSUAAAgCgAFAAAAgUAAWVAgBQAAAAUABQAAIBAVRABQIAUAAAAAABQIAAAKAAAACoigKAACQoiiKIoAAAAAKIoiiKJSULAAAAACgAAAIBQAQKAAAAiiAAAAAiiLAAAAAKBUqIpIoiliygAAAEoiwAAAASiKIAAAAAACKIoiiC0BKSAASiCgEogUAAKASiAASiBQQAACLAFAiygAIogAAAAIsoACLAAAKASlgAEogAIqoABKIsAEogtAASiLABKIKABYogoCLAAACKIKAgUCLAAABKIFAgAIsoAABKIFBIstAAAASiBQAAAEqoABKIAACABQAoACLAAAAACLFAASiCgAAAEpYAAAKAAosACBSUAAAAQAUlIAAUAAAAABSUgAAEAAFAgAAVIoiiUAABQIAAAAAKQIAFAAAQAVQgBRABQAAAAUBABSKJSAAFAAAEFJSABQABQBAgAUAAUAAAARSAAFAABSABQAAAIAUAAKAIAAFJQAFAgBRAAAUAVAAFAAIAKJQAAokAFAAUEAKiUAABSKIolAAAAUlICgABQIAAAKIpJRQAAAAACoiiKIoCgAAAgUiiKIoiiKIoiiKIogAAAAIqyKIoiiAAABQAEoiiLAAAABKIsoAAABKIoiiKIsAAAUAACKSKWAAASiCgEogARKILQRKWLAAAKASiAAiiBQAAAIsAAIsoAAACKIsAAIsoAACKIogoBKWAASiAACoogAEsUBKIKAAAiwASwCgAVKIAKiwAAASiC1KSBQIsAAAEogVKIABKqLAABLAFAiqiwAAASiBQAAAEqoABKIABKIFAACgAIsAAAAAIsUABKIKAAAASlgAAAoCiwIUAAAAAQAUCABSUAAAAABQIAFIpIoAlAAIFAAAAgABRAAAAAAFECACgAAEAFUIAUQAVQQAAAUAAUAQIAAUABSUAAkAFAAFAIAFSUoIAFAABSKiUAQBQAAUgAUAAACCgAABQCBQAAAUiiUAgUAAKIoAAAWWQABQAAKIolIAAoABSUkBQCiUQFAAKSKiUAUECgCiKIqAAAAFAAAAAAAAoCAAAAAoAoCAAAAAAAAAAAAAAAIoiiKIsoAAAACKIAAABKIsAAAAAAIoiiKqKIogUAAAISiLKAAAAiiAASiCgEoiiAAiqgAAEoiiACkogUABKIoiwAAiwAASqiiLAAACLAACKtgAQABKWACkogAAIogAoCBQSLLQEogAAAIsAIsoAFASiAAiygAAEsUKSiAAiiABQIsAEogAAEqosAIsAUAKSiKIABKIFAAAASqgAEogUACKIogAoACLAAAAACLFAASwCgAAAEpYAAAKocrKoAAAIClEpAIAKAAAAAAKQAAKAAAgAABQEAAgASgKIAAAAAKBIAAoAAAgAqhACiACqCAAKAAAAoCACxFEoAAUAAQCCgACkACkpYAEACgACkAAAgCgAApAAoAAAEKAAKoABICqIAKABABRFAAAoAAUABAACyoAAoACxFEUAAAUQAAoAAACgQAAAKAAAAAgAAAqyiAAAABAqygAAAAAAAKgAKAAAAAURSRRFEURRAAoAAIAAAABFVAAAAARRAAAAJRFgCgAgAAKAAAAlEWUAAEAJRFlAAAAQACUQUAABFEWAUlEUQACUQKCJRFloAAAEWAAEWAAAAAVFgABFgAChQEURYAJRAAARVQAAEWUAlLAARZQCURYAAAQACVbFiAoCUQCUQWggAEWKFJRAAARRAoEWACWAAAAVAARYAoAUAlEAAlECgAAAJVQACUQKAAAAlEFAARYAAAAARYoAEWUAAAAAlLAAAUXmhQAQABSUAEAKAAAAAAFIAAKAAAQAABSAAAQAAUAAAKiAFIoCQAUlAAAEAFUIAUQAFoQABQAAAFAAFJAAAAFAAWIoABABYAClAAJAAKABSAAAAFAEAUgAUAAAFgAAVQAAgBZQEBVECBQAAAACgAFAAAgAUAAWWQACgAAAAUgABQAAAFAgAAKUgAAAAAUiiKIoCAAABSKAAAAAAAABSUAAAAAABSUAAAAAAAAEoiwAAAAAAABIogoAAACKIFAAASiKIoiiKIAAAAAABKIsoAAIASiLKBQRKIsUBKSLLQAQABKIABKqAASiBQAApKIogAIsAAAEoiiLAACLKAAixQAAoACLABKIAAKAiiAAiy0BKIACKqAASiLABKIAALUoiwASwASiC0AEAixQqLAAABKIFAiwAiwAAASqgUCKIAAKAAixQRKIFAAAAiygAEogUAAABKIKAAiiKIAAACLFAAiygAAAAEpYAD0LyAAKRUAAAAKAAAAAAoEAAKAAAIAAKSkAAFEUkURQEAoqSgAAAAALIAAAACCqEAKIACqIAAoAAACgACkgAAACkACgAAIAKAAKQAACAKAAoEAAALKAgCkACgAAAsAACqAAEACgACygQAogAAACgABQACxFEUAACgQAogAKAKRUgACgAAAVAAAUCqSAAACgAAAApFRFAAAAAAAAAAKAAUgQAFAAAAKAQAAAAAAAAAAFJRFgAAAAAAABFEAAAAAFJRFEURRFRFlAAAAJRFgAAAAlEWWgBAAACURVQAEUQAEURZQAIlECgiUQWgJRAAABQCWAAEWAAAAAEWAAEWWggEWKAAFAARYAJRAABQCUsACQWgRYAAARVQAEWACUQAAWgRYARYAJRBaAACRYoVFgAAAlECgQACURYAAJVQKAlEUQAUABFigJRAAAAARZQACWAKAAAAlEFAAAJRBAWgARYAARZQAAAACUsB6F5KiUAAABSUAAAAABSKgAAUAAACAABUAAFJQAAACABUAAAAAAUQIAFEoiiFAgBRAAVRAAFAAAAUAAUkABQAFlgEFAABSKJQBAFIAABAVQAFAkAAAFAAFJABQAABSAAFFAACABQAAUCAFlAAFEAABSiUkAFAABSKAAgAUAAUgAAUiiUAQFFJSQALRSKgAAAAUBAAUBSQAAAAAFAAKIoiiUAAgAUiiKIqooigAJAUAAAUiiKIsAAAAQAABKIsoFABAAAAAAAAAIoiiKqAAACEoiygUEAASiLFAAAAAAiwAAAAASiLKASiAASiCgEogAEogoBKIAAAKASiAAiwAAAAAiwAAiy0ACLAAAAACLKASiAAC0ESxQEogoCLAAABKIKAiwASiAAC0CAAiwASxQoABKIAKiwABQEogEogAAVKIsQBKqBQAAIoiygAIsAVKIAAAACLKAAiwBQAAAEogoAAACLJQoACLAACLKAAAAAixfYcgAAFAAAAAoEAAAAACgAAAQAAogAAoAAAEAAKIAAAAAAogQAUAAABAUogQCqIAAoAAACgACkgAKAALAIAoACgAAIAssAAFAAAAoEgABRFAQAoAgoAAApAAKoAABAAoAAKBAAoAAoAAUAAQKRRKIAKABApKAAAAoEAKAABRFQAAKRQAAAAAAUAABACgAAAKRRKAAAABRFRFEoAAAAABQpFRFAAAAAABRFEAAAAlEURRFEAAAFJRFEURRAAAAgAAAAAEVUCgBAIlLFgFAAAJRFgAAAAAlEURRAAAARZQCUQACUQUAlEWACURVQCURRAABQCUQAEWAAAAAEWKABFlAAAJRFEWAAEWUAlEWAAWgRYAJRBQEAAAAlEFAQACUsWAAUlEABFigkWKFAAJRAAQUACgJYAJRAAAoEWAIlVAoAAAEWUABFgCgRYAAAAJVQAEWAKAAAAlEFAAAJRBKFAAQAAEURVQAAAHoIUSgAAAAAApAAAAACgAAAEACpKAACgAAAEAAKIAAURRFEUBAACiAAAAAigEAqiAAKAAAAoAApIACgACwCAqiACgAABRFASAKAAAACkALKAgAQAsoCCqCACkoBAqgACkURRFQAAKAACwAAoAAKAAFEAAFEUSkAgoAAKRRFAQAsoAApAApFAAAAAAApFAQAKRRFAAAAAoAAAAUSkAAAAAAAAACkoAAAAAACkoAAAAAARRAAAAAAAJRFEWUAAAAAlEURRFEAAAABFEAAAAlEUQAAAAAUBFEURRFEWACURYAJRBQCUQACURVRYAARRABUURYAJRFEFARYAAJRFEURYAARZaABFEWAAAAEWKFARYgAKlEAFARYARYAJVQAAKAllgCUQKCBalEWACUQCUQKBFgFAAJRAJRBQAKBFgAlEAAACxYAJVRYAAAAJRAoWRYAoEWAAAACVUABFgCgAAAJVQAAACUQShQCUQAAAAAEWWgew5AAAAAAAFAgKAAFJSAAAAgAVAAAFAAAoCAAAAAFEAAACABQEAAAAAUQIBVEAAUAAABQABSQAFAAFgEBVEAFAAFAAAJAFAAUioAAAFAQAIFIoAAUAQVQAQVQgEFUAAAIAUAAFAIAUAAFAABQAFgAAAACiAQUAAAAAogBZQABSAAAABSKAABYlAAAAAAAAoCAAApQCAAAAAAABSKAAAAAAAACgIAAAAAACgAIogAAAAAAAEoiwAAACgAAAIogAAAAIoiiAAAAAAAAiiKIsoAAACLAACLKASiAASiCgAAAEogApKIABKIABKqAAiiAAAAAixQAIsoAAABKIsUAEiygAVKIsAAIqoBKIACLAALYogQFAiygRKWAACgIsAEogEogUBKqLAABLAACKtgQFAiwAAiiAABYsAAqLAAAABKIFAiygAEogAAAEqoACLAFAAAASygAAAEogUABKIAAAAACLLfYcgAAACkUSgAAAKRUAAAKAAAQAAKgAACkAAAAACoAAAAEAFIAAAAAAoBICqIAAoAAACgACkAgKAALAICqIAKAAKAAASAqiACgQAAAKAAKSAAAAKAIKoAIKoQCCqAAAEAKAApKAQKSgAAoAAKAASqIAAAKSkAAUAApFSRQAAKAALLAAABQAAAKBAAAAABRFEUSgEABQpKQAAAAACikUkoAAAAApRFEURQEgAAAAKACAAAAAARVQAAAAAAACURYAAAAAAAARVQAAAACURYAAAAAAAAAJRFlAoIBFiggEUsFARRFgCJRFEFAAJRAAJRBQCUQKCJRFloIABFEWKACRYoACVUURRAAARYoAEVUWAACUQAEWAUlEABFLAgWgRRAARZQEWAAAAVFgBFgAlECgBSURYARYAABbFEABFgAACxSQAEWKAFRYAAAAJRAoEWUAAlEWAAAKlEFgEWAKAAABFlAAAAJRAoACUQAAAAAHoWACkUAAAAAFEpAAAAoAAAEAAFIAAKABAAAAAqAAABAACiAAAFEURRKAQAogACgAAAKAAKQCAoAAsAgWqSACgACgAAEACgIApAAAAFAAoBIFBACgAKAACwAAKAABAAoAAKABAoAAAoAAKAASqAICqIAEAFEoAAUQAKRQAACCqEgApKAAAAoEAAApSSgACgFRFAUCABKKRRFEUAAAAFEURRKAAAAAAAQAAAAAKARRAAAAAAAAgWpRFEURRAAgACURSxRFEACAAAARVRRAAAAAAJRFEURRFigAAAiUsWAUBFgAAAlEVUABFEACJRBaCJSwACUQUAAlEUQAVFEACARYoAEUQAAAAEWWgARYAABSURYAJRAARYAJVRYAAsUQUAlEAlEFARRAAAJRBQEWKCJSwAAUBAARYAAoUlEAlEAACgJRAgEWKABFlAAAAJRAoEWUAABFEAACpRAAkVUCgAAARZQAAACUQKAAlEAAAAB6FgoAAAAKRUAAAAFAAAAAQAAogAAoAAAEACkogAApFRFAAAACiBAAAAApKIAAoAAACgACkAgKAAKAgKpIAKAAKAAAQAKAgCkoAAIAoACgIClSAAAAUAAsAACgAAQAKAACgQAUAAAKAACgAEqgCAqgCBKogAAACkACgAApKQAAAKAgAKAVAICgAKAAAQKAABQBUAAAAFEUSgAAAAAAAAEAACkURRFEUSgAAAAABFEURRFgAAAAAFAAAAAJRFEURRFgAAAlEURRFEAFAgAAEUsUQAAACURYAAAARRAARVQAAAAEFAJRAAJRBQCUQACUQUAAABFEFAJYAARYAAAARRFgABFloAAEURYBQEWACUQAEAAFqURYAAQUBFgAlEFAARRAAJRBQEWKBFgAAFJRAARYAAoUlEAlEAACgJRAARRAARZQAAKCJRAoEVUAAAlEWAAKlEAAFRRAAAARZQAAACUQKAAlEAAAB7FgAABRKQAAAKSgAAAAEAFEUSiAAKAAAoEAAAAAKIAAAEAAKIEAAAACgAIAoAAACgACkAgKAKSiAAqkgAoAAoAABAAoCAKSgAAgCgAKAAKQCAAAKAAsAACgAAQAoAAKAQAoAAAKAACgEAqgCAqgEAKAAAIALAACgAKBAAAAFAAEAKAAAApKAQAAKAAAAKAAAApKAAAAAQAACipFEUSgAAACgAAFJKAAAQFJRFEURYAoIAAlEURRFEAAAFAAAAAJRFgAAAAAAABFEFAAABEUQAAACURZQAAAEURYBSURRAAJRBQCUQACUQUABFEWACVUUQAACUQUBFgABFgAAAABFigARZQAAACVUABFgBFgAFsUQSBaBFgAlEFARYAARRBQAEWACWKFJRAAJRFgAFJRAAJSxYgKFRYAARRAAoCUQACUQAEWUAACgJRAAJVQAAAKlJFigJRAABQEURYAARZQAAACUQKAAlEAAB7FgpFQAAAAUAAAAABAACgAAAKkoAAKAQAAAAAogAAAQAKAgAAAQAUAAAigAAAKAAKQCAopKIAACqSACgACgAAEACgIApKAACCkoAAUACkAgpFEoABAoAAKAABACgAAoBApKAAACgAAoBKAoAAKAQAoAAAFQACAKKAApIAAURQAEAFEoAAACgQAAAUAAAAKKAAAKBIACgAAACkUAAAAAAAAAAFAAQAAAAAAAAAFRRAAAAAAAgEUsAAAAACAAJVRYoAAAIAAABFEAAAABFEAAAAlEVUAACggEWWgAkWKAlEFAJSQACUQUAAABFEFoJFECgiUsACRZQAEWAAAKABFgABFlAAAAJYBSUQAEWKCBaBFEABFgAlEFJRAoIABFVAAQKBFlAARRABSVEWUAlEAACpRABUWAAAKlEWACUQACVUAERZQAAKAlEAAlVAAAAoEWACUQAAUABFgABFlAAAAJRAoACUQAHuiAAAAigCgAAgASgACpFAKAAKgAApKQAAAAAKgAAAAQAUAgApFEURRKAQAUSiAAACgACkAgKogAAAKpIAKAAKAAAQAKAgCkoAAIKAoIAoACwABQgAAQKAACgAQAKAACgAQKAAAAKAACgEoCgAAoBACgAAApAACgAAKSkAAKIAKRUSgAAAAAKBAAAtspIAAKsUAACkURQEAAAACkUAAAAAAAAAAFEoBAAAAAAAAAAAAAAAVFEAAAAAAABFEAAAAAAAAlVFEAAAAAAABFJAAAoAEURRFEURYBSURYAAARZQAEWACURVQAEUQIBFLFlAAAJRAAJVQACUQAEUQWARSxYAgKABFgABFlAAAoJFgAlVAAQKAFAJRAARYARYBSUQKACARZaAlJAoEVUAABFEFARYARYAAAqUQUBFgAACgRYAJRAAJVQAQlVFgACgJRAAJVRYAAAoEWACURYABQAEWAAEWUAAAAlECgAJYAaBAQAAUBQQAAAJQCklAAAFKSUAABQIAAAAAKAQAUCAAAAACkCAAAAAFAAEAAFAAFIBAVRAAAAVSQAUAAUAAAgAUBAFJQABUlAFBAFAAWAAFAEACAFAAUACABQAAUCACgAAABQAAUAlAUAAFAIAUAABSUgAUAAFAgAABZQACiQFABAACllAJACrZQCBSKAABSKAAAAgAAAoAAAAAAAAAKIolAIAAAAKWKIoiiUQBKIpYoixAAAAAAqKIsAAAAAAAIogAAAAAAAAoABKIoiiKIAAABKIoiiKIoiwAAAiygAIsAAIsAoCLAAACKIsoBKIogAIogoBKIABKIKAAiiLABKqKIBKIoiwAAiwAAirYsAQFAixAEstASiAACgEsAEogAIsUBLKAAABIstASiAACoogAEogEqoACLAAAFSiCgIAAAFAiwASiAASqgAgALYpIFASiAACkoiiABQIsAAEoiwCgAIogAIsAoAABKIFAAiw0DkAABQAAAAFiKAAABSKAAAACpQAAQAABQCABUAAAAAAUQIAAAAFJQAABABQABSAQFUQAAAFUkAFAAFAAAIAFAQBSUAApAAUEAUABYAAUAAAkAUABQAIAUAAFAIAUAAAAFAABSAUBQAAUgABQAAFAgAUAAFAgAAAUAAUgAAAolAAIKJSgBSKgAAAUAAABQkAFIpYoBAAABSKWKIoACAAQpYoiiUAAAAAAAAAAAAAAAAEoiiKIogAAAqKIoiiKIEABQIoiiKIsQAAAKBQAAQAABKIoiiAAAAAiwAAiwACosAAIsAAIqoAAFBEogoBKIABKIKASiAASiCgAAAIsAoCLAACLAACLAAAFSqiwASiAAiygEoiwACgIsAEogUEgUBKqAAAAgoCLAAAKAgAIsUBKSCgEpYsQFASiCkogUEABQIsAEoiwASqgAAgFCosAAIsAAoFBIogUCLAAAACKqAASiAAiwACgAEogUAD2HIBQAAAAUBAAABRKAAAApKAQCgAgAApKQAAogAAAAApKIEAAAACgAApKJACgACgCBKogAAAKpIAKAAKAAAQAKAgCkoAoCAAoIAoACwAAoAABIAsoAKBAACgAAoBApKAAAACgAApKAAoAAKQAAoAAFQAAUAAKQAAAAKBAAoAAoAACkpAUAALAAAACgAChAApFAAApFEoABAAAApFEoAAAAAAAAAAACkURRFEURRFEWAAAAAAAAAAAEUQAAAAAAUlEUQAAAAACURRFEWAAAAUAAABFJAoQAFRYAgEWKCARZaACAsUQIFsURYAAJRBYAlEAAlEFoIlEUsCAsVUWICgARYgUBFgABFgAACpRFEABFlAJRAARZQACURYBQEWKCRYoCURYABUUQACUQUBFgAAFJRAoJFigJYBYACpRFgBFgFJRAoAAAEWAAEWACVUAAEAoEWUABFgAFAoCUQAEWAAAACUQUAlEABFgAAFoCUkCge6OQAABSUgAAAUigAAAUigIAAAAAAAFAgAUlEAAAAAFAQIFWKAAAQAAUAAhUAAUAQJVEAAABVJABQABQAACABQEAUlChUCAAUEAUABYAAUAAAkAFAAFAIFAABQAIFAAAAAFAABSUABQAAUgABQAAUgABQAAUgAAAAUCABQAAUACBQAKCACgAAABRQgAAUAAAAKAgAAAAolAAAAAAAAAAAoigAAAAAFAAABAAAAEoixQAQAAAABKIogAAAAAAAqKIAAAAAAABKIsAAAAAAAAIqoAIAiygAIsAAIsoAAABKIsoBKIABKIKASkgUBKIKAAASiKIKAiiAAiwACyLFABIsUAEBQEogAIsoBKIABKqLAABKIKSiBQIsAApKIsgKAiwASiCgIAAFBEqoFAgAIsAoAACAAiwCkogUAAACLAACLAAKiiACAUCLKAAiiACgAVKIACKIAAABKIKASiAAiwAAC0BKIDQOQBQIAAAFJQAAAAUgAAAAAAAAUlAAIFAAAAQABQCABQAAAEAAKAAAAQBQBAlUQAAAFUkAFAAFAAAIAFAQFUQAUCAUAEAUABYAAUAAAkAKAAFAJRUAAFAABQIAKIoillEAFWUgAUlAAUlAIAUAAFAIAoABQAAWIoiiKABSKgAUigAAWAAAUBRAAUAUlIAAAFAAAAFAIAAFJQAAAAABQAAACiUAQFAAAAAAAFIoiwAAAAAAASiLAAAAAAAEBYogAAAAAQACKtiwAAABAAAEoiwBQAQAAAACKqLACKIsAEqoogAIoiiLAKAiwASiLAKSiLABKIsAEqooiiKIABKIKASiAAiiACosAAIoiiKIsAEogAqAASiLAKASiAAixQEqoABKIsAoBKIACLACLKAAilgQFAiwCkogAIsoAABKIKCIsoBKIFAAAAiwAAiwAABUqyCAUCLKAAAiiACgVKIAACLAAABKIsoBKIACKIAALQEo9icAUKACAAKKAAAELKAAAAAAAFEoAAAKAQAKkWAACgEAFAAAAIAAoAAAgACgAEKIACgAKSAooCAKAQAAAUAAKAIKoQAAKkUoSACgACgAAVEoAAgqygECgICigAAoEAKAAABRKABQAEFAAAACkAAKAACkAAKAAFEoABQAKRUAAAACgQAKRRKABRFEoBAAKAKAgKAAoBAABQAAAKRRFEURRKAAAAAAAAAABRFEUSgAAAlEUQAAAAAAAEUQAAAAAAAAACURRFEURYAABUURRFEURYAAAARRFEURYAAAABYBFEWAEURZQCURYAARZaCJRAoIAlEUQUBFEWAEUQUAAlEAAlEFAJRAAJRFlAJRFEAAABFgAlgAlVAAAJRBQCUQKCRYoCVUAABFgFAJRAJRAARZQACUsWICgRZQCUQAEWUAAAlEFARZACVUCgAAARYAARYAAAoEWICgRZQAACURYBQKlEAAAlEAAAlEFAJRAARYAABaB7E4WUAAAAFAUIAAFAAAAACiUAAABSKAgAApAAAAAAFIAABAACgAAAoiiKJRABYAAAFIoCABQEBVJAACiUAABSUABQIAKAAAkKWUAQBQAFgAAUigAIAKAAFAAAoCAFAAAoAAUAAFIABQQApZSQApQQAFUgABQAAUgABQAAogAAUigAWIoAAKAAAUAIFIolAAUiiUACoiiUAACiUAAAAUAAAEKIoiiKWKAAAABSKIoigAAACKIpIogUABKIoikiiLAAAFiiKIpIoiwAAAABQQAAAACKIogAAAApKIoiiKIsAAAEoiiACgSLFABIsUKSiAASiAASqiwAABAEogtBEogAIogoBKIABKILQQBKIsAEqoogAIogAAIACLKCEqoAAACLKASiBQSLFASqiwAASiCgEsAEogAEogoAFiiAAiygEogAIqoAABKIKAiyUESqgUAAACLAACLAAAFAiiAAiygAAAWLLAUBKIAABKIAABKIKASiAAiwAAC33ScAAACkUBKAAAUgAKAAUkoAoABSSgEoAAqSgAAAAAKABACgAACAACkoAABIFBCgAKAABBRKAACkAAKIAKRUABQBQEAKAACkAACpFKCBAoAAKAAFRKAAApKAACgEAKAACgAAoAAKQCgCkUACxFAAAApKQAUACkVAAAKogASqIACqIAKoSAApQAAEACkoAAAooEgAKAoAgKAAoAAAAACkUAAAAAAAAAACkoAAABAAAAAAUAABFEWAAAAAAACURRAAAAAAARRFEAAAAAAAAlEWAAAAAAIAlVFLAAAiUQACVUAAlEAAAlVFEAlEUQAVFEWAACUQUAlEAAlJBaCJRAoCUQUACAJRFgFARYAARYAJRAARZQCUQKCAARZQCUQKBFgAFRRAAARZQEWACUQUEAsWWAoCUQAEWUBFgAAlVFgAAlEAFRYoQlJBaAAABFgABFgAACgJVQARFlAAAAqVZAoCUQAAAEWAACUQUAlEABFgAC6BwAUSgAAEpSSgAACipKAAAKKRSAABAKUgAAAKCAACgQAKSgAACAACgAAASAAKAACgALAAApFAQAAoACgSAFEoAAAKAACkACgAAAQKAgCgAEKAABQAAAAoBACgAAoAAqiABKoAAKAAQoAAACkpABQAUBAAKAUSkAFEoAFEoBACgABQBAAAAqgAAACgQAAAoAAACgAAAABQAAAAAACgACkVEUAgAKAAAAAAAAAAACAAAJVRRAAAAAAAARRAAAAAAAAJRFgAAAAAAABFEAAAAAAABFlAAJRAgCVUWACURYABQACUQACUQUAlEABFgFAJRAAJRBQCURYAJRFlAAAAiUsFAkWKACRYoCUkCgkWWgiUQKCAARYoWJRAqUQAAUlEWAAEFoJFgAlEFABKlEFAJRAARZQEUQAAVFEAAlEAFRYoQlEFAAAARYAAQAAAKBFlABEWUAAACpRBQCUQAAACUQACUQUAlEABFgBopyAAAKRUAABQBUAAAACkoAAACkpAAAAAAAACgEACgAAAIAAoAAAAgAsSgAAoACwAAoABAACgAKBACiAAAoCiAAKQAKAAABAoAAoBIAooAoCAAACgAQKSgACqICgKQAAoAAKQAAoAAFRKABQAApAAKAUAFRKABRKAAAQKSgAKSgEAAoBQAAURRKAQURRKKCAAAooCAAopFAICgFEURRKAAAAQAAAAAAURRFEURQAAlEURRFgAAAAAABFEURVRYAAAAAiVLFEFAAAAgAAEUsAAACAAAAAAqURSRRFEWAEVUWAEUQAAUBFEWAEUkWWgAJRAARZQAEWAIBFEFAJRAAJRBQACURYABUUQAACUQUBFgABFgAlgAFQAAJFLAAgEWKFJYAJRAABQEUQCUQWgkWAAEWUAChEWUAlEABBQCURYABSUQACUQKCRZaEARVQAAAEWACUQAAAKBFlABEWUAAACpRBQEWAAAACUQACVUABFgABFhqHIBRKQAFACkoBAAAAAoAAAAEUAAAAAAABRKAQAoAACkUkURRKAACgAAEAgACgALAACygAQAAoACgQAoAAAAKAQAogAoAAAVEUAAKAQAoACgAAAIUABAoAAKsogKApAApKAAKpIACqIACqSACrKIACqQAAUAAKQACqAICikVICikUAABAApKABRKKEACgAAAABRFEoAFEUSgAKRRKAAAAAKEAFEUkURQACgAAAACkoABAAUlEURYAAJSRRFEWAAAAAAUAAlEURRFEUQAACURRFEURRAAAJRFEURRFgAAAAAAAAlEWAVFJFglEUQAUAlgAAlgFARYAARYABUWAAICxRFliURRAJRFlAAAARRBQCUQACUQAVFgAlEAAlEWAVFgAACRSwIBFigRZQCUQAAUBFgAlEFoEWIACpRBYCgRYAJYAJRBQALFJABSUQACUQKBFgFBCVUWAAAEWKAlJAAAAoEWUABFgAACgJRBQEWAAAACUQACVUABFgABopyEBQABQEAAAAAAAKAAAQAsoAAAAAKRQAEAAKAABQAAACAAKAAASAAAKAARQACgAQAAoACgQAoACkUSgAECkoACgIApAAApFEoBACgAKAAFEoBAIKSiggKKAACwAAoAAoCkAAKAACkACgAACkAAKAAKpAACgAAssAAKAAAQKRQAUSihAAABQAAAAoAAAAqiAAAooCAAoQAAAUSgAAAAAAAAAAVAAAAAAAAAAAEUQUAAAAAlJFEURRABaACAAAAARRFgAAAAAAAlEWAAAAAAAEURRAAAJRAABUACARYAARZQAEWAAEVUWACURRAJVRYAAAJRFlARRAJRFiBQKCJRAoIlVAAJRAARZQCUQAAEUQCVUWAAIlLAJSQKBFlAJRAABQEWKCJRBaBFiAAoEWUABFgBFgAlEWUACpRFiBSUQKCJRAoEUQUEBSUQAAEWKAlJAAAAoEWUABFgAACgJRBQEWAAAACUQUEJVQAEWAGocgAikoAAAAAAAApFAQAAAUgKAAAUgKEAAFEoAAAKAAAIAAKAAABIAAUAAAKQAKAAKAQAAKAAKQAKAACkpAAABQEAKIAKoIAAVEUAACgACgECkUAAAgKKAAFQAKAAAooEAFAAACkACgAAoEAAKAKApAACgAEKAAAoEACgACihAAAApFAAAKAAoAAACgAAAAsAAAAACkUAAAAAACrFEURRFRKAIClEURRFEUJRFEURYAgAACURYBQAAAAAAACURYAAAAAABSURRAAAABAUABFEAAAAACAAJSwAIlEAAlVAAAQAAEWUACRYoAIFoEUkWKBFJFlARRAAARZQAEWAAEUQUAlEAAlJBQCURYARYBSUQAAAEWAEVUABFgAlEABFlAJRAABQEWKAlVAAJRFiAoCUQUBAARYAAJVQAKBFiBSUQKAlJAoCURZQAAEWAAEWKAlJAAAAoEWUABFgAACgJRABUWAAAACUQUEJVQAEWGocBAoCgAgAAKAUkoBAKAUSiAAAopKIEAAopFAAAABQAAACAAFAAAQKkURRKAAACgECgACgAEACgACkACgAKogQAUAABACgAKAgKogQAACigIAoBAoAAAAAoACkpACgACgCwAKSgAAKSkACgAAoEACkooAQoAAKAQAoAApQEgKKAACgQAAKSgACgACkUSgAURQAKRRFAAQAAAKsUSiAApRFEUAABAABRKAAAAAAAAAAAAAAACURRFEWACURVRRFgCAAAAAJRFEAAAAAAABFEURVRYBAAAACURRFlAAAAARYAAARRFglWRRAJRFgAAFRRFglEUQAUABAAARZQIBFgABFlAARYAAJRBQCUQACUQUCAsUQIlWxYgEWAAAEWACVUABFgAlVABEWUBFgAAFARYoCWUAABFJAoCWAUlEABFgAAFsWICgRYAiVUCgJRAAAJVQAAEWAAEWKAlEWIAACgRZQCUQAAAKBFgAFRYAAAAJRBQCWAAGgnACgAAAAKRQEAACkUAAAAFAAQAAUsoAAACkoAAAAAAAKIAALAAAAIAAAoBAoAAKABAAoAApAAoACqIEAqiAABACgAKABCgCAoAAoCAqiBAoAAAAKSgAoBBQAACgKQAUAAACgQAoAFEpKCACqAECkoAFAAQCqICgKAQAKAACgQCigICgAAFAApKAKAAAoAAABBRFAABRFEoABAAAAAApKAAAAAAAAAAKVEoAJRFEFgAAAAAAACURRFgAFJRFEURYAAgEUsURRFgACAAAAAoUACARURRFgAAFoIlEURYJRFEAAAlEWAEVZFigRSQAUAlEAAlEFAJRAAJRBQAJFigAkWWggEWAAEWAUAlEAAlEFAAARYBUUQCURYgKCRYoCVZAARYAJVQAEABFgAFAoJFigRYBQACUQAEWUAlEAAlVBAAWpRAARYAJVkCgJRFgAAFRYAARYAARYoAEWIAAChUWAAEWAAAKBFgAFRYAAAAJVQAEWAGipwAAAAUABAABRKAAAAACgEAAALKAoAAIKAoAAIACgCkogACkAAAAgApKEsoEAKAAoAEACgACkACgAKogQCqICgBIKSgAKBACgAAAUSgAAoBAoCACkUAACgQKSgACgFAQKSgAAAVAAoCipKSgAACgQKSgAUAoSAopKABQAEACgApKASlAAAABRKAqxSAAoAQAAoAAACgAAACkAAAAAAAApSAAAAoAAAAAApFQAAAAAABFEWUAAACAAAAAARRAAAAABQEURRFEWAAACURRFEURRABQAAAACVEURYABQCUQACUkWKCARYAARZQAEWAACVUACJRAoIlVAoIlEAFAQAAEVUABFgACRYBaCARRAJRFlAAAJRBQEWAEUQAEAAllgAEABFlAJRAAJRABQKlEABFgFAAJRAARZQCUQAAWxYgAKlEABFgAlJBaAAlEAAFJRAARYAoJFigAJSQAAKFRYAARRAAAoEWAAEWUAAAAlVAARYaicACkoAAACxFAAAAAAAAoEAAAAUKCAAAKKACAAACrFIAAKSkAAAgAAoAAEAKAAoAEACgACkACgAKogQCqICgBJQoIAUBACgAAoBAUKRQAECgABQCAFEoBBQAACikoCxKAAAAsSgKSigFQAAAKSgLEoApSAoAQKSgKRQAAEFEoCkoCyxQAKRRKAAKUSgAAAAALEUACkURQAAAACqSAAAopFEUSgAAAAAKRURRFEUAACrFEURRFEoARRFEUQAIlEURVQAAAAAAIAAlEWAAAAAAAAAEVUAAAAAAABFEWAAAAAAACVUAAlEAAlEACARZQAEWAAEVUABFgAAFJRFgBFJAJRFlAAAJRFlARRAJRFgFAAJRFiBUUQCURYAARYBSUQAEWACUQAEWUCARRAJVQCURYAAsWIFAqUQAEWAAUAlEABFlAJRAABalJAoCUQAEWACUQUAABFEAFJRAARYAoEWAACURYgAKFRYAAJRAAAoEWAAEWUAAAAlVAAaFnAAAAApKQAAAAAAAAKSgEAACkoAAAAKAAAABQAAAAKAABBRFEURUAACkCKAAoAEACgACkACgAKogQCqIAChIooIKAoSCkoAAKAQKAAAFEoAAKAACiACwAACikoAKQAAAVAKKSgAUBAAApKApKQCigAABUAAKAAAsRQCigAAoEACgAAKUAAAAAAFQAKRQCgAACkURQALEUSgAAAAAAURURQACgAACkUAAAAAAAAAAAAAAARRFEUQAJFEURVQAAAAACURRFEWAAIAAABFEWUAAAAAAAAlEURRFEUQACUQUAlEAABFEAFRYAAkWKCABUURYJRFEAFAJRFgBFiAJVQAAACURZQEUQCURZQAACUQIFRYAJRAARYBSUQAEWACUQAEWUACJSxYgWxSQCUsWICpRBQCUQAEWAAUAlEABFlAJYAABaBFgAlEABFgAlEFAAAJRFgFJRAoJFgCgRRAAAJSQKAlVAAAARYAAoEWAAEFAAAAJZQGonAAAIEKKAACAAoABQAEAAFEoAAACkoAAACkUAAACkUAAACwAAACAAFQBKAAFAEACgACkACgAKogQCqIAChIooIKAoSKKCAAKKECgIAoAAAAKAACgALAICgKAAQoAAopKQAoAAKQAAKSgAKBKAKAAAKQACqICgLKBAAoAAKBAAoCgAUAAAABRKQKRQACgAAFAAQAAoAAAApUkUSgACgAAAAAFEoAAoAAAAABRFEVEVUAAAACAAAAJRFgAAAACRRFEVUAAAAAAlEURRFEAAAlEVUURRFgAACAAoAAAEUkBFVAJRFgAAAlEWAVFEAlEWAAUAlJFgCxSQUAAlEAlJFgFsUkAAABFlAJRFgAlEFAAJRAgVFgAlEABFgAlVAARYAJRABUWAAACUQUBFgBFEFARYAJRAAQAAUAlEABBQEWAKCBaBFgAlEABFgAlEFAAAARYBSUQKCRYAoAEWAAAEWACVUAAACxSQAKBFgAlVAAAAARZWonASAACgKCAAACrKAQAAKRQAAAAUAAAAFEoAAAFEoAAACxKAAAAIAAoAABACgEACgACkACgACgEAqiAAoSKKCCgKEiygAAKoBAoAAogAAACgAAoACwAAAoACyggKApAACgAApAABQAAKoQAKAAAqiBKAoAAFAQAKAACgQAKoAACgAAKRQEFEoAoAAABQEAAoACgAAAApAAAAAAAABSxQAAKRRFRFAAAAAAAAAAAAEURRFVAAAAAgEUQAAAAAAAAJFEURVQAAAAAAAEURRAAABQAEURRFEWAAAEWAUlJFglEWAAACUQAEVUAlEUQAUBFgACRZaACJRAAJRFlARSQKCARZQAEWAAEUQUAlEACRZaCJYAoJAoJFlAJRAoIBFEAlVAAAJRBQEWACUQUBFgAlEAlEAAFAJRAJRBQEWKAAFARYAJRAARYAJRBQAAAEWAUlECgRYAAAJRAAARYAJVQAAAKlJAAoEWACVUAAAABoJmAKRQAAAAUAoQAAUSgAAAUSiAoAApKICgAAAiigABAIooAAAAIAKSgAEFgAoACgQAAoACgQAoAAKQAKoIAEAKKCCgAQooIAKoQAoAAAhRKAACkACgABQAEFAAKKBAACgAApAAKogAKKBAAoAAKoQAAoAFAAQAKoIKsUBBQAAAKSgKRQEFEoAoAAAApKQACgAFEoAAAAAKQAAAKRSxRKABRFRFAAAAKAAAAURRFEoAAJRFEUkWKAAACAARRFEVUAAlEURYgAAAAAAAAEURZQAAAIAAAAlEWAKCAAAAAJRBQAEWAUBFgACRRAAJRAAJVQAAEWAAVFgABFgFAiUQAAEWUABFgACRZQKCRRAAJRBQEWACUQUBFEAlEABFgFJRAAAJRFiARVQACUQAVFgAlEAFQAEWACURYABQEWACUQWgkWKAAFARYAJRAARYAJRBQAAAEWAUlECgRRAAAARRAARYAJVQAAAKBFgABFgAlVAAAAaKmcoAAAFEoBAAKKSiAAAopFIAACgFIAACgAAgCygKEAgAoCgAgAAKLAAApKIBKAAoEAAKAAoEAKAACkACqCAABCiggoAEKKCACqEAKAAoAAAUkooSACgACgAEKAKALAAApKAAKpICikoAAKAAQKAAqgEACkoCkoABAqgFEoCxKAAABQAUSgClSAoAAAABUSgACgCkoAAACkVLKAApFEoAAACkVAAAKAAAAAAAKSgAAAAAAAAAAAAAlEWAAAAAAIABFEURVQAEURRFECAAAAJRFEFAAAAAAAARRAAAAAAJRBQIBAABUWAACUQIAlEAAlVAAAQAAEWUAAlEAFJSQAAEWUABFgABFlAAJSQKCJRBaCRYAJRBQAEWAEUQCURZQEWAAACUQIFQACWACVUABFgAlVAARYAARRABQEWACUQWgkWKAAAFRYAJRAARYAJRBQAAAEWAWpSQKAlEAAAAlEABFgAlVAAAAoEWAAEAAlVAAAaiZgAFAAQAAUAAAACkoAAACkoAAAAAAAACgQAAAAoAAAAFSygAAKAgAAACkAAKAAoEAKAACkACgAAAQoACgAQsoAAKoQAoACgABQAALJFEooIApAKKSiAoCkAACgAAqygApAAACgECkoApQAEAFACgCgCxKApKAQKSgAAoAoCgAApAAAAABUAAoApFAAAABUoAAACgAAAAUSkoAAAAAAAAAKUgAAKEAAFEURRFEURYAABYAAABFEAAAAAAAAACJRFlAAAAARRFEUQIBFEURZQAAAAAAAACURRFEBFEFAARRAgEWAUAlgACJRAAJVQACUQAAEWUABFgAAlVAgAEWUABFgAAlEFAJRAAJRBQJFgAlEFAAJRFgFRZAVFEAlEWAAEWAIlVAoJFgAlVAARYABUUQCUQACUsWIFARYAJRBaBFgAAAFRYAJRAARYAJRBQAAAEWAWpRAAARYAAAJRAARYAJVQAAAKBFgAlEAAlVAAaiZgLKBAAAAoAAAAKAAAAAUAAAAAAABRKAQAAKSgAAAKRQAEoABSAAAAAKQAAoACgQAoAAKQAKAAABCgABQBAoAAKoQAoACgACgAEKAAAICqQAKAgKKSkAAKAAKKACkpAAApKAsSgClAAAQKACgAKEFAAoEACgAACigAKAQAoAAACyygAAAUSgACgFRKAAAABQAACgCgQAAAAACgAFEUSkACkURRKAAAAABRFEUQAACURRFEWAAAUlEWAAAIAAAAAABFEFAgAAAAAAEURRFEAlEURRFEVUCAAAoAJFEWEVUWAACURYJRFlAkWAAAEUQCVUWAIlECggCVUWAEWAACURZQIBFgFARYAAJRBQCUQAAEWUBFJAJRFlAAARYBSUQAEWAEUQAEWACVUACRYoCVZAoJFiggUlLFiARRAAsUkFARYoIlgFoEUQAAAEWUAlEABFgABFlAAAoJFihSUQAAEUQAACUQAEWACVUAAACgRYAJRAAJVQGomYoEAAAAUAAAACgAAAAsoAAAAAKRQAAEAFAAAABRKAAASikogAABRFEUSkAAKAAoEAKAACkACgAAAQsoAAoBAoAAKoQAoACgACgAEKAAAACkACgAAoEAAKAAKUACgQAAUBCgClAAAAsSgKSgChAoAAoBAAoAACqAACkAAFAAKLEoAAFEoAAoApKQAAAAClAAApFRKAAAAKAKRRFEoAFEVEUAAAAAoAAApFAAAAAEURYAAAgAACURRFEWAVFEURRAAAAgAACURVRYAAAAgAAAAEURYAAAAAAARRBQAEWAIlVFgAAlEFJRFglJFgAABFEWCVUUQEUQAIFRRAJRAAAJVRYAkWKCBUUQACUQUAlEAAAlVFgBFiARVQAAEWAUlEABFgAlEABFgAllAARYAJVQCURYABQCUkAlEWUEJSwWARYoEWUAAlEWAAAEWUAlEABFgAAlVFgACgRYBSUQAACUQAACUQAEWACVUAAACgRYAJRAAJVaKmcoBAAApKAAAApFAAAABQAAAAUSgAAAVEoAAAACgAAAAsAAAAAUAAAQAAoACgQAoAAKQAKAAABAoAAoBAoAAKoQAoACgAAoAEKAAAACkACgAAsAACgAAKoAKQAAAoCxKKAoAACkpAKKAACxKAACgEACgAAqygAApApKKAAAVAApFAAKAKRUAAAAAopKAABRKQACgFEURQAAAAKSkAAAAoAAAAApFEoBAAAAAAAAUlEUQAAAAAAIAABFEWUAABFEURRFgAACAAJRFEVUUQAAAIAlEUQKCAAAAJRBQAEAABFlAAiUQUABFgCRRAAAJRABUUQEUQAUCRRARRAABSUQCUQAIlVAAARVQCURYAABUUQCURYBUWAAJAoWJYAqUkCgkWACUQAEWUAAlEWAVFEAlEAFAJRAgEWUAlEAlECgRRBQACUQAAEWUAlEABFgAAFsUkACgRYAJVQAAAEWAACUQAEWACVUCggAKBFgAlEABqJkCgFAIACgFEogAKAKSiAAoApFIACgCxFAIACgAAAUAAQAAoAAAALKAABAACgAKBACgAApAAoAAAECgACgECgAAoEoCgAKAACgAQoAAAAKQAKAACwAAUAACqAApAAAoALAKKAAAqiBKAKABAoAAAoBACgACigABShBQAAAoBBQACgAFQAAAACgFAABRKQACgCkoAAAoAABQEAAAAAAFEUSgAAEAAAopFEURRFEUQAAIAAFJRFEURYAAAAAAARVQAAAIAAAlEURRFgAACAAARRFVFEABFEURYAAAJYBQIlEAABFgFAJRAAiVUAACRYoAIlEAAlVAARRABQJFigkUQAUBFEBFEAlVAAgAEWUBFEAAFJYAJRABUWACUQAVFgAlEABFgAlJAARZQAACUQUlEWAEUQUAlEACQWgiWAKlJAoCURZQAAEUQAEWUAlEAAlEWAAWgRYgKBFgAlVAAAARRAAJRAARYAJVQKAAABFgAlEBqWZyiAAACkUAAAAFKCAAACqCAAABKogAAAKAAAAsoEAAACgAAAAFEAAAAKAAoEAKAACkACgAAAQKAAKAQBQACgKApAAoAAKAAKQAAAApAAoAALAACgACigAoEAACgQKAooAAApAKAoBAAoAAKSgEAKAAKKACkpKKAAAFAAsAAoBRKQAAAACgFAApFQAACikUAAAAoAQKSgAAAKRRFAAKAAAAEFEUSgAAAAAAAAAABFEURRABQAAACUkURRFEURRFHl6hFEURRFVAAAAgAAEUQAAAAAIAAlEURVRYARRARRBQAEUQIBFlAAJRFgAlJBQAEWAACUQAIlVAAARYBQEWAAJFEFAARYARRBUUQAICpSRZQEWAKCRZQCUQAEWUAlEABFlAJYAAJRAARYgUlEAAABBQEWACUQUBFgAlEFARYAJRAAAJRBQACWAAEWUAlEAABFgAFoCWAAEWACUQUAAAlEAAlEABFgAlVAoAICgRYAJRqJkAAKRQAAAAKRQAAAAAAAAAAVEoAAAKAAAAKVAIACgFIACgCkpAAABQAAKAAKQAAKAAFQAAUABAAoAAoBAoAAoBALQgKAUgKKSgLEoAAACgQKSgAApAAKVAAAoECkoCrKAAAsSgKsogKALEoACgAACgECrKAABQKRSgKQAAKSgEoFAAAoAAAoBURQKRRKAAKAAAVAAAAAqxRKBURRFAKAAAAAAAUAAAAABAKAAAKRQABFEUQAAAAAAAIAFAAAAAAAAAAJRAAAARSRRFglVFEUQAIAABFEWUAAAAAlEACARZQACUQACVUAABFiBQCUQACUQAAEWAIlVAAARRJVRYAkWAACVZAoIBFlAARYAAJYAAQUBFgAlJBQEABFlAJRAAQUAlgABFJAJRABUWAAAAEFAJRAARZQCUQAEWAUBFgAlEWAAEWUAAlEAABFlBCUQUBFgAlEFAAAARYAJRBaBFgAAAAlEABFgAlVAoIACgRYAaiZFEoAAAAFEoAAAAAAAAACxFAAAABQAAACiwCAAoBQCAoApKQAAAKSgAAKAALLAACgAKSkACgAAQAKAAKAQKAACgSgKAApKACgAEKAAApKAsSgCggKssACgQAKSgLEoAqgAAKspICgKAAQoAACgQFCrKBUAACkUAqgAALAAKBRAACgACigQLUVAAAKoAgKAAKRUSiggAKUSgAAKspAAAAAABSxRFEoBAAAAApFEURQAAURRKAAEURRFEURRFEAlEURRFEURRFEAAAAAAACBSURYAAAAAAJRBYAAlEURRAAAARRFJFlAJRAAARZQAJFigAiUQUABFgACJZQACUQAAEWAAJFlAAJRBSURYJSRYABUUQIlEAFARYAARYAJYBSUQAEWUCJYAAQUAlEAlEFARYAAJYAARSQCVbFiAoIlEChZFgABABSUQAEWAUAlEABFgAAlEFAJRFgAlEAAlEFARYAJRBQAAAEWACUQWgRYAAAAJRAARYAJVQKAAABFhsJkAAAKSgAAAAAAAAAKRUAAAAAFEoAAACyyiAAoBQCAoApKQAAAKSgAAAUAALLAACgAKBACgAAEAFAACgECgAAoEoCgABQACgACkAAKAAsoAAAsACkoBACigKQAAKAAosAAAKAQAKAACgAsspQsAAAqgAAKBAKKAAAKQKRSgACkpBRKAAKAKSgAKRRKSgAAFEoAAAAoQUAAFLFEoAAAAAFRFEUSgAAAACgCkogKAEAAAAAABQAIABFEUQKAACAAAAAAJRFEURYABQEURRFiAAARYABQAIAAlEWAAAAEUknqVFEAlEWUAAlEUQCURZQAIlEUQEURZQCUQAIBFgABFlAAiUQUAlEWEUkAFARRJRFgCBUWACUQAEFAJYAARVQEUQIlEFAARYARVQEUQCUQAACURYAJVQACWAAWRYoIlEChZFgABABQEEBQCUQACURZQAEWACUQACWAWgkWACUQUAAABFgAlEFoEWAAAACUQAEWACVUCgAAAaiZAFEoAAAAAAAAAFRKAAAAApFAAAAAssogAAKUAgAKAVAAAApKAAABQAAAVAACgAKoSAKAAAQUAoIUABBQAAKoQAKAAKAAoAApAACgEooAAKSkAKAAAQooCkAACgKEAUAACgEACgAqygLEoACgAKAKAAFKEFAAApFKLEoAAFQACrKAAAFEoFEpKAAAAAUAAAoAsRRKAqxRKAAAAAASlIAACgAAAACkURRKAQURRFEUAoAACUkURRFEURRFgAAAFRRFEURYAAAAAAAAgCURVQAAAAEURRFglJFEUQAAUBFgAACAARZQCURSQLFJFlAAJRFgFRRFgACJRFgFRRFhFEAlJFgABFlAAJSQAUBAAkUQUAlEWCURYAkAFRYAJRFlARYAABUUSURYJRBQACUkCpVkWAEWCURYAAAQACVUABFgAlVAAJYgKFkWACUQAEWAAUAlEWAAEWUABFgAlECgkWUCgkAAlEFAAAARYAqUkFoEWAAAACUQAEWACVUCgAAaqmQAAAAAAAAApFQAAAAAUSgAAAAUBAAAKUAgAKAVAICgCkoAAACgQAFAKQAAoAooEgKogAKEigClAABUgKCACqEACgACgABQBAoACqSAoCgAKBACgAC0SSigKQAClAQAKSgKSgAECrKApKAQoAACgAKAKSgUoAsAAoCgEAKAAKKBAAFAAUApUAAAAAoACgAEFEUAoAoAAAAAEoABQAAAKRRFEUAoAApFAQAAAAAAAAAAAAAAAAAAAAAAlJFEURVRRAoACUkURYAAAAkWKAAFgAACURYAAAJSRRFEBFVFEAACRZQACUQACUQUACRYoAIlVAAARYBQJFglEWACUQIBFlAARYAAiVUAACRZaCAJYAJRARYBZAAAJRFlJRFgAFRYARYBUWAACUQUBAARYARYgACUQAEWUABAAJVQAEWAAEWWAJRAARYABQAEWAAEWUABFgAlECgkWUCpSQAAEWUAAABFgFqVEAFRYAAAAJRAARYAJVQKABsJkAAAAAAAVAAAAAApFAAAAApFAAQAAKsogAKAVAICgCkoAAACkpAAAUUBAACgCigSAqiAAoSKKAoACgQAAAKBAAoAAKAAqkgKKAAKQAAoACrKSAooAApAApKQAKoAQKSgKSgCgCxKACgEAKAAKKAAAFKKAABLQAAKQACigAAFECkUCrKQAKSgAACgCkUSgVEUAAoAAAoAAEoABRFABRFEoAoAAAQAAAoAAAAAAoAABRFEURYAAAAAAAAgAAAAAAAAAAEURRABQAEUkUQEURRAAAAABZFEAAAAAAlEWUCRRAARVQIAlEAAlEWUABFgAAlEFgCUQAAEWUCJRAARRBZFEAAlEWACVZAAAQAUCRYAJRARRBUUQAAEWUAliAAQUAlEFJRAARYBSUQAEWACUkAAlgAFRYAJRAAJZQAEWAAVFJAARYoEWIAFAAJRAARZQCUQKCJYAoJFloAEWIABFlAAAARYBalRABUWAAAACUQAEWAKlWQKBsJkAAAAUSkAAAAAFEoAAAAFEoABAABQAACgFQCAoABQAAAKSkAAAFAAAAoACigQAoAACyAoCgAKBAAABQAEFAAAoCikpABQAALAACgCqAQABQALLAAFEACrKAQoAqgAALEoAAKAQCrKAACgAApKKoABAKoAApUAFAAApKSikoACgQAAoAAoBRKAKUBAAAABRFAKEAFEUAoApKAAAQAAKRSxRFEoAAAACkURRFEoABApFAEURRFEWAAUAlEURRFEURRFEWAAAAAAAAIlEUQAAAUAAlJAoCUkURRFgAFAJRFJFEAABBQAEUkABFEWUlEUQAIFsUkWCURRARRFlAgCUsWIBFlAAkWAAEUQVFiAAJRFglVAgCUQAAVFgCRYAJRBQEWACUQUBAAiUQUBFgAlVAAQAEWAAVAAJRAgEWACVUAAlEABFlAJRAABSUkWALFgCRYAABQCUQAEWUAlECgkWAKBFlAARSQAEWUAAABFgFqUQQBFlAAAAJRAARYAqVUWGwmQABUAAAAACkUAAAACkoABAAApKAAAAKVAICgAFAAAApKQAAAUAAAAFAAKKBACgAApAApKAAoEAACgAQUAAACgKKBAoAAAKBACgCqAQAKSgKSkAALKBAqgBCgCqAQABQAAqgEAFAAAoAKRSigAASigAKUBCgACigQABQAAKQCgCgApFAKAKSkAAFEUAoABURQACgAACgQAAUsUSgAAAAURRFAAASgAAAACkoAAAAAAAAJRFEWAAAAAAAAAAIFAJRFEURRAAAJRFEWIAAFRYAAAAAAkURZQAAACURYkUQAUBFgCAARZQCURRAAJVQACUkWAVFEWACUkBFgFARYgACUQCVUWICgiUQVFECJRAAAQAVAAiUQUBAARZQCUQAJFlAAQAEWUAlEABAAJVQAEWAAJAoIlVAoIlEABBQCUQAAUBBAVFgBFiAABQCWAAEWWgiUQKBFgABFVAAJSQAEWUAACgkWAWpRBAEWAUAACpSQAEWAKBqGRUSgAAAAUSgAAAAUABAAABQAAAAKRQEAAoBQAAAKSkAAACkoAAAFAAAKUBABQAApAAoAAoBAApKAQKSigAgKUgKKBCgAAAUBApKKKABApKApKQCggKKBIC0AQoAqgEAFKAAAoCxFAAApKKKSgAssAAAqgAKsoBAqgACgQAAoApUAACkoCxKAWgACwAKSgCgAAFQCgAAAFLFApFRKAAAAAKAKSgEAAAAAAFEURSygCAAAoAAAAAAIAAAAlEURRFEURRFgAAAAAAAAAFkUQAAACURRFElVFEUQIAAABFgACBQACUQEUkAFRYAAAkWWggCWAACUQUABFgCAJZQAEWJFVAARYAgCUQACVUAACRZQEUSURYAiWACVUABFgFiWKACRZaCRYAAkWWgiWAAEFAJRFglEAAllAARRAJRFgAlVAAiUQCVUABFEAAFQQAFRYARYgAAUBFgABBaAlJAoEWAACVUAAlJAARZQAAKCRYoUlEAERRBQAAKlECARYAuwmQAAApFAAAAApKAAQAAKSgAAAAUSgAEAApQCAoACkAAACkoAAAFAAAAKpICgKAAQoACgACkAACgAQooAAAAoAKBCgAAKSihIoApQAECgAqhAAApKAsRRKAQoAqgEAKKAKSgLEoAAopKACgAALAKAKSgClAQCqAApKKECkUCkpAABRKAKsoEAACkoFEooAAASgKAAApFKAAKSkAAAAoAAApKAQAKRRFLKAAAAABRFEUSgAAAAAAAAABFEURRFEURRAAAAAAAAAJRFEUkWAACVUWAAAAIAAlEFAAJRFEUQIlEURYAABZFgABFJFhFVAAJRFlAARYAAJSRZaCARYAARZQIAlEFRYgEWAAJFgAAlVAAARYgUBFglEBFiAJVRYJRAARZQACURZZFgABFlAkWKCJRBQCWACUQAEWUAAlEWACUQCVUACJRABUWACUQAEWAACVUABFJAABQEWAKlJBaBFgABFgAAFRYAJSQAEWUAACgRYBSUQAQBFlAAAqUQIBFhsJmAUSgAAAAUSgEAAAFAAAAApFAAAAQAUAAoABUAAACkoAAACgAAAKUgQCgKAAQoACgACkAACgAQooAAApKAAoEKAACgClQAAoABAoCigQAKSgApAAAQoCrKAQAooAoECqAAAoAAKAASigABQAKsoBAKoAKASikoAAKQACrKAABFAAUApSAoAAQCgFApFLKAAAQCigICgAACkVEUopFJFKAAAAAAACikogAKAAAAAKRRFgAAAAAAAAAACAAAAAJRFEWAAAAAACURSRYRRFEFAAAAJRFgAACBQACURYARSQAEVUCAAJRBUUkAABFEWUlEUQAAVFEWCUkWAEWAWAJRBSUSUkWAAEWAAIlVAAJRAAgVFgBARRAgVFEBFEBFVAAARZSUkABFVAJRAJRFlJRAAgEWAEFAAAJRFgBFglVAAiURYBSUQAEWAEWAACVUAAlJABQKCRYoCUQUBFgABAAABUWACUkABFlAAAoEWACVUAAAlEAACpRAAmqpmAAAAKSgEAAACkoAAAAFEoAAAABAAoAAClQAAAAUAAACkpAAUClIEAAooAALAAAoAEKAAAoEAKKAAKSgAKSgEKAACgEooAAoBABQCigQAKAALKBAChKQKAoQAooAoECqAAAoAAooEAFAAALQFAQCikoCgKECgAKAKBAAFALEUCkoAooAAAEAopKAqygAAEoApFAAAApFRKKAAoAAAAAAoAAABRKAABRFEURQEoAABRAAAAAAAJVkURRFEURRFgAAAAAAAlEUQAAAIAAAlEAAlEUkWUAAAlEURRAAAAkWUAAlJFgFRRFgCJRBQCUkWAAAEWUAlEWAACVUBFJARZQAJFgAFRRJSQACURYAJZQAIlEAAFkAlgAlEWUAlJAoJFlARRAARZSUkWAAVFgBFEFRUQEWUCARRARVQAAAEABFglVAAARSQUlEWALFiARYAAJVQAAEWIFAoJFigJRBQEWACUQAAAVFgAlJAAJVQAAKBFgAlVAAAAsUkACpRAbCZAAFAAQAAAUAAAACkUAAAAABAAAoAApAAKAAUAAACkpAAABVBAAKAUgAKKBAAoAEKAAAoECkooACgAKSgALEoAAKASigACkAAqiAooEAAUAAoEAKAAsAoQAoAooEKKAAAooABUCkUAAopKAsSgACigCgEoBQACigQAKSgKSkAooAAAoABKAUSgCqAAQCikoAACkVEooAAAAoAACgAAAFEUSgKsUkoBKAAAAAAAAUAAAARRFEAAAAAAAAAAAAAAAlJFVFEURRJRFEWAAAAIlEWAAAAAEURVQAAIAlEURYRVQIAAlJBQCURYJSQAUAlgAAlJBaACRYAAJRBQJFhFVAARYAgUlEBFJAAJRFglVAAgEUQCWAJFloIBBQCWACUQUBFgCAQUCRYABUWACWACUQVFgCAqUkAlVFgAAlEABFglVAAAJSQWgRYgLFiARYAABUWAAEUkFAqUQACUQUERZQCUQAAAVFgAlJAABbFJAAoEWACUQUAACpRAAJRqWZSgAAEACkoAAAAFEoAAAABAAAAACgApAAKAKSgAAKSkAAACqCAAApSAAAooEAFAAQoAAKAQKAoACgABQACwAAAoBKKAACwCgKAAoEAAKAAQoACgAsAoQAoAooEKAKAAooBQLEoAAopKAQKAAoAoKSihACgAClQAKSgCigQAAoBAKsoAAUAAooAEApQAACigAQAAAKsUSgAAAURRKAKAALEoAAAAACkUsURQAAAAAAAAAAAAAAlEURRFEURRFiAAAAAAAAAARRBQCUkURYAAJRFEUQAIAAFRYAAAAAJSQCVUWIAlEAFAiURYRRAgVFgAAlEWUABFgACRYBQCUSVZFgAlEACJZQCURYgKCJRARVQAIlEWEWCVUACJYABUAAlgFJRAAiUQUBFiAJRBQEWACUQUlEAAlJFgFJRAAJRAARYJVQAACUQUBFgBFiARYAABUUQACUQUAlEABFlABEFAJRAAABUWAEWIAAFqUkWAKBFgAlEFAAAqUQAGwmQAAQUAAAACkUAAAABAAAAAApKAAAoEAACgKAKSkAAACkoAAApSAAAoAsgKAoABCgAAoBAoCgAKAApKAAsAAAKASqAAAsAoCgABRAACgAEKAKoBACygQAoAooApAKAAoAqgLAAKAoBAKKAAAKBQChACgCikpABQCgBCgAUoAQKRQKSigAACgSikUAAoACgEACrFEoAAAFEUAoAAAAAsSgAAKsURQAAAAAVEURQAAAAAAAABFEURRFEURRBQAAAAAAAAEURRFECAJRBQAAACUkURYAAARRFEWAEURZQAIAAlECAJVRYkUQAAUCRYAJRFhFVFgCAARRFlJRFgBFWQACUQCVZAARRAkWUAAlEACARYBUUQCWAIlElVFgBAAiVUABFgFJYAARZYABFgAlgFJSQKCJRAJVQAAEAFJSQAEWAAEWCVUAAAlgFBEWUBFiARYAABSURYAARZQCUQAEWUEJRBQCUQAAAVFgBFiAABaBFEABFgABFVAAAqUQGwmQsSgAAAAUSgAAAAEAAAAAFAAAAAoEAAAKKApAAAApKAAAKUgAAKACCwCikoACxKAACgECqAAAoACgAAsoICgigCqQAAVAKAKAAKQAAoABKogqgABAoAEKAKKAKQCgCgAKoCwACgLLAKAKAAFApKASgCgAKVAACgCgCxKKUAAFRKAKoAAACkopUSgACgACkoBKUSgAACigAAAAABSxRKQKRRFAAAAAAAKAVAICgAAAAFEAAAAAAAAAAACAARRFEFoAIAAAAAABFEURYRVRRAgAACURYAAAgAAEUQAEURZQIlEWAIAlVFhFECAJVQAAIBFlARRFgAAlEFRSQCVUWIAlgABFWQCURYRYBYAlEAAlEACBUWEWACUkFRRJRFgAFRRARYgEWUABBYAlEABFlBCUQUCRYABUWACUQUBFiAARYAJRAJVQAAEWAAEWUBFiARYAABQEWAAEFAJRAARYAJRBQCUQAAAVFgBFJAABaAlEABFgAAlVFgACpRrTnIAAAUigAAAAIAAAAAFJQAAAAFJSAAAAFFCFlAABSUAAAUUBAAUAEFiUUAUAAFgAAUACBVAAAUABQAFFgAAUAAUgABSAUAUAAUgABQACVQFAABYlAUilCQFFAhQBQBQAFUBYABQCpQACgAoBQigAAFUAUlIAFAUAIKUUlAAFWWAABQIBSgKKgAFAAABSoAKAAAUAolAAAApYoCABSUAAAAAAUAAAUioAAKIoiiUAUAAAAAAAABKSKIoiiKIoiwAAAAAiiKIsAoAAAEAAAiiAAAiqiiBAAEoiiLAAAACLAAESiLKBEoiwBAIKASiLEASqiwABIKAAiwAASiCgSLABKsgIsAAEqoAEiiSiLKBIsAAEogAEsEqyAASwCxKIsIsAAoCLBKIEiygEoiywBLAACLACLAKBIsAEqoABLAKAiwBAIABKIAKiwAAgAAIsoCLEAiwACgAIsAEogoBLAACLABKIKASiAAACoABKIsQALQEogAIsAAAtSkgAXYc5AAFAAAAAQAAAAAUAAAAAFQCAAoApFAASigApKAAAAKEilAAoIEFKAACKKAVAAAoEACqAAAoAFAAKLICgCgAQoAAKQCgCgACkAAKAQKoCgAALAAqgABAoEKAKAUAAqgpAAKApKAKAqiAoQKSgAAUoAoEAKAKAEKKUAABKUAAFKLEUACgAKAAAKsVApKAAAKAUAACrFAQAAAKSgAACgAAAFRFABRFEoAoAAAAAAApFRFVFgAAAAAAAAAAAAAAAAlJFEURRFEWEURRBQAACUkWKCAAAARVRRAAAAkURRFglEWAAIlVFgCJRFglVAAgCURYBSUkWCURYABSURRAiWAUAlJABUUklEAAlEFAiUQEVUCRYoIAlEAlgBFlgAEAFJSQCURZQCUQCURZUWIABFlAkWACWAAEWUAlEACJVQAEWAAVAAiUQACWAAEWUAlEAABFlARYgEWAAUABFgAlEFARYAAQACUQUAlEAAAlEFAARSQAWgJRAARYAABaCRYuw5yFSUUAAAIAAAAFJQAAAAFJSQAFAAKJQAACUCgAUAAAUJABaBQAkKAUAEKUABSAABQIAKUAABQAUAAVSQFAFAgBQAAUgFAUAAFIAAUAgVQFAABSABVACCiFAhQBQFAAFUBYABQFJQBQFUAgAUAABVABSABVlAAAWUUlAAFCFAApQgUABQKAAAAWWUBSUAAUAUlAFAKJQCAAAUoigAAAAqIolAFAAKAAAAAAClioigAAAAAAAAAAABKIoiiKIoiqixAAAAAAAAAAIsAAAIpIogoABKIoiwBAAEoiwCgAAAAIsEpIsAEqyAAABIsEqosAQCLAAKSkiiAiiLAKAixIogoBKIEASqiwixAIsAoBKSCkoiwSiABAIsIsAqABEogAEsoAEgULEsAAIspKIEAiiCyLFBIsAAIsoBKIAEiwCgIABKqABEsAAIsAAqAASiAAAiygIsQCLAAKAAiwASiCgIsAEoiwASiCgAIsAAEogoAACLEC0BKIACLAAALQNS85AABAICgAAFAAAAABUAgKAAKRQAAAALLKICgLKAABAApKKFBIKSigAgoCgAKAQABQBCigACgACgACqSAoCgEAKAACkAoCgAApAABShIKoCgAApAKKABAqggCkAoCgACqAsAAopKSgCgqgBAAqggKAoCgQAKoAAQoooAAChCgKSihAoCgALKAApUAACqCAoBRKAKAKBAAABSygAALEUSgCgAAAACgAABSxUSgAAAAAURQAACggAAEURRFEURYAAAAAAAAAAJRFEURRFVAiURYAAAAAJSRRBaCAJRFEWAJFLBQIAAABAAJSRYJRBYAABFgCJVRYARYAgAUlgACJRBQCUSURZYAlECAJRBSUkWEWAUAlEAFiUQEUQCWACUklVFgCJRAAQUAlgAFkWAAEFJRAgCUQUlECRYoIAlVARYAAkWWgiUQACVUACRYAARYAJVQAQlVAAARZQEWIBFgAFAJRAAJVQAEWAAEWACUQUABFgAAlEFAAAJRBQCUQACUQAAW7DnIIBAAUAUlAAAAAUlJAAUAAolAAAAAoCAAAUUACAAFFABBSUUAEFJRQABSUgAABQCFFAAFAAFAAIUAUBQCAFAABSAUBQAAUgABRRYlAUlAABSAUUACBVAAUkBRSUAAVSFAAFFAlAFBVACABVAAKgBQABRQAAWUBQABQgUAFUIAFUAAFKgUlAAAFUABSKAUAABSAABVigAAVZSQFAAAAAKWKJQKIqJQAAAAABQACgAAAIAAAAAACgAAAAEoiiLAAAAAAAAAEAAAAiiLKSiKIsAQABKIKAAABAAIogEqooiwBEoiwAABIsEoiygQCLAAESqijyoiwBAIsoABKIALAIsEogsSwABEogoCKSSiCgEogARKqAAiwiwASiBIqoACLESqgAIsAEqoAESiCgIsQACCgiLKSiBAEqoCKIACCgEpIACLKABIsAEogAEogAEqoAACLKAixAIsAAoBKIACLKAAiiAAiwAAiygAIsAAEogoAABKIAKSiAAAiiA2HOQAKAUAgAKAKRUAgKAAKRQAAAAKSkAAAACrKIEoAACgAAUoAAIooAApKQAAAAoBCigACgApKAAsAAoCgEAKAACkoACgAApAACiiwAKAACgQCigQCigACygQKAAAqkKAAKKBKAKCgKEAFAKApAAoACqAAQooCgAChAoAooQAooAAsoCgACgCkoCkoAoAAAsAACrKAAAKLAAAAqxRKAABUAAAAAAoAAAApFAQAURSygAAAAAAAAlEURRFJFEURYAAJRFEVUURRFgAAAAAACARYBQAAEURRAkURZQAAAACUkCgAiURVQCURYgAEWAIlEWUCJRFgAAlWQCURYAiVUUQCUQAUlJAARZUUkAAlJBQCUQEVZAJRFgAlWQKliAQACUQIlVFgAlEFRYiUQACVUACRZQAEWAIlgABFlJRAgKFkWCUQCUQUAlECARZQCUkAAlEAAlEAAlVAAARZQJFgAlEAFAJRAARZQACWAAEWAAEWUABFEAABFlAAAJRAAJVQAACUajnIVZQBAAUAUlJAAUAAolAAAAAoCAAAACgAAJQBSKAABQFABCgFAAKgAAAABZQIUAUABQAoABYABRQAIFJQAAUlAAUAAFIAAUUWABQAAUCAUUCAUUAAFABYAABVIWUABSgJQBQUBQgBQBQFIAFAUBQAFllAUAACUAoFAlABVAAFUgUABQCiUCgAFAAAAKgFKAAAUABSAAClAAABSpAAAUAAAAUiiKUAoiolAAAAAAAFKIsAAAQAAAAAAAAAAAAACKIoiygAAIoikgAAEoiiCgAQAACKIBKIoixAoACKIsAAQCLKAAikgIsAARKIqoBKIsQBLKABEoiwCkoixIogAEqyAASiLLIsAEogsASiASqixAEogEsEsoBKIEAiwBAqAASiCkogSLABKqLAEgULEogASLAACLKAiwACyLBKIsEogoBKIsRKIKASiABEsAAEogAEqoAACLKBIsAAIsAoFSkgAIsAoCCAoCLAACLKAASiAAASqiwAASiAASqgAANhzkAAAClAIAACixFAAAAApFAAAAAsSgAAAAUsoBAAAFCggoCgACyAoAAAAAoELKAoACgAoACwACigAQKAACkpKAAoAAKQAAoCygCgAAoEAooEAooAAKAFQAACqBUAAqygASlAoCgAKQCikoFRKAKAoBBSgCgAKECkoqgEAAqgALKABQAopKAqgAAAACrFAsRQAACgACkpApFKAACgFQAAAAKRRFKAAAAKBAAAAAKURRKAAAAAAAAACURRFEURRFEWAAAIAAAAAAlEWAUAABFEUkAABFEUQUACJRAAAAJRFEWIFJRFgACRYBQAEUklEWAAIlVAAARSSVUWAAIlEAFJRJRFiAJVQAIBBSUkAFRYAiUQAEVZAARYRYRZQCURYJSQACVZAARYBSUQEWIAFRYJRABZFgABFgCAQUBFgAFiWAEWCUQUABAiUQUAlECARYAAJRAAJVQAAEWWARYAAsUkFoCWIABFgFJRFEABFgFARYAAJRFgAAFRRAAJRAAJRBQGw5yAFJQAAABSiUgAAAAolAAAAAoCAAABSKAAAlAFIoAAUUAAWSUUAAAAAAUCCgFAAUAFABSAAUUACBQAAUCUAUlAABSAAVQFgAUAAFUIAFAgFKAACgIUUAEFUUlAFCBQAFUBYBQBSUlAKAFlgFAAUBZQAAVQCBSUUCiAAUoAFWUgAFWUFJQBQFAAAFKJSAFAAFAAAKllAoAAABSolAAUiiKUAAAAAIBSiKABSKIoAAAABQAhQAAAiiKIAKAAAABAAAAAAAEoiiKIoiiLCKIogAQKAASiLAAAEAiiKIKiiLAAAEAAiwCkpIsAIAKBAEogRKIsAIsoEAASiLCKsgAEsAQKSiAixAEqoAESwCgSLABKqBIsAAEqoAEk9QgIqoACLBKSAAiygASLAKSiAikgAqLBKIALEsAAIAESiCgIsAAsixQSASqgAEogRKIKASiBAIsAAEogAEqoAACLLAWKSABUogoCLEAAgAoBKIACLKAASiAAAiygAgKSiLABKIABKIsrZXOQAAAApFSgAAACkoAAAACkpAAAAACgAAAEpRKAAAAoALEooAAAAAApKAQsoCgAKACgApAAKKABAoAAKBKAKAAAUQAKsoCwAKAACygAAUSgKAACiiwAAAKAKKEAKKAKABLQACqALEoACqEAAKKVAAKKSgEFKAAKoQUAAqygQCikoFAKAALAAtsoBAKAoAAAFSygAAoAAopKQACikoAAABAKURRKAAAoAAACgABAAAApKKAAAAAAAlJFgAAAAAAAAAAFAAAAAAgCUQAEURRABYAlEAAAAACARRBSURRFgACRZQACUkWEVUACAJYAAiUQEWAUCAJRAARVkBAAgCWUBFJABUWAEWIFAkWACVUWEWAIBFlAJYiUQUlEAAlElJFgFQACUkAFJRAJSQUBFglEACQUAlEACJRBQEWAAWRYqUkAllAAJRAkWAUAlECARYAAJRAAJVQAAEWWAqUkCgJRBQEWAIlEChYAlEABFlAAJRAAARZQAAAEWACUQAAGwmQABRKQCgAAFAAAAABQEAAAAAFEoAAACgQACgCkoBAFCgAAAACkoBAAoAACqACgEKAAKKgKECgAAqhAAoAAApAAqgKQAKAACygAAKKLAAAoClQAAKACgASigKAoBAKoAKKECgAKApAAqgKQAClAKLAAAKUCxKAKABRKAUAooAAAKsqxKAAKAUAACxKKAACikoCkVAAKAAKABAqxRKAAAAKAAKAABAAAAqxRFAABRKAAAAACURRFEURRFEWACURRFEURRFEWIAAAAAAAFARYAAgAEURYJRFVFgCAAAAJRBQAAJFglEFgAACUkBFVAAkWAAAJFElEWUACJRAAJVklEAACQUAlEFAkWCUQIFAQAIFRYRRAiUQUlgBFiBSURYAJRARYiVUAAlJABSWACUkFARRJRAJSQUAlEACRZQAEWACVUAlJARZQACUQJFgFAQAIBFgAAlEAAlVAAARZYCpRAAJRBQEWAIlEChYAlEAAlEFAJRAAARVQAAAEWACUQAGxZlFQACgAAAKAAAApKQAAAAAKSgAAAAECgAAKUABAACiggAKAAoBAABQAACqACgLAAAKKgKEKAAAqhAAoAAKBAAqgKQAKAAosAACgSigAAoEooAAKAAtCBKKAopKAQCigqgBAoACikpABSgKQACqAKpAAAqhALQgKACqQUAAoCgAKsoBFACgFAKKRUAAAApRKBUAAoAAAKUBBQAACgACkURQAChIAUsUSgAAAAAAooQAAAAAAAAAAAFgAEURYAAAAAAAAAARRFECAARVRYAAAAgCURZQCURRAAgAEURZQACUknqEWUCAARYAJVkWACUkWAACUkAlEWUAlEWIAlEnqWRYAJZYAAlEFAiUSURYgUlgACBUAlECRYJZQAEAFiUQACWAEUklVAAJYgAVFgAlEFAiUSUQCUkFARYAAkWUAlEAAlVAiUQEWUAAlgCRYBSUQAIBFgAAlEABFlAAAkWWgJRAARYABUWAIlEAFAJRAAJRBQAEWAACVUWAAAEWACUQG45yABQAAQUBQAACoAAAAAKAAAAAAkBQFABQABQgAUlAAAFAKAgAAoAAABVABQFgAAAUBRYlAAAVQgAUAAFAgABSVQAFAAUWAABQJRQAFUAgUAAFUABZQIFAUUCAUBQKUIAFAAUoCBSUUAUCUUlAFUgAFUAgFWUAAKlAUAUAUBQFAIBVlABQAFAogAFFJQABVIAAAAKWUBSUgAFAFIolAFAAAFJSAAAAAAAUoiiUCiKiKAUAAAAACKSKIoiiKIogAAAIqooiiKIAAAEAAAASiKIsQALUpIoiwAAASiCgQACKIogAAIssABIsEogoEAiwAASrIsAEpIsAEogARKIsoCLAESqgIsQCLKBAEsAoBKSAixAIsoAESwCgIsJPUIssASiACxLAACLABKSSqgAIsAQCCgEogoESwSiAiwCwCLABKSCgEogAEqoESwAiygAIsEpIKCEqoAEAiwAASiAAiygAAIsoBKIACLABKqABAIsAoBKIABKIKAAiwAACkogAAIsAEo2HOYAAIAooAASCkooAAApKAAAAASAAoACgAsoAChBQAAAAKsUBAAApKAAAAoACqAsAAACgKLAAACkoAAoAAKBAAoELKoAoACiwAAKBKKAAKKECgAAqgAAKQAooFAEooCqAQACqACkApQAAEtAUABKoAAqgEoCgALKAAKoApKKAKBAAKUACkpKFALLAKUAAoACkAACrFAAAqhAApFAKAAAEAFEoAAAopFEUAAABAKoAAAAAAoIAAAAAAAAAAAAAACJRFVFgAAABFEUQAIAAAlEWUAAAlJFEWCURRAABQIABFEAlEWWARYAkUQUCRRAAAJVkAAlJFhFEAACJVQCUQJFlARYgCVUACQAUBFiARRJSQUABBQIBJ6hFhFlgCUQAEWUCAQACUSVZAARYAiVUAAlgFJYgCUQEWAWARYAJSQWgiWAAEWUCRYAQUABFglJAAJVQAIBFgAAlEABFlAAAQUAlEABFgAlVAAgEWAUAlEAAlEWUABFgAAFARRAARYAbDnIAAUlFACQAVQAAARRQAAAAkBQABSUAABQAUlIABQACiUUIAAFJQAAAFJQABRYAoAABQFFgAAUCAUAUAAUgAAUCBVAKAAUWAABQJRQABRQgUABQFAAUlIKJQBVAJRQFKAgAFUBQJQFlAAUWAFAFCFAAVQgFFJRRSUgAFFJVJQBQAKIBSgAFUgAALVIKAAUAUlJQQVYoAABQgoAKAAUAIAAKJQAFWKIoAAACAUAAUiiUAAUAAoiiKIoiiKIogAAAAAAQAAAAAAAACKIsAAAQKAiiLAEAAiiAACgAAEpIsUCKSKIAAKixAAIpIKiwABIogoCKIEASwCwABKSAiwAASywBKIEgoBKSCkoiwSiBAAqBAEogqLEASiCgRLACCosARKIBKIKBEogAEokqyAAiwBEsoACLAKiyQKSiAiwACyLABLAKBIsAAqLAEiwSqgAAIsRKIABKqABAIsAAEogAIsoABKIAKSiAAiwACosAQCLAKASiAAAiygAIsAAAoBKIACLDYc5AFAQAAAooAIAKSigABIACgAFAIAACgUAQoAAoBQAEAoApKAAAApKAAAKUBCgAAKApUAACgQCgKAACkAACgQKoCgACiwAAKBKUAALKoQKAAoCgAKBCigAiihAKoKKEAopKCkAoAoAEpQKABKAKACqEAooCigQAKsoAUKAAClQKSgCgLLAAKUALKAoApKSgFEoAAoQKSgKsogKAAEACrKBRFEoAABAKAAURRKAAKAKRRFEoBAKAAAAAAAAACBQEURRFEURRFEAAAAAAACJRFEAAAFgCURRFglJFLAAgAAUAlEAAACRRARZQIABFlkUQAAJFEFARYgEWAUCAAQCUkWAEWUCJRJ6lRYgCUQAWRYJRAAiWUCAJRBUWAIlEWUlgCJRARZQIlEWCWAUBFiAAJYJVkABFgBFlgAEWAEWIFJRARYABZFgBFlAAkWAAWRYoJFglVAAJRAiUQACVUACARYAAJRAARZQACUQAVFgABAABUWAIAlEFAJRAAARZQACUQAAUAlEABqrnIIAAAFAUEAAKUAAJAAUAUlAEAABRSUAgBQABQBQIABSgAAAAUlAAAAUlAIFUAAUBVIAAKAgFFAAAFIAAFAgVQFAAFFgAAVQhQAAUUIFAAUBQAUBZQAAFlAgFUFFCAUUAUlAAKUAWJQBaAIABaAoCAUUBRYABRQAFWUABRQIUAUAAFogoABQKAUlJQABQAFFiKAUAUAACABVigAUAACUAAUiiUAAUAAAABQCUAAAAUiiKUCKIoikiiKIAAAAAAAAAAAAEAACooiiKIAAEiiKIAAECgIoiwAiiKIAEASiKqAAABIsIqoAEASiSqixAAIsAsASiLEiiCgQBKIACKSSiCgQCAiywBLAALIokogASKqABEsApKIEAk9QiygRLACLKABIsEogoCLEAAiwSrIACKICLKBEogAIsQKiwAiwACyLACLKBAIABKsgEogEsoACABEogAEqoAEAiwAASiAAiygAEogAqLABKIsAAqLAEASiCgEoiwAAiygAEogAAoBKIDYcZAAFEoAAAAKKEgAAAKUAgAAKAUBIACgCgAAKBQBBQACgACkoAAACkoABAKoACgKpAACgEApQAAApAAAqhIUoCgAApKAAKoQoAAKKEKAAKAoCkoosAACgAQKsoKKEAAqgpAKAooAsAAqgEACqKSgEoBQClQAClAAKKAopKASgUAAKVApKAKAUSqSkAoAAKoCxKAKAAUBAAKUAAAooEAFEUSgCgAAAAAoABRKAQURRFKAAAAAAAAAAAAAAAlEURRFJFEURYAAAAAAAAABZFEAAAlJFEWAAAWRRAoIAlEURRABQEUkAAlElWRYAAiWAVFJAARRBQIAlECRVQAIlEAAlJJRBQIlEBFlAkAAFkWAEWAIlVAAkFAJRFgliARZQJFgAlVAARSSVUWAEWIABFglWQACUSVUWAIlEABBYAlEBFgAFkWCUQUCJRAAJVkAlEBFlARYAAiUQACVUACARYAAJRAARZQACUQAEWUABFgAFRRAgCUQUABFgABFEFAJRAABQCUal4yigAAAAUigIAAAFWUAQAAFFJRAgAAApZQAABQFAIUAAAUUAAAAFJQACAUpAAUBSBQFAUAgFUAABQIAAUUIUAFAABSAUAUCVQAAUUIUAAUBQFAUWAABQIBSgBZVCAAVQUgFAoUBSAUAUCAVQFAgFAUAVSAAVQABVAFKAlAFJQBRYABVAAUlJQKAAAFFBSUgFAAKAUIKJQABQBSKColAFAAAAABQCiKJQCAVQAAAAAABSiKJQAAiiKIoiiKIAAEAAAAAAAAAAAAAiiKSLAABKqLEAAAAAikiiASqiiAAABAEoiiCgIsQBKIKSkgASLAKAikgAIqoAESiABIqoACLEASiSkgoCLEASqkpIAACCgSLAKSkiwSiACwCAiwBIspKIEASqgAEsQKiwAixAAIBKsgAEogqLAJEsoBKILAEogIsAAsiwSiCgRKIABKqBEogIsoIiwCgRKIABKqABAIsAAEogAIsoACLAACLKAAiwACkogQBKIsoACLAABKIKASiAACgNhxkAAAUSgAEAAFAAAAABShIAAAKRSgAAACkUBKAKAAACgKAAUSgAEAopKIACikpAFCikoBAKoAAKQAAAoBKoCgAACywCgFASqAKKABCgAAKoAFCiwAABRAKKACqEACrKCkAoCigUQCgFAQKsoAtEACgKApAAKoAAqgCqASgFKAKSkAoAoKSkoACygAKKSgCqQAAUAoCkAAAopFAAqhAAAAAKKRRFAQACgCkUAAACrFEUSgEAAAoBRFJFEUQAAAAAUAABFEURRFEAAACAAAAAARRFJARVQAAIAAAACRRFlARRFgAAAlJBQCURYkWAUBFJARRBYABFJAoWRRAJYgAAJFlARYAiWAEWWJRFgCJVSUQIAllAAiUQUCRYJRABYlgBFgCRZSUQAIllAARYBZFgBFiAJRAJVkAAlEFRZAJFlAJRBQIlEBFgAFkWCUQUCJYABUWAIlgFRZAEWAUCJRAAJVQAIBFgAAlEABFlAARYAARZQAEWAAUlECAARZQAEUQACUQUAlEAABsOchSKAAAgAUlAAAAAUlAIAAAKWUAAAACiUAgAFFAAAAFFAKAAAAgVZRAAAUqAAFlBVACBVAAAUgAAUACFFFAAACoABVAJVlABVCAFAAAVQAFFFgAAFUgABQFAUIKAVZYBQFFCFAFAUUAqAAVQCCgFFJSAAVQBRSUAVQCUBRQBYABRSUUWAAAAWgFJQBQBYAKAUAAWUAAolAFCBQAAAFKJQCAUAAAUigAFKIoACAAAUAAAABQAAAAAAAABIoiiKIoiwAAAAAACgAIoiiLAEAAASiKSLCKqKIAAEAAAiiACgEpIoiwSwACwCKSSiACkpIsAIsAsASiABAqLBKIEAASrICKIEgAIssAiwBEqpKIEAiygARLAKBEokogEsAsAgASLKiwABIsoACCgSAAixAEogAsiwASwAgASLKASiCgRKICLAKBICLALAIsAAsixQSLACLACLAKBEogAEqoAEAiwAASiAASqgAIsAAIsoABKIAKSiBAAIsoABKIABKIKASiAA2pzkAAAEFAAAAABQAEAACkUoAAAAAoAEAACrKICgAAKACygKAAVEoAAApSABKAKAqgEAUKAKBAACgAELKooAAApAAqygEooAAooQoAAooAAoqkAAAqkACkoFKALEoAooEoCygKpAKAooQoAAooLEooAoEACqACigAqykAopKKAVAKAUAoFEAAopKpKQFoAQUFAKAAEopKBQChAApFAAKUSgEAoAApFEUopFEoABAAKAAAAAKRSxQAURRFEURRFEURYgAAAAAAAAAAACURRFgAAAACBUURRAAgAEUQAIlVFEWAAIAlEWAAAAVFJJRAABYBARSQAUlJAJRFlAkWAAAIlVFhFECARYBYlElJAARVkBFgCRZQEWIFRYAAkAFAkWAEnqEWAWJRAAkWEVUAlJBQCUQUlJAARYgEWAAVFglJAJRAJVkAAlEFAiUQEWAUlJARZQIBFgAFkCgkWAEWAEWAUCJRAAJVQAIBFgAAlEAAllAARYAARZQACUQAUBFiAARZQACUQACUQUAlEBuOcgBYlAAAAAUlAAAIAKJQBQAAABSUAgAAoAABQACgAAUBQgoAAABRSUQIBQFABZVACFAFFAgAUAACBVAoAAFIBRQAIBaABRQhQABRQABQFlAABVIAFAVQACKAFFAlAUAVZYBQFAJVAFAUBYBQBQIBRQAFUAUUCAUUBQFIBRQFAAUlAFJQBVIAAKAUUAACUBQFAAlAKAUAUlAIBQBSKAUoigAIABQAAAABSKWKAAAAAFAAAAAAAAAAAACKIoiiKIsQAAAAAACKIsAAAAAQAKiiLABKSLAAAAESqiiLAABKIoixAAqLCKSABEqoBKIsQKSwABEogqLAEAASkgoCLESiCgRKJKIEASygRKJKSCgIsApKSASwBAoCABICLALIsAASLBKqASwCgRLAKSkgAIsQCLABKqAixAEogEqyAASqgASLACLALEsAIsoEAiwASrIFBIsAIACLAKBEogAEqoAEAiwAASiAAiygAIsAAIqoABKIAKAixAAEqoABKIABKIKASjYvOQQAAAAUAAAACxFAAAKAAAUABAACygAAABSygAAAApACigAACgAQCgFAAALRAAoClQAAKAAAKQAooACkAooAEAqgAKCyygACigACywKAoAoEoAoKoAQAoAAtECqAALKACqASqAKAoqkAAAqgEKAAqygCigSgCgKLAAKKAoAqhACgCgCwAUAoACgEoBQCgKAQKSigAUQCgAFEooCgEAAoAAAABSxRKAAAAAAKURQAAAAAAAAAAAACAAAAAAAAAAARRFEURRFhFEUQIAAAACAJVRRFhFJFgAAACAJVRRAARRAiVUAlJFgAlWQACUkBFlAAgEUSVUWAIAlEFgEWJFgFAiUQEWIBBQIlElVAgEUQUlJARYAgCWUAlJARYBZFgABFiJVRYRYBQJFgFJSQAECJRAAJVQRFlgCUQCWWAARZQAJFglEAFkWAEFAiUQACVUACRYJRAARYBQIlEAAlVAAgEWAACUQAEWUABFgAAlVAAJRFgFARYgACUQUABFgAlEFAbjjIAAUlAAAAAqJQAABQAAQBRQgAAEFAUAACgABQBSKAgBZQFAAFAAAlKAAABSUgFAUFlgFAFAABQIAFUAIUAUUACBVAAFAloAAUUAAKgUBQBQIBRQVQAgUAABVIBVAAWUAVZSAFlUAFUFJQAAVZYFJQAFUAFUAlAKUAWAAUUBQBZQBQFACCgUBQABVACCgFAAUBYlFAABVlAgUlFAAAWVQgAAAUiligAAAAAAVYolAAAAUiiKAlAAAAABIqooiiKIsAAAAAAAAQAAAAAAACLABKIoixAAAAAARKqLABKIpIAAABKqABAIsRKIKASkgEqosAQCKTyqoAAESiCkoiwBEogoESiSqgQCLEAiwSrIAESiSqgASLAALIsIogQCACksASLBKqBAAIsoEiwiwCgSLAKSkgEogRKIABLACLLAEogSLKAAiygEpIBKIALIBKILAEogAIAALIsEogAIsAoESiAASqgAQCLAABKIACLKAAiwAASqgAAIsAoCKSAASiCgAIsAEogrccZACgAAABQEAAAAoAIAKoAQCAFLKAAAACgAClEoABAAoAACgUABUoAAABUAAoCgKBKAKAAFAQAKoAQKAKKAECqCAoCgpKAAooACkCgKAUBAKKCqAEAKAAKpACigBLQFKEACqACqCywCgAqkFAAKKAAqgEoCigKQCgKAKAVKAUAoAsAoFAAKsoAFQACgCgKpAAAKAUCxKKAAAUsoBApFLKAAAAAAKURQAAACgFEpAAAAAABRAAAAAAAAAAAAARVkURRFEWAAAAAAAIAlEAAABFEUQIAAABFWQAAAEURSQCVUAACJRJ6lRYgAEUkFJRAgCUQVFiAAJRBYAlEWCVZFgCJYJVQIlEACRYRYgUAliARZQJFgAFRYiUQCWIAFRYAkWCWUCAJRBQJFhFgFAkAFJSQCUkBFgABFgBFlgCUQJFlAAQUAlJARYAJVkAlEFgCUQEWAAUCRYJRAARYBQIlEAAlVAAgEWAACWAAVFgAAlEAAlVAAARYBQCUkAAlEWUABFgAlGw5xUUAAAUlIAAAAAAAAUUIBABSUUAAEBQFlABQAAFCBSUAAAUBSAFAFAAAKgAFFAAFIABaABSAABQIBRQBRQAgVQQFFJQWWUAUlAFAUgUBQFAIBRQFUAgUlAFAUgBRQAlUFAJQBVAFWUgUBQAVSFAAFFAAVSAUBRQFIBQFFAAUlAUAUIUAUAUCUBQC0WAABSUUAWAAUAUCVZQAAFUAgUilAAAAAFWKJQAAABQAColAAAAApYolAAAAAAABKIoiiKIoixAAAAAAAAAAAAAIqyKIAACKIsAQAAACKIsAQBKqKIsAQAABKIsSLKABAIspKIEASkgoCKIESiCkoixAIsAoEAiwBIsoEgEoiyxKIAESiSiCwCLAEiygSLABKqBEok9QiwBEqoAEiwiygQBLAKBIsIsApKSACkpIBKSAiwAAiwCosQCLAEgoBKIKASkgIsAsSiASkgoCLACLAAKBIsEogAIsAoESiAASqgQACLAACLAACLKAASiAACosAAIsAoBKSAAAiygAIsANxzkAAEFAAAAAAAAAoAEAAFKACAAAoBQAKAABKUAAAAApUAACgKAABRAApKAKAKBACiikpAABQAEoCgsqgBCgCgCgAsAoCgCgFQKAoAoEAooAooQKAAoCkALKoASqCgEoALQFASigKACqQoAAqgCigQCikoopKQCgKKAApKAoAoQoAoCihBQCgAKApKKAECrKAApKKEAUABShAAqgAACrFAAAAKAAAAVEoAACkUsoAAAAAoApFEUQAAAAIAAAAAAABFEURRFEUkAAAAAAACRVRYAAJRFEWAIAAAlEURYgAVFEUQAIBFglVFiAAkWAVFECJRABYlEWCUkFARSQCURZQAJFgCRZSUQIBFliURYAkWCUQWJRAAkVUBFiAJZQIBFhFgCJVQAJFglVAAkWUACRYRYBSUkAFJSQCUkWEWACUQAWQAEWCVUCAJRBQIlgBABZFgBFlgAEWAEWAAUCRYJRAARYBQIlEAAlVAgAEWAAEWAAEVUAAlEAAFRYAAJRBQCUkAABFlAARYbjnIIAUAAAAAAACgAIAAFJQAAAAFWKAQFAUAhQABQABSUgFAAAoAAUBSABQAAFKgAAVQFIAAUAAlFABVAFgAAFFAgChQFAAFUgChQBQIBRQBRQgUABQFIAFUABSVQBQgFUFAJRQFAFUIFAAVQBSgJQBQFFAgFFAUAVQgUlAFFiUUABRQhQBQCgVZQACAVQAFJRQgAVZQKAAgFAUAUoAABQAAAAColAApYolAAAAAFAKIoACAUAAAEAASqiiKIoiiLAAAAAEAAAAAAASiKIEAAAASrIsAAAIoiiABAAAIoiwBAEqosASLACKsgAIAESqixEogAoESiSiLECgIsQBKIKSkgARKqSiBAIsoEiwBIBKIssSiABEsoBKSAgoAEgIsASLKABIokqoBKSCgASLCLAKSxAApKSASwAixAEogEqyAAiwSqgQCLAKBIsEogAsiwBIsoAIiygIsAAsSiASiAAiwCgRKIABKqBAAIsAAIsAAEqoABKIsAAqLAABKIKABIsAAIsoADYcZCgAAAAAApKAQAAAUSgAAAAUSgAACgKQAKAAAooAAEoApFAAAAKssACgAAqykAACgSrKACgAAQUoAFCqAQACqAQAooAoAKoAQooAoAEooAsqhAoAACqQAKoAoEooChAKoKASgKKAoBKKAAooCqASgCgKLAAKKAoAqhAoACiwCgCgKLEoAopKKAoBAKUAAqgEAAqgBQBAKAKSgUoAAKAAKRSxUCkURQAAAACgCkUSgEAAoAAAAAAAAAAAAAAAAIAAFRRFEURRFgAAACAAARRFgCAAJRBQAAIAlEURYAgAEUQAAIlVARYAgEWWARRABYlElEWIAFgEWEUQIFJRAAkWUliAAiVUlEACRZQJFElgCARZQJFgCRZQCUSVZBACVUCRYAkWUACRZSUQCUkFAJSQEWUCRYABSWIlEACRYAJYAJVkABFhFlAgEWAUCRYJYAJVkACRZQQBFlARYABYlEAlEABFgFAiUQACVUCAARYAARYAAJVQAAEWAAVFEAAlEFgKCRYAAJVQG1OMgAABSKIoAAAAFIqAAAABSKAAAABSKUAIFAACliiUAAgpZQAAAFIolIBRQABQCAUBQACWgUAABSUlAAUUUACBVAAAWUFiKUAVQAhZQVYoACVQAFUAqAAAVQFiKUBSABVACUUlFUAgFUAVQCBVABRQFFAlAUUAqAAUUBQBZQBQFAFgFAFUIFAAUUBQgVQBQAFAFAgApQAFlUIAAUUBZQIBQBSUUoiiUAgAAAFAKIoAKIpYoiiKIoiiKIpYoigBKIoiiKIoiiKSKIoiiKIoiiKIoiiKIsAAQAABKqKIsAAQABKIoixAIsAoAAAAEAiiKIBKSLAAECoo8qIEASqixEoiwBAqLCKIEASrIACLALEogASLKiwBAIssSiLBKSCgEpJKIAEiygIsRKqABEogSLACLKBIsASLKABIspKIBKSCgEpICLKBIsAAqLESiASkgAIsAEqyAAgIsoEAiwCgSAiwCxKIBKSAAAiygIsAAsSiASiAAiwCgRKIABKqBAAIsAAEogAEqoAACLAAKSiAASkgoACLAABKNhzkAAUAAAAAAFAQAAAAUAAAAAKAAKAKBACgACgCkoBAKAAKAAAooEAKAAKApAAKoKQAABQBKAoCqAECgAKAKCwCgCqAAKCygAAqywAKAqygQACqAoEoCgECqAEoFCigQCqAKoBAKoAooCigSgCqApAKAoAoBUoAoCgCwCgCqECgKAKAoQKoACihAAKoCgAQCgUABSgAAtEAAFKABRAAKAAAKRSgAALLAUAAAACgFRFAAAAAAEURRFEWUAAACAAAAAAAAAARRFJFgCgiVUUQAAIAAlEUQEVUWIAAAACAAJRFhFiAAAiWUlEACARZQJFgAlWQCUQIAllAgEUQJFlAAkWVFgCAQUlJARYgUAlJJYABZAAkWEWUCAJYJSQAEFAkWAVFiAJRBYlEAlEFgCWIBBQJFgABFiRZQCUkABAARZYAlElEFAiUQUCJRAQAWRYAJSQAAEFAQIChYlEAlgABBQIBFgAFJRAgAEWAACWAACVUAABFgFAJRAAJYgWggEWAAGw5yKAAAAAABSUAgAAAUAAAAAKAAAAUUCBQAAFAKAAlAAAKAAAUUCAFAAFAWWAAVQFAgABQCUBZQUBQAlUQFAFAhRQAWgAFAloAAUUCBQFFAgAFUBQJQFlAAloAlAUUUCAVQBVAIBVAFFABVCAUUBVlgAFUAUBSUBQBQCoBQBVAFgFAFAUIFUAUCUAAVQFAIBQACgVZQABQBYAFJRQAFllAAAFIoBQAAABVCQFCiiKiUAAAAAUAAAAAAEAAAAAiiKIoiygAAQAAAAAABKIAAALEoiwAABAAIsAEqoogQAAAAEAiwixAAAsgEogARKqABEogEssASiLEAiygARKJKsgAASLKgQBLALEokogsABIsIsARLKABIsIKBEogEpIBLKBAIAKixAIsoEiwASxAoCASkgpKIEASkgqAAixAEogAsgAIsEsoEASwCgSLBLABKsgASLAABKIKSiBAULIsAIsAEogoEAiwACksAQBKIAACLAABKqAAAgAoCLAACLLAUEAgANqc5AAAAAAKAQAAAKSgAAAAKsogAAAKLAAoAACgKAASgACkoAAAooECkoAAAooEAqgKBAACygQCigFCgBCigACgQooACigCgKpAAKApAoCgKQACqAoEoAoAEqgEoCyqKBAKKAqgEAqgCgUAqhAKKAosAAqgCgKSgKAKEKAKAUoBUAoAqgBAqgCgSgAqgAKBAKAKSgKoAAKAKSkqgAAClAQAUAoAAAAqxUACkoAAAAAoAAABRFEURRFEUQAAAAAAAAIAAAABFEURRFlAAAgCUQAAAAIFRRFgACARYAAAJVRYAgAACUkBFJAAJVQIBFgCRZQAIlEBBQIBFiARZQAIlhFlgACUklVAgEFAiUSWAWAJRAkWAJFlAJSSVUACJRAJYgEWUCJRBSUQIlEFAkWAEWWAJYAiWAUlECARYJZYAlJAARYAJZYAlEBFlAgEFAAkBFgFiWAAJAAAJZQEWAIFAQCUQACWAUCJRABQEWIAAlEAABAAARZQACUQAUBFgAlJBQKCJRAbjnIAAAAUACAAACgAAAAFKAQAAFAUAgUAABQFAAJQACgAAAFFAgUAABQFIAAUUUCAABQIBRQBRQAgVQAAKBSUABRQBQFFgAFAUgUBQFlgAFUBQJQAFAJRQFCClFAgFFAUUCAVQABVAVQgFFAUWAAVZQFAUlAWVQAhQBQFFAUgFAKUAIFUAUCUAVQAAVZQIAKAUBZQFAAKUIUAAUUlAJSgAAAAFKiUAAAWhAUAAAAUiiKAAUAAAAAAAAESiKIoiiAAAAAAAABAAAAEoiygEpIFBAAAAARKqKIACLAAEAAAiqixAAIsQBKSAAiygQCLAEgoABKSSqgAQCLECkogASLCLKBASLKSiBEogoEiwiwCwCLAEiwSrIABKSSqgAkiygIsRKqABEsApKSASwCkpIACCwCLAEiwCosARKIKixAEsQBKIACLLAEsEqoEASiCgRLBKIALIAESxQQACLKAgQFCxLACLAACLKBAEsAApKIEAASwAASiAAAiygAEsAApKIABLECgAEo2HOQAApKAQAAAKSgAAACigIAACgFAIEoCgACgKAASgCkoAAAAosACgAAKUgSgACqApAAAFEAooAooAQKoAACirLAACygKBQosAAoCgLAKAKBAKoCgSgAKKEKAASqALRAKKAooEAqgACqAKpAKKAosAAooCgKSgCqAEKAKAooAsoACigBKoALKoQAUoAKAoBApKKAAKoAAqhAALQgKoBAKBQAApUSgAACgAKAAAQAstAoAAAAAAAAAAAAAAAAAAAAIlEURRFEAAAAAAACARRBUURYAAgAAAAIlVFEBFEAACAAJVQIlECAJSQAVFgACRYJVQIAAlJFlRYAgEUQUlJAAkWVFiAJSQUlECRYBQJFhFlAgEAlJARZQIAlJJYAAkFAQJFlAAkWAVFiAQAWJRAJRBYlEACQUlgCAJYJVkACQACWACVZAAQEWUCARYBQJFhFgFiWAAEWIAAlEFJRAgAVFgBAAJSQWggEWAAUlECAARYAAJRAAJVQAAEWAUAlEABFiBQAGyucoolAIAAAAUAAAABVlEAABQBSUQAJQFlAAUBQACUBQAAAABVJAUUAAFJSAUAAFoFIAAAUUIFAFFACAVQAAUUWAABQFAUUWAAAVQFgFAAUgFUAWiAAFFCFAAVQgFUAlFAUBQCVQABVAFUAlFAUUCAUUBQFJQFFACFAFAUUAJaABRQAlUABVCAFFABRSUAhQBQAClAAUUIABVAUACUABZQFKgAAFAAKJQBQkFWKIoAACgAAAAgAVYoiwABAAAoAAAAAAAAAAAAAESiKIoiwAABAEogpKIogAQAAAAECosAEoiiAABEogsSiBAEogQKiwABIokqoEAASkgqLAEASwCkpIBKSSqgQBLECosASLKABIsIKBEsAEpJKIKBAIEiwASywBKSSiCgQCCgIsRLAKBIsAEpIKiwASkkqoAEAgpLEASkgAIsAIssASiAgoEAgoESiSiACyLABKIEAASwCosAQKSiASiAASiCgQCACgIsQAACLAACLAABKqAAAiwCgEsAASAC0E3HGQAAAABQAAAAClAIAACgKAIEoAAFACgKAASikoAAAACwACigABQEAoAACyqssAAAKKEAKCyqAEAqgAAoosAAAKAKKCygAAqygsoAACkAqgCqQAAooQsoACqQAKoQCqKAoBKKAAqgCqASgUKApAKKAoCyygKAKEKAKAooASqACigBKoAoCgEKKACigQAoAoAqygAKoQACigCygQCgAFKKSkAAoApKAKAALEoAAAAAAAApRFEoAAAAAAARRFEURYAAgAAUAAAAAAAAAAAlJFEAAAlEFAgCURRAAgAAAEWAUCARRFgCARZYBFgCARYgEWUACJRJVQAIAlgFkWAIBFgFRYgJFlJRAgEFgEWAJFlAJSSVUACQACUklgFAiWAJFgCQUAlJJVQAIlEFJRAkWAUCRYARZYlEAAlJJYBQIlgFRYgEWIAlEAFkABFglVAgCWAUCRYJYBYlEAAlgCAARZQECABSWAEWAAJFihYAlEAFARYgACUQAAEWAAEWUAAlEAFARYAJSQUBuOMgAABQAAAAFFJRAAAUAUBAlAAAKAAAVZQAJSkBQAAAFIABRQABSAAUAAUlAIoUABRQgBQFUAIBRQABRRYAAAUUACiWgABRQWAUABQCVQBRQIAUUAWAAVZQIFUIBVAFUAlFAAVQBVAJQFFAUgFFAUAWUBZQFCFAFAUUAJRQBRQgFUAUBZQIUUAFUAgFUAAClAABVIABVAAFUgAAVZQAogFAFJQBQAAAKIAABRSKIoigAAAAAFAAAAABAAAAAAAIoiiKIsAAQAAKAAAAAAAikiwASiCgAAQCKIsAAQACLAKAABIsAQCLLAIsAQCLEAiygASLBKqABAIALIogEpIKBIsEogsSiBEsAsAiwSrIACLESqgEpIAEiwiwCwCLBKSASrIACLEiygASLKASkkogAoEgAIssSwABIsIsoEAiwSrIBKSAAiwASywBKICLKBAIsoAEgIALIsAAIsQABKIKSiBAAqLACAABILQQCLAAKAixAAEogAAIAAKgAAEogoACAAixArdXGUUSgAAAACgKAIACgCkogQCgACkoAAAooALEoAoAAAoEAAooAKBAAKAAUAALLKAAKoQAoCqAEAooAAKCygAACqAAssKKAACqQoAoCgEqgCgUQAooBUAAooEAqgEooCqAQKoAKKAqgEoCigCwCigKAKoQKAoQoAoCigBKKAKKEAqgCgCgQooAKoBAKKAAKKACigASlAAKAKBAKUAAoFECkoAoAAAQKsoAFEoAAAAAAoAAApFEUARRFEURRAAAAAAAgAAAAAAEURRFEWAAIFAAAAJSRRARRBQAAIABFEACAJRFVAAAkWAIlEFAkWAIBFgCJVQAJAARZQIlEAFiUQEWIFAkWEWAWJYAkWUCJRAJVkAlECJVQJFgACRYRZQIlEAlJARZQIBFlkWAAJBQCWIlEAFJSQCUQWQAAJJRBQIlEFJSQCWIABAARZYAlglVAgCUQUCJYJYABZAAJRAgACWAVFiABSUQCUQACUQUCARYBQCUkAABFgAAlEAAlVAAAJYBQCUkCgRYnQOcgAAAAUAoBAAUAAoCQFAAAUAAAAAVSBQAFAAAUgAAFFABQIABQBSUAAAihQBQJQFAFUAAlFAABQJVAAAVQABQWUAAFWWFlAUBZQJVAFAUgBRQFIABRQIBVAJQKAWUAFUAUUBVAJQFFAFUIFAUAVQgUBQFIBQFFACUUFAUIFWUAUAFUhQABVAIBQKAVQAAUoAFllAFAFJRQgUAABRSUhQBQAAAgpZQAUAAAAUIAAFIoiqAABQAAAAAAAAQBKIoiiKIAAAAAAEAAAAASiKIAECgAAAEpIFSkiiCgAAQBKIogAApKSABIogIpIKBIsARKIAESqgEsAQCLKBIogAsSiSiBAoEkogAsiwBIKBEogEqyASwBIsoEiwABIsIAESygEsRKIKBAJKsgAEsQKAixIsAoEiwASiSrIABKSSwCgSLAKixAIsQBKIBKsgAIBLKBAEsAoEgIsAsSwAASwBAAIspKIEACksAIsAARLFCwBKIAKASkgAAIsAAEogAEsoAACLAKASxAVKTcc5AAAAopKIACgACgIEoAAAoAAAAAVAAKoAAoAoEAAAooAKBAAKAUAAABCyqKSgAEooAsqgBKAoACgSqAAAKoAAKKpAAKLAoCgCgSigKAKBCigCgQCgKASqAAssoAtEAqygALQooEoCigAqkAKKAKoQKAoAsAoCigBKUAKKECqACgCrKQoAAqgEoACgUoAAKoAoQoAoBQEoCygAKAVAKsoAAAECqAAAsoAChApFAAAKAAFAAABABRAAAABQAAAAAAAIAlEURRFEAAAAACAARRFgCBQAACUQAAEUkWUAAACAJRFgAlWQACUkAlWQAIlECJYAAiVUBFgACRZQIlEAAlWSWAIFJSSUQAWRYJSQUCJRAJZYBAAkWUBFiAJSSUQAJBQEWIllAgCUklVAAkAFAQJFgFJSQAEWIllAAkWEWAWJRABZAJSQAEWAEWWAJRARZQIBBQJFglEAFkWAAEWIAAlEFJYAgAVFgBAAAkWWggCUQAUCJRAAAQAAEWAAEWUAABBQAEWIC7jnEoAAAAABQAFAIAAAFJQAAAAFllEABRQAFFJSAAAAUUAFAgAFFJQAAACBQFoAAlAoBVACAVQAFAVZYAABVAABRRYAAFlAUAUBSAWgBRQIUUACiAUBRQhQAFUIAUlAFUAFUAWiAVRQAVSAFFAFUIFAUAWAUBRQBZZQAUUIFUAFAFUWAABVlAJQAFFUAAUUABQhZQFFJRQgAFUABQIBQKAAIFWUAAAUUCBSKAAUAAAAAAAUillAAAAAAACKIoikiwAAACgAAAAAAAQBKIoiwAABAAIogAQKASiAAAABIoiygAAQCLABKqBAEpIBKsgARKIEgAAEqyLCLAAEiqgEpIALEsIsAQKSkkogoEixEogsAiwAiyxLAAEiykogQCLESiASywAEiwiygQCLLEogEogQKSiSiBAqLAEAixIsoAEgIKBEsApKSASxAEogAsgAIsEqoEASiCgSAiwCwCAASiBAAIsoCLEACkogEogAEpIKAASwCgASLAABKIAACLABKqAAASiCgEpIDey85AAAAAoABQEAAAAFAAAAAKpIAAAC0AAFEoAAAKKACgQACioCgAABCgAsqgABKsoKoAQCqAACiiwAACigACiiwAALKAsoCgKQCqAKApCigAKSgAKKEKAALRACyygAtACqAKoBKKAoCkoCigAqkCgKALAKAsqgFASgKKEAtACgCqEKAKKABKAKSiqAAKKABKAKoAoChAAKKAKQCgAFAAssoAAAopKAoEAoAAAAAKAAAUAAAAAAoIAAAAAAAAABFEURSQAAAAUAAAAACRRAAAgACURYAgUlEUQAAAACUkUQUABAAiVUCAJSQCVZAAiUSUQIAAFkWEWAAIlVAJSQAWRYRYAgVFiRYBYlECJRBYlEAFRYkWACVZAJRAiUQJFgCRZQAJJVQAIlEFkWAEWAWAJYJSQAVAAiWCUQWAJYiUQUCQAVFiARYgCWACWWAJRARZQIBFlAiUSUQAWJRAAJYgAAEFJRAgAUlgBFgACJSwWAARYBQAJFgAAlgAAlEAAllAAAJRBQCWJ0DnIAAAApYolIAAAAFAAAAAUqAQAAFAWUAAWWUAAAVZQAFAgAAUBQAABYAABaAAIKUChQgFUAAFFCKAAFFAAFAWUAAUCUUBQFIBRQFAUgVQABZQAFFAUgAFUAgVQgFUBVABVlAlAoUBZZQFFAAUlFAAUWAUAVQFIBQFFCAVQBQBVCFlAUUACUAVQFAAFUAUIABVAoCUAFAUBVCAABQFAKgAAFFJQBQKIAAABQCiKJQAAAABQAAAAAAAAAAAAAQAAAAAAAACKIoikiwAACgARKIogAAQACKIAEC1KSLAAAAABKSLKiwABAIssAixAEqyLAESiSiBAAAsgIsAARKqASkgEqyAiwBEqoEiwCxLAEiwCyLAALJKIABKsgEpIBLAEiwSrIABKSSqgARLALIsEogAsAiwixApLAESiASxAoEiwiwCxLAALIBKIEAiwAiywBLACCwACCgSLBLAALEsAAIsQABKIKSwBAAqLACAABIsULAAIsAoESiAAAiwAASiAAiygAAIsAoDcc4igAAAAQCgACkoAAAAopKSAAAoApKICgCgSgAFAAKKBAAAoCgAAKQAACqAAoEoCyqAEooAAooQoAAAqgAKAqkAALLKAoAqkAAtACqQBQoAsoACigKQACigQospAKKCgKAKoSgKKApAKsoCgKSgKAKLAKAKoAsAoCigBKoAoAqhCgCigQCgCqAKACrKAKEACqAooQACikoAqkAAKAKAssAAopKAKAAssAAApRKAAKEAAAAAABRRFAKAAlEUkURRAAAAAAAAAAgAAAAAAACURSQAUAACRRFgAACAJRFgFAARSRYAAAARYkWUACARZYlECABZFgCJYJRFiAAJZYAlEACRZQCUkBFlJSQAWRYAkWAWQAJFlAkAAlWSUQAIlVARYgEACRYRZQIAlJJZQAJABZARYAgUlEBFiBUACRYARZYAlJAQUCQAUlJAJYgCUQCVZAAQCVZAAQUCJRARYBYBFgAlECAARZQEWIAAlVAJRAAAkWUAABABQIlgAABFgAAlgAlVAAAARZQG5ecQAAAAgFAFJQAAAABSoBAAUABRAAUABSUAoAABRQIAAFAUAAUCAAAVQACKAFAoUIBaABRQhZQAAFWUAFAVSAAAVSFlAVSAAVZQFUgBRQBYBQFFAUgAFFAhRQAgVRQFABaIBRQFUgFFAUBSUBRQBYBQBVCBQFAUUAJVAFABaWAAUUCAUAVQAKFFAAlABRQUBQgAFFAAUWABQFAABaIAKAAUAWJRQQFKAAUIAAAKIoiiUUAAAKCAAAAAAoAAABKIpIoiiAAAAAAAAAABAAAIoixAAoABKSKIAAEASiCgAAEpIogAAIsqLEABAIssiwBAAsiwAgQCLAEAiygRKIBKILAIsRKIKSkgEqyASkgEqyABIspLEAASrJKIAEiyksARLABKSAgoEAixIsoBLEASrICABAqLACBEqoAEgEogsAixEogpKSACosQCLEAiwAiywBKICLLAIsAoESwSiACwCAASxAAAIKSiBAApLACLAAESiCgAEogoAEiwAASiAAAiwASqgAAAIK6BziAAALEUsURQAAAACiwCAAAoAoCAoAAAoEKKAACrKBAAAoCgAKQAAACqAAQKAoCyqAVAKAKBKKAAAooAKAosAAAqywKAqgEAooApKAKoAoEAqygKssAAooEKKAALKBQoAKoBKKAqywCgUKAssoCigBFCgCqECgKAKoASqAKACqRQACqEAoAqgAqgKABKACqACkoAKAUAoAFEKAKAAEpQKSgCgBCigAFAAKEACkUAoAAAAAAAAAKKRRFEAACAAAAAABQAAACURSRRFEAAAAAACAAJRFECBQAAJFEWAACUkFoIAAAAlJAJRBSUkACARZZFgCABZFglgACRYAiVUACJRARZQIBFiRZQCUkCRZQCUkAllgAJBUCAAJZUWIAlJBUWAJFgAlJJRBQIlECRZQJFgFiUSWAAWJRAJSQEWUAlJAJYgUBAkWAWRYABZAJRAgEAFkABFglWQAEFAAkBFgFgCUQAECAAJRBSWAIAFQAEWAAIlEFAAJRBQIBAAAJRAAAQAEWUAAAlG45xFAAAUAAAAAFAUkAABQBSUQFAAAFJSABQFAABaIAAFAUAUCAAAAVQCAAFAFAoWiAAUCiUCgABRQAUBRYAABRYAWUUUIABVBSAUChQKIBRQFFgAFFAlUAABVCFAFBRQJQFAVQgFUAUVQhZQFCFFAFAUWAUAUBQhRQAUUCVQAFUAJQBVABRQUACUAVZQBVlgAFAUAUAUFiUAUAFFiUBQFACClAAAoAUIAKAUAAAAAFAKIoiiUAAAAAAAAEoiiKIoiwABAAAAAAAoAAABKIpIAAAEAAAiiLEACgAEpIogEogAAoEAASkgIsApKSABAIssSiABAqKTysAASLAESqgAEpJKIKBAJPUSCgRLACLLAEpIKixAEpJKqBAAIKixAIsASCkpIAESwiwCwCLBKsgEpIALIsIsAAsSwASxEogAsiwAiywBLAEgpKSACkpIBKSASwASywBKIBLLAEogoESiAgAsASwASiBAAIsoCLEAASqgEogAARKqAAASwCgRKIAABLAABKIAKgAAANxzjQAAoAAAAAKVAIACgAFAICgAAKQAABQoABQEoAAoCgKQAAAACqAQAAoApQELKoAKAsqixKAAKAoAKKBRAAKBRAD1KBKACqCkAoCigKQCgKKEKAKBRKoAAAtECgKAC0QKsoAqkAooCgKSigKEKAKKAosAAooChCyqACqAQooAqgBKAKoAKKCgKEACqACigQCigAKAVAoCgABKKAAqygAsAoAAKsoEAFAKAAAKsUSgAAAAAAEoAUAAAAAAACAAAAAARRFEURYAAAgAAAAUAlJFgAAACAAARRAgUAACJRFglEUQAAWAJRJSQUAlJAAiUQUlJAAgUliJRAAiUQIlVAAJSSVUACASVZAAkWAVAgCUkFRYgIlElVAgCWAVFiAQCVZAJSQAJFhFlAgEAlWQCWIAFkWEWAAWQAEWJFgFAkABBYBAJSQUlJABUWIBFiAQAEWWAJYAkFAJYBQJFglgAFgEWAEWIAABBYlLAgAVFgAlgACARZQAAEWAUCRYAAARYAARYAJVQAAG9OcQAAUAUiiKAgAAFAAFAQFAAAFgAAABZQFKAgAFAFAUUCAAAABVCAAAFABQCUChQAUCgolABQFABRQFIAABVIAUFlUIBRQUCUAVQBYABVlAVZYABVBSUAAFUgUBQAVQFlAAUlBRQFAUlAUAUWAUBRRYABRQFCBVAFUIAUUAFUAlAFUAFKBQFCABVABRSUlAKAUABSAWgAACVQBQBQIUUAAFAFAgUlFAAAFWUAAAlAAAAAAAAClAICooiiKIsAAAAAAAAQAAAAACKIoiiLAEAACgIpIAAAAEAASiLEACgAEpIFBIoiwCwBKJPUSLKASkgASLKASkgAQKgEpIAESiASrIsAEpJLKABEokqyABIsEqoEAixAsiwBEsIsoEAiygSASwBEqoEiwABIsIKBEsAEssAixAAskogARLKAAgSACkpIBKILEsASLAKixAAsgAIESiASrIACAgoEAiygQCAiwCwBKiCgIEAASiCksAQAKgAIsAAQCLKAAAiwCwCAAAAiwAAiwAiygAOgc4gAACgKAEAAAoACgAAAAKSkAAAACgCyygAAoACgLAKAAAAooQAAAoAKAKELKoABShCyqAACigCigCwAACrLACygKpAALQUQCgUKEUAKKAosAAooLAKACiwKAAoKsopAKALKACqKApAKoAosAoCihCgCigKECqAKoQAooAKoBKAKoApKKKAoQAooAKKBKAoAoAoEoCgACixKAKAKCxKKAACgKAqykAAACrKAAQCgAAAAAAFEURRKAKAACAAAAABUURRFEWAAAAAAAAIAAABFEACABQCURYgAAAIAABFECBQCUQAAJFgFAiUQEWWAAkWCURZYAlJAAiWAUlJAAiUQAWQAIlhFlAgEWCVZAAkWUlECAkFJSQAJBUWAIlEFJSQEACRZQEWIAlJJRBQJFgBFlgEWIAlWSUQAWRYAJSSUQAWJYARZYBFgCQUlECBSUkAlJARYARZYAlHlZQIABBQIlglEAFgCWACUQIABFlARYgACVUABFgACBUWAAAEAFiUQAACUQACUQAEWUB0DnEAAUBQAgAAFAKAAAAACoAAAAAKABQJQAAUUlAIUUAAAUBQgAABQAUAAUIUUCgCUChQAUUAUAUWAAAUWABQFFAgFUFIBQFFCFAFAUAlUAUCiKFAAFUIoAUAWUUBQAWiAVZQVQgFFAUIUUAUCVQBRQFCBVAFAlAUUAFUAlAAoUoAFUAJQFFABVAJRQAFAKgFAWUACUUABQClFAgAFAFAUIoAABVlAAIBQABSKIoABQAAAAAAAAAAAAAAAAQAAAAAKiiKIoiwAAAAABAEoiiABAAoCKSAAAABAAEoixAEqoAACLECgRLACLLAAIsQCLLAASLAEiwCkpIAESiASrIAEgIsoESiCosQBKSCkogRLECkpIBLECosASLABKskogASLKAgQCLESiCkpIAEiykpIALIsEsAEqyAAixIsAoEiwAgsSiASkgpKIECksQCLESiACoEAgqABAEogoEiwSiACwIiygIsQAACCxKWBAAIsoACABAEqoAABKIKBEsAAAEogAEsAEqoDoHOIACkoApFEoAAAAoAAAsAAAAAFAAACkoAApKAKELKAoACigBAAApKACgACixKAKsoEoCygKKSigLKAoFEAAoFECgKKBAKoCgSgCgKssAAqgEqygAKpCgCgCqEKAAKLKKAAoKpAKKCqEAAtACrLAKoBKKAoCihAqgCgSgKKACqASgAKKoACqAEoAqgAqgEpQCgAKQCgCgASqAKAKSiigQACgKAKELKACrKAAQCgAFAKAAAAAAAAALLFEURVRRFEWAIAAAAAAAAAAAACAAAAAJVRRAAAgAEURYAgAUAlEUkAAACAAARRFlRRAgEUkAFkABFiBQEWIBFlgAJFgBFlgAJFgCJYAJVkAliARZQJFgFRYgEWIFJYgEFgCUkBBQJAJSQAEWWRYAAkFJRAgECRYBZFgACQUlJABZARYARZQIBAkAFJSQCUQWRYAJYgVFiABZAAQJFgAlWQEWCVUCAARZQIlEBFgFgARBQECAAJRBZFiggAVAAJRAAgCVUAAAlEFgEWAAAEWAAEWACWV0jjEAAAUBQAAAAUAAUlIAAAAFJQAAAFAlAFAAUAIoUAoABQgAAoAAUAAUIUAAWgCUChQKAFAoUBSAAUBSBQFAUgBZQFogFAoAloAVZQIFUAFUBYBQAWiFlAAVZYBVAFAWWUFAoKJQAVQBRYBVAIBaAFWVQAloBQJQBVABQFIBQFFAolAFUAFFAlABVlFIBQAFAFABVlgBQBQBYBQFlAAlAUUAAVQABQIBQABSUAUAAAIFWKIoAAAAAACgAAAAAIoiiKIEAAAAAAAAAAAABAAIqoAAAEASiLAAEACgIpIAAAAEAASykogQBKSASywACLECgIsQCLLAASLACLLAASLAEgAEssAgEpIKSkgAqBEogsAixEsAsASxEsAsSiBEsAAqLEgAEqyASxAEsASLKBIABKsgEsQBLLAIBKIECksRLAALEsAIssAgASCgIECksQBLEAgAIssAgIsoEASiCgSLACLALAhKIKSiBAAIsoCBAAEqoABKIAECkogAASLABKIAKiwAAASiAA6BziAAAooAAAAKAURUAAAAAFAAAAACkAAtAAChCygLQAAoQAKSgAAoAAoQKAAooEopKAKsoACrKAosAAoCywBQAqgEALKqywCgKASqAKApAKoAoFEUKAAsqhFACigQKoKAC0QCrKKQCgooChCgsqgBKoAooChCihCigAtAEoAoCgLKoCihAKoAoFChAKKCgSgAKAKACiwAoAoAsAoALQBACigACqAECgKAAALAAKAAKoAAAAAAAAAKAFAAAAgAAAAAAAEURRFECAAAAAAAAAgAEVUAAACAJRFgCAABQEWIAAACAJZQEWIABFiBUWAIBFlgCUQIBFlgAJFgFQIACQEACAQWRYAiWUBFiAJZYBFgFiUQJBQICQEFAkWCUkAAlliWAAJFlAQIBAJSQUliAAkWUCQAWQCWAEWAWAQJABSUkAlEFiWACWIFRYgAWQAECJYAJVkAlgBBQIAliBQEAlJBQAQllARYgAAEFiUsCAARZQAIlLAgAUlgAAliAAJYAJVQAAACUQHQOcQAFFAAAAFgAAFAAAAFAAAAACgIABVlAAUUlIBVAAFACCgAABQAACBVAABVBSAUAFoAUCiVQABQBYAUAUUCAAVZ6AgFFAUWAAVZQIWVQAVQUgFABaIUAAVQCWgBQVSAUUFAlABaAFWWBVACBVBQFFCBVAWWAUBRQgFAoUAVQBVCAFlUFAUUIABaCiAUBQBQAUWAFlAUAWAUAFAogBRQABVACFAFAAAKgFAAAKUAAAAAFAAAAKIoiiKIoiwAACgAAAQAAAAAABKIoiiKIEAAAABAAIsoAAAEAiiABAAApKIsQAABLALAIsQAEiwCosQACLLAIsQAKgQBKSASqgQBKSSwBAEqySiABIKSkgAqLESiBAqLESwCwBLESwCgSBIsAAqBIABKsgEsQCLAEiygSAASrIBLEAiywCASiBApLESwCgSLACLLAIAEgpKIECksQBLEAgAILAIsEqyAAAgQKSwASkgoIAiygIEAASwCyLFBAAIKABIsUEACosAEsQAACLABKqAAAAiw6RziAAAACgCgQACgAACkoAAAACkpAAAALQCkpKAAKoAAKVEoAAAKAAQAUoAApKKLAKAAsqgCrKQsoCgAooEKAKKBAAKKLLAKBQoRQAooALKACigsAoAKLAoACrKAqywCgCqEAqgpKACrKAoRQqgAEqgCigKEtAKBKAsqhAKAoAooCigSgCqACrKBKACqCkAoCgCgAosAAqygAsAoAKAKBCigACqAEAtAAAEKAKAAAooAAKAAKRRFEoAAAAoAAIAAABFEURRAABQAAAIAAAAAABFECAAAAgCVUWAAAIABFEACABQCURYgAEWAWARYgAJFgFQIAlEFiUQIAlVAgCWIFJRAgEWJAAgEWWRYAiWUBFiAJVkBFgFgECQAWARYkFAiWCUkAAlWSWAAJFlAQIlEAlJBSWIACRZQJAJVQIlgBFgFgECQAUlJAJYgUlECRYBUWIAFkACQCUQEWWAJRAJVkAAlJBQEWAJFgFBCUQUlECAARZYCwIAAlVAAAkWAAUlEAlECAAJRAARZQAAAHQOcQAAAUACiAACliiKIoAAAAAKgAAAAFUBYBQAAVQAAUgFAAAUAAgBRQAFAIBVAFABaBQBQihQAUCiFAFAUgAFAoFllAUAlUAUBRQhQBQKIoUAAFoigBRQFFAgFBVIBRRZYBQBVBQFIWVQAlWUBQKFCFFAUUIFUIBQFlAUUBQFFCAWgBRQJQAVQWWAUBQBQAUWAAUBZQWAUAFAFAVSAABVACAUCgAFgAFAAFUAAAFKAAAAAUAAAAAAAAAAAAAAEAAAiiKIogAAoAAAEAAAiiBAAAAQBKqLAAAEAAiiABAAoBKSAAgAsAgQBKSCkogQBKSCosAQBKsgASACkogRKSSwABEqySiABIspKIECosRKIALEsRLALAEpJLAKCSCoEACoEgAEqyASxAIAEiygIEASrIBLEAiygSAAgsASxEsAoEiwAgsAiwSkgpKSACksQCLEAiwSrIACLAEiygAIsQKSiABIsoIASygIsQABKILEpYEAAiygAQCLAAKSwAiwBAAEogAIKAAA6BziAKRURSxRKAAoAACgAAAACgQAAAAUoAQoAoAAqgBCygKAAAoBAACigCgAQCigKAKSirKABKsoCgFSgLKAoCkAAoCgKBKoACygAqygKssAAqyikoAAKpCgACqAKoBKALKAC0FEoAKoAosCqAEAtACrKoAsoAoEoCihAKKAooCgLKoQCqAKAooQCqAoEoAoCgABKoAoAoKoQACgCgKEUAAqgBAKAKAFQCgAACqAAACigKAAAAAAAAAAKRRAAAAAAAAAAAAAAgAAEURRFEAAFAgAEUQIAAACAJVQAAAIAlEWAAIAFJYAJSQAWJRAgEFAiUQIAlJJVQAIAllgCWAIFRYgECRYAgEWWRYAiVUBFgCBUCRYBYBAkAFgEWJFlBIlgllgACWWJYAAkWUBAiWACUkFJYgAJFlAkAllAiWAEWAWJRAkAFiWACWIFJRAkWUCQAAWQCUkAlEAllgAEACQUAlECBUWACUkAABFlAQIAAlgFkWAAAEFAAiUQAAVFkBUCAAARYAJVQAAHRTjEAAAAFAAUAAAUAAAUlIAAAAFWUAAgUBQACgJQAKAFAFJQCAAFFAUAgAAFUAVQABVAFCKFAUAlAoUAUCAAVZQUCFlUAJVAFAoUWAAUUFlAABRYFAAVZQFWUCUAFogFUFIBQUUBQhQUUAJVAFFAUIoUCiUBZVCAUBQFUAFFAlAFUAFUAlAUUBSAUUBQAAlUAUAUBVlgAFAFAUIAoBVACAUAUBVIAAAAUUAAFAAWUBQAAAAAUAAAUlAAAAACKIpIoiwAAAAAAAAAAABAAEogoAEASiLAEAAABAIqoAAAEASiLAEASygARKIALEogSACgRLAEAixIsoAEAiywCABAqBEsEpIAECySiABIsoCBApLESiACxKJLECwBKSSiABIsqBAAIssgARLKASxAIAEiygIEASrIBLEAgoEgEogsAixEogoEgAILAIsRKIKSkgAqLEAixAIACCwBLABKsgAEsQAKgARKIABKIKSwBAAIssAgAAEogoAESiACkqIBKqBAAAIACLKAA6RxiAAACgAKAABSxRFRFAAAAAABSgAABCiikoAABKAsoCikoBAAACigKAQAACigAoCgCqAEqgAsqhAKsoCigQACigFEAqygAsoAKsoEqgCgKKssAAAtEUAKKAooEAoCyygooKBKAC0AKssLKoAQKoKAooQooCygSgtAEoCygqgAoFEoAqgAooEoCigKQCgKAKAEqgCgCgKAssAoAoChAAqigAQCgCgKBRAAAqygAACgACgKACgAAFEURQAAAAAAAAAAAAAAABFEURSRYAAAAAAAAAkUQUACAJRFgCAAAAgEVUAAACAJRAJVQIACJYBYBFiRYBQAJFgCARZZFgACBUWIlgACQWJYARYgIAllkWACUkFJYAgVAkWAWARYkAFgCWJFgCJRJZQIAlVJYgAJBQECJYAJSQUliAAkFAkAlgFiWAEWAWJRAkWAWJYARZYACQEFAkWAUlJAJSQEAAlWQAEWAIllAARYgUlgACRYAAJYBUWIAAlEFiUQAACUQUCAJYAAJYARZQIAAlEABFlAdI4xAKIoiligAABSAAAUAAAAAVQAAAAgUAoUAAJQAKBZQFCAAAFFAUAgAAVZQAAUUAFUCoBQAWgCUChSgIABRQBSAUUACVQBRQIFUAFWUCWgABVIFAAVQBVlAlAoUIBaBSUAFWUBQilAUAJVAFFAUWAUUCUBRQAlFBVABQFFCAVQBQKFCFAFFgFAWUBQAlUAUAUBQCoBQBQFCAFFAoAgFAFAUACiAClAAABQAFFAAKWKAAAAAAAUAAAAAAAAEAAAAAAAAAAAASiKIpIsAAAAASKIKABAEoixAAAAQBKqLAAAAEAiyosAQAEiwCwCAixAoEAiwBAILIsAAQKgSLABKsgSABIAEAiyyABEsoCBAEqySiACxKJKSCgQEkogASLKgAQCLKgQESygEsRKIAEiygIEASywBLEAgAsgEpIKAixEogoEgEogsASxEsApKSACosQCBEsAAIssASiABIsoBKIECosAQCLAACLKSiBAAEsAsSiAAASwCgQCLAACLACCwAABLABKIK6bLxiAAAAACgKQAACgAAACrKAAAAQKSgAsoCgABKUACgKAEAAFAKoBAABQACgCgKAVKKAAoCyqEAqgsqhAAKKAKQCgKACyygpQEAtACigSigAKLACygKsoCgUSgKKEAqgKBKAC0KApCigBKsoCgUKEUKAooQKoAKEKCigAooEoKoAoCihCgCigQCigKAEqygKABQpQEAAooChACyqAC0AQAKAoACkopKAAAKAAAooACyqAACgAAAAAAAAAAAAAAAAAAAAAgAAAAAAAAACURYgAAAJFEFAgACUQIAAACAJVRYAAAiWAVFgCAAkWAWQAEWIFAgECAQUlJAAgCVUlJABZFiQACWICAJVklgACQUlECBUWJFgCBUWJFgFgCWJFgAlJJZQIAllJYgAJBQECRYAJSQUliAAkFAkAlgFiWAEWIFJRAkWAWJYARZYACQEFAiWAUlJAJYgEWAAWQAEWAIBBQEWIAlVAAiUQACUQUlgCAARZYBFgAABFlAAgEWACUQCVUCAAARYAJZXUOMQAAAAUAUCAAUAUlAAFAAACAFAAAChQACoABQFAFCBSKAAFlUIAFJQABQAFFFAAlUAUAFoCpQAKFCAUCgUgFAUAAloFAJQFlUAFUBZZQABaIBaAUBQFlgFFAUIFUBSUAFUAUWFlAUIBaAFWVQhQBRQJQKFBQFlhZVABQKJQBVABVlAlUAAVSAUChQABZQAUBQUlAABRQFCABVABQKIAFAUABSUCgAABQABQFAABVlAUAAAAAoiiKAUAAAACKSKIoiwAAAAAAAAAAAABAAAAAEogQAAESiLAKBAAIogQAAAEASqiwASwACyLAEABICCgRKIECgRKIEgoESiABAEqySiBEqpKSABIAEAiyyABEsoCLEASrJKIALAJKSACxLICyABIsqLAEAgqLEBIsoBLESiABIKAgQBLLAEsQCACyASkgoCLESiCkpIBKSCgEsRLAKBIALIAEgAIABLLAAIAESqgEogQKiwABEsAAIsAqLEAASiCwCLAAACLKBAAIsAEsAIsoEAASiAA6RziKRRFRFLKAAAAKABQAAAoAQAKAAAALKAoCkAAoAoCgCwAAABQoQUAAAoABQKoAQKoAKApKsoCgLKoQACqCywACigACyyrKAoQC0AKKCygAAqkALKoCgCgKSgUKAEtAssAoAqgoQoUKAEqgCigKLAKBRKAsqgAosCqACgKKEAqgCigSigAKssAoCgCgBLQApQEKKAACgKKEACqACgKAQKAoACkoAFACgAAFKAAACigAqxRFEoAoAQAAAAAFAAAAAAAAAJSRRFEUQAAAAAAAAAAIABFJAAAAiURYBQIABFECAAAAgEVUBAAiVUACAJSSVUACJRAgUCJRJSQUCJRAAgCWWQAWJYRYgCUkACJZSUkACRZSUQIFRYkWAAWJYkWAWJUQCWWAJSSVUCAJZSUkAlJBQECQACWIFJYgCVZAJYAiWAWJYARYgUlJARZQJFgCQUACSUQUCJYBSWIBFiAJRAARZYAlgACJZQCWIAFQAIBFgABBSUQIAAlgFgEAAABBQIAlEABAJRBYAAAlgB0l5xCAAUAAAAAFAUAAAUAUiolAAAAAUACBVAABQFAAJaAAABZVCFAAAFAFJQAUUAJVAFKAlAoUAChQgoABaIBQKAAJVCgCUBZVABVCiUAFFgAFUFlAUAWUBRQAVSAKJQAVQBRYWUBQgVQUBRQigBVAJRVABVAIUUAFFAlAWVQUBRQigBRQJQBQFACVQBVAIUUAAFAUUAIFUAFAUAgUBQAFJQAAWgAAFJRQAAAVQCAWgAAAABQABSKJQAiiACgAAAAAAAAAAAAEpIoiwAAAAAABAAEogQAAAEiwCgQABKIEAAABAEspKIALEogQAEgpLAEASxAAoEgIsQKBIsAARLCCwECpKIEAixARKqAixAEqyAiwBEqpKSACwCLEgASLALIAESwiygRKIKixAIssASxEsAASLKAgQCLLEsAASACyASkgoCLESiCkpIBLECgSLCLALAIsAsgEpIABLABKsgAIsAQKiwAixAEsoAEAgAEogpLAEAAiywBKIAABKIKCQKSiASiBEogoAACLDqHGIAKAAAAAKsUSgAEKAAAKAAAAAoBAAKoAApRKAQAsqgAAFASqAAAKAUAACgKECqAKoQCrKAoCyqELKAAqywCgKAASiiygKEAtAKsoLLAKACqQCigoCgALLKKAoAqhCywCgooChChQoASqAKsoCqQCigSgKKAKoQsqgAoCkoAqgAqygSqAALRAKKAoAKLAKoBAoCgAoCigBAqgAoCgEAtAAApKAACqAABSgAAAopKAQCgUAKAAAUSgAAAAAABFEFAAAAAAAAAAAAAAAAJSRRFgAAACAAJRAgAAIBFgFAgACUQIAAACJZQEWAAWRYAgEFAkACAQIFAkACQUCJRAAgHlZYAFkBFiAJSQAJBSUkACRZQECBSWJFgAFiUSWIACQCWWAAklVAgEWUlJAJYBYBAkAAlJBSWIAlWQEACJYBYlgBFiBSUkBFlAkWAJBQCUklEFAiUQUliAJYgAEWAEWWAJRAAgVAJRAgEWUCAJRAARYgWxYgACUQWAJRAAAJRAgAUlgBFgCRYBQAAHSOMQAUAUAAAAACUBQAABQAAABQIAABRQAoACUAAFoACgAIFUAAFFJQAAAUUAqUAFUAlAUAUqAAWgABaIBVAAJRQCgCUBZVFAlAoUAFFgApQFAFABaIUUAFogCiUAFUAVZYUAUJRQFAoUWAAVRQgVQAVQFgFBQFlUIBVAFFAgVQAVSAUBQBQBZQFFAFgFABQFAFCBVAABVAIBQKABSUAAFUAUUAAAABRQAIBQFlAUUiiUAAAAAAAUAAEAAiiCgUAEAAAAAAAAAAAAAASkgAAAQABKIEAABAIsAoEAASiBAAAEsoESiABEqoEAgApKSABEogQKgQBLECgRLAAEgqBARLKAgQBLEBIsoBLEASkgpLAECpKSACwCLEgAEsQKgQESwiygRKIKixAILAEsRLAAEiygIEAgsSwABIBKsgEpIKAixEogpKSBEsAoEiwiygQCLALIAEgAAIALIABLAEASqgIsQBKqABAIsAAIESrYEAASygQBKIAAESxQQAKiwAgASLKAAA6RxiAAKAoAAAASgLKAAAoBRFEUSgEAAAAtAsoAEoAAKoCgQAAAooACgCgAACgsoAKAKoQCigoEoAKsoACrLACyqACiwAoAoQKooEAqygKAC0QoAooCgAqywsqgAqgEKKEAqygKEUoCgBLQAqyqBRAKsoEoFCgqygQoAoKKBKAsqgoCkAtACigSgKAKAEqgoAoRQoAKAoAoQKoAAKoBAKABQKSgAAqgCgUAAAKKSgEAoAACyrQAAAAAAoAAAApFEAAAACRRAoUAAACAAAAAAAAAAARYgAAAIAAlECAAAgEWAUCAAJYAgACWUACRYABZFgCRYBQJFgCARYgVFiAAkFAAkACQUliAJYgUlgCAkAllgAECAiWUBAgCWWJYABYlElJAAkFJSQCUkFQIBBQJAJYBYBAkAAlJBSWIAlgCQUCJYBZFgBFiBSUkBFlAkWAJFlAJSSWAUCJRBUWIAliAAJRAJZYABAAgUlgBAgCWUACAQACUQWJYAAAQWAARYAAAkWAAUlEAlECJRBQAHSOMQBQFAAAAFliiKAAFAAAFAACAAACgAFoAAlAFJQBVAIAAFUABZQAFAAFgFUAUAFUAgpQFAJQAWgFJSUAChQAloFAAJRSUVQCUChQAVZYWUABVAFAFUWAUAVQgUBQgFoAVZYUAUJVlAUChVIBQKJQFlUAFoBYBQUBRQgVQAVSAFFABaIBRQFACVZRQBQhRQAUAUBQgFUAAUUCAUAUlBSUAAFUAUACgABSgAIBQAABVAoAAAUAAAAAABZQAACKIsAAAAIoiqgAAAAAQAAAAAAACLEAAABAAEpIAAAEAgAoEAAiwBAEqoAESiABEqoAEgApKSABEogRKqBAEpIKBEogILAIsQCCwCLEASxAIssASkgASCkogQKixIAALIsIsQBLECosQEiyksARLAKSxAIKBEsRLAAEiygIEAgEssABIBKsgEpIKAixEogpKSBEsAoEgIKBAEsEqyABIsAAEsAIssASiABAqLBLEAAiygQBKIACLEC2LEAASiCwACLAAEAgAApLACLAESiCgOlXGMUSgEooAAAAACgCgAAKAAEAACgAAKsoAEopKAAAqhAABQCgAUAKAApAKKAAoAqiwACigSgAqyiygQCgLKoASqCygASigAqhAKsoCgFKEUAKsoCgAqkKKAC0ARQoASrKAosCgKEAtACqKLAAKsoEoqgAqgEUKACrKoQCqAKpAAqgAqkAoFCgAosCgKAssoAKAKAoQCqAAKKBAKKSgAssoAAKoAoAAqgCkoBAKAAACigAFCgAAAAAACkVEoABQAAAACURRFgAAAFRRFEAAAAACAAAAARYgAAAIAAliAAAAiUQAUCAARYAgEWUACRYABYlgAliBQIlgCARYgVFgCARZYACRYRZQIlJARYBYlECAkWCVUCARYgIlVARYgCVZJYABYlkJVQICRZSUkAlJBUACQUBAkWAWAQJAAJSQUliAJYAkFAiWAWRYARYgUlJARZQJFgCRZQCWIlEFAgEFkWACUkAABFglWQAEWAIFAQEWIAFQAIAlgABAiVbAgAEWUCAARYAAiUQAAVFgBAAiWAV1DjEIAAoUAAAAFAFAAAAUAqIolAAAAFFAABYBQAAVQCCgAAFAWUABSgIBRQAFAKgFUAUBQCUUlFAogAFAoUUlJQKAJQFAFUAlFAUBQCVQABaAFFiUVZQFBVAIUUAAJaFAUhRQAlWUBRQFogFAolAUUAVQhZQFAFUJQFlUBSUAFoAUUCUBZQFACWgoAUWAUAFFAUIBVAAFFAgBRQABZQAAVQBQAAVQKAAgFAAABVAAAFoAAAACoigAAAAAKAAAAAAAAAiiKIAKAAAiiKIAAAAEAAAixAAAAQACLEAAABEogAoEAAiwASrIAESiABAqAAgQKBIAEAgsAgQBKSCgRKJKqBAIsRKIKBIsQBKSAiygRKSABIKSiBAqLEiwASkgqLEASkgqLEBIKSwBEsApLESiCgRKSSwABIsoCBAIBLLAASASrIBKSCgIESiCksQESiCgSAiwCwCLALIABLEAAAgIssASiABApLBKIEASrIAACLABKIESygAAILAAEogAASLAAKSiASiBAIsOoc4hACigAAACkUsUABAAACigAAAAAoCgEAKAKAAsqhFAAAACgUCyqAAEooAAC0AQKoAKKBKKAAqygQCgLKqywACrKAoQsoAKoQCqAKoBAqgAqygKKBKBQoAqhAqgABKsoCrLAoChAqgoCiqQACqKECqACqAsAoCigoQKoCkoACigAtEAooCgBKoKAKEUKACigKEAKKACigQAoAoAsoAAKoAoAAKoAtEgKAAAClAAAKAsoAKRUSgAAAAAAAAFAAAAAAAAAAAAJRFEAFAAAARRFEACAAARYgAAAIABFiAAAAiUQAUCAARYARZYACRYABZAAJYgUCJYAgEFAiWAIAliBQJAJZQIlECJZQIBAgEWIFQIBFiARZYBFgCBUlJAAkWCVUCAkWUlJAJYgVAJSQUBFiRYBYBFiQACWWAJYgCWAJBQIlgFkWAEWIFJYgEWUCQAJFlAJYiUQWAJRBSWIACQAACUQWQACUQIAFRYRYgAEWWAAAQAEWIBBQACUQWAAJRAAiUQAAUlgBFgCAdKuMYolAAAFAFAAAlAAAAUUAAAAAFFQIBQBQFAFIoCFlUAAAFFJQFAUAIBVAABZVCAVQAFWUgBRQAVSABVlAIoUAFoAlFAAWiAUUBVlgAFUAAWgFUIBVlAUFUAlUABVCAUWAKFACVQBRQVQgFFAlAUUBZVCFAFFUAJQVQUAlAFUAFWWAUBQBQFJRQFAUlABQKFCAFlUAFFAgBQBQBZQAAVQBQAAVQBQKIAAAFWUAAAUAWAKAAAAAAAAAFAACgAQAAAAAAAAAAAACKIAAAKAASiABAAAIsQAAEAAAixAAAARKIAKBAEsAEqyABEogASCgAIECgSABIKBAIEABIKAgQCCwBLECoAESxAEpIBLKBASASywACBApLEiwASkgqLEASxApLEAgsSiBIsApKSSwCgRKJLEABIKSwBAIBLLAASASrIBKSCgIESiCxLAESwCgSAiwCwBKILIsAEpIAACLBLLAAIsQAKSiBIAALIsAAEogEogRKIKAASkgoAISwCgRLAAAKiwAgATqHGIAAAKAKAAAoQAAAKAoBRFAAQAACgAKKKSgEAAtAAAKSigAKKAAEpQAAKAoQKoAoEoAqgAooELKAoCyygAqygCyygAqygQCqALRAKKAAqygKoBKBQoAqhCygKApKACqQsoChAqgoCi0QACqKECqAKoQKAoCigBKsqrKBKAC0AKKBKAsoCgKQC0AKLAKACqASgCqAKSihACgCgCygAAqgACgAqgCgCgQAClAAAKAApAAFAAAAACgAAAAABQAAAAIAAAAAAAAAAABFEAAAAFJRAAgACUQIAACAAARYgAAAIlEAFAiWAAEWWAAiWAEFAgCWIFAiWAJABQIlECAJSQVFgCJVQIBAJVkCAQIBAAkWWAJYiVUACJYAgVJSQAJFgFQIBBYCQEWAWRYJSQUBFiQUCARYQIAlWSWAIAlglWQAIlgFkWAJFgFJYgEWUCQAJBQCWIlEFgAEWIlVAARYgAAECRZQAJFgAFRYiWAACVZAAAJRAJRAiVUAAAliBQQBFlAAkWAAUlEAlECdQ4xAABQAFAAUipYpAUAAABZVAACAAAUABZQChQgAFWUAAUAUAAVQACoABQAKFCBSUUBSAUBRQBVlIAoAUIoUApQgChQBVCBVAAWWUAFUABVAFUJQFlUAFUgChQBVCAVZYAoUAJVAFFFlUIBRQJQKFBVAIUUBZVABRZRQIBQFFABVIBRQFAUgFUAUIoUAFFAUIFUUlAIBQFlAUACiUAFWUABQAVQABRQJQBSUAAAUAWAAAAWhAAUAAAAAUiiUAEoiiLKAAAAAABAAAAAAAAAAIogAAApLAAEAASiBAAAQAACLEAAABEsAApLAEASrIAEAgIKBAAIECgSAgQKBAIsQACLLEogQCLKBEsAsiwBEogSLAESqgQCLEgoEAixAEspLEASkgpLEASxApLESiCxKIEiygEpJKIKBEokpIAEiyoAEAgIssBAIESqgEpIKAgRKILEsARLAKSkgEsQKABIsIsoAEiwAASxEqoABKSACgIEiwACkpIAACLACLEAiygAAIssCAAIsoESiAACksAIsOpXGEURQEAAoAoAACgAAAAVC1BQBAAKAKSgAsoEoAALQACgAKEAKKBUFAEoACyqAsoEAooCgCqAssAoAoChCyqAsoChCyqACrKCwCgAtEAooAooAKoBKBQoCkoCygKBRKAKoQsoChAqgoFC0QACqKELKoCyqELKAoFCgqygSqASgCqACrLAKAoAqkACqCgLLKACgUKECqBQBAKAKAoACkoAKKAAoAKoAAooChCgAACgAKQAAACgUAAAAAAFQVKAAAAAAARRFgAAAAAACAAAAAAAAARRBQAEWAAIAFJSQAAAIAIVACAAAAkWACWUCACFhYACJYJZQAIIWCABYlglgCBQIgAgCUQWRYAiVUCJYAJVkCARYiWAAJFlgCUkllAAiUQIFQECAiWUBAgEFgJARZQJFgCQUBFiQUCARYRYgCWWJZAWAJYJVkACJYBZAAkWAUliARZQJAAkFAkWAJBQACUkFQACUkAABAkWUAAlJABSWIlEAAFiWAAAEAlECARZQAAJFiggAEFAiWAAUBFgB1DPAAAAFAAUAAAlAAAABQBQAAVYoACAAWgABQBQABQBQAgVQAFlAAlAAoUBZYABVlAUBZZQFlAUIWUBQFFCFAFAoUIBaAFoAFllABVBZQFAFUIBVlUBSAUChQBVCAVQCKFACVZQFFFllABRQJQFFBaAIUAVZVABaIFUIBQFlUAFogFFAUCiAVZQFCKFABVlAUIWVVlAAlAAUAUAWUAAFUAUAAFoAUBZQJRQAAAFAUAAAAAAKIAAABQABQAAFAABAAAAIsAAAAAAAQAAAAAAAACCgAAIAEAACosQAAAESiABAAAAQCASwCgRLAEABEqpKIAESqgQAAEgqABAIECgQCBEsoEAgsSwACyABEsRLAAESygQEkqoAEAgQKSwixAEsQKixAIssASxEsAsSwBIKASxEsAoESwSxAASSiCgQCBIKBEogsSwASxApKSASwCyABEsApLEASxAoAEgIsoAEiwAASxEqoAAEiwCgIEgAAsAiwAASiASxAAqAAASkgUEASiCgSAACkogTqGeIAAAKAsoAAEoAAAAKAKAALKBKAAACrKAAAoCgABQAoQAooACgEAoAoCgLLAKAooAKpAFAChFACgUKEUAKBRKAKoCyygBSkoALQUKACrKBKAooFEAooCgLLKAsqgCwCgBLQAqyqpAAKsoEoLQCqEAUKAsqgCqELKoSgAtACigSgLKAoFEAtACiwCgAqygSgULQABKABQAoCyygAAtACgALKoAKBQoQsoAACgLKAAAAAAAUQAAACgAKAAAKAAACAAAAJRAAAAAAAgAAAAAAAEFAAARYAAgAUlJAAAAgEAACAAAAkWCUQUCAQIACAQVAAgVAAgAJBUACAQIFAgECSxQIBFlJYgAWJYAiUSWIACBUCARYkFAgEWAIllJYgAJBSWIAliBSWIBBYlECJZQAJJYBQIBJYgAJAQUCARYkWUCAQWJYAAkFAQIBBYlgCJRBSUkACQUACJYJZQAIlEAAlJAQUACJRABUCJYAABYlEAABFiAsCAJVQAAIliggACWUCJYAABUWHUM8AAAUAUAABQgAAAAFFJQAFAlAAAABVAAFAFAAFlAAUIAoUAUACUABRQAKIBQKFABaIAoUAWAUAVQgUBQFlAlAWVQFllABaAFWUWUBQAWgCUUBVlgAFUAUFogUBQFlgFCBVBQKFogAFoUIWVQFlUIWUBQKFBVlAloAlAFUAFWWAUBQBQKIFUFAWWUAFAoUIFUUACUABZQFACKFABVlAAUAFWUABQKIBVAAFAFAAAAAAAAKIAABQAFAAAFAAAAAABAAAEoiwAAAAAABAAAAAAIKAAASiABAAAqBAAAARLAAEAAABEogIALAIEABAIKgAAsiwBAASCksAQBLECgASAiywAESyksQAKSxAQCBIAEAgsASxIsoEASwBEsEqyABIKSwBEpIKSkgIKBIESwCgIEgoEAgSABEsIKBAEsRLKABEsRKqABIsoCBAIssSwBAIKBIAESygAEsQCCgARLAACBIsoAEAiwCksQCAACwBLAABKIBLEACosAAASLAAACLKBIAAKSjpGeAAKABQAABKAAAAUsoAAAUKEAAAACqAACgKAAFACgBCyqAAsoAEoAoCgCgQCigKAsqhCygKAssAoCyqELKAoCyqEAqgCqQCrKAoCgoAoAqhAKsqgKQCgUKAKoQsoChFCgBKsoCiiyygAoFEoCigUKEKAKKoALQCyhAKAsqgAqkAoFCgAtELKAoRQoAKKAoQsqrKABKAAoAoARQoAKsoCgAAtACgKQAC0AAKBQAAAAAAAAtEgAKAAKAAAoAAAAAAAAIAAABFgAAAAAACAAAAAQUAAABAAgAAUliAAAAiUQAAIAACAQEWAWARYAgAJBSWAAWJYAgAJBSWAIAlgCBQJAJYgUCJVSWAIAFkCARYQIACRZYAlgllgAIlECJYBUCAkWAVAgEFgJAJYBZAJSQUBFiQUCARYQIAliJYBYAlJJZQAIlEFkACJYBUWIAliJVQAIlgFkACBUAACQEWUACAQACWIlVAAAiUQUlECJYABYABFgABAgLAgAVAAAiUQAACUQWJYAABXSM8AAUBQAACUAAUigFAAAAUAlAAAABVlAAUAUAAFAAUIAoUACgCUABZVAAUgAFWUBQFJQFlAUIUAUCiAWgBQKJQAWgCWgBVlAUUFAUAFWUCUChQKIBVlAUBZZQKAFCKFACWgBVlVSAAVZQJQWgFUIAoUBZVABaIWVQlABaAFAolAWUBQAloKAFFgFABVlAUIoVZQIBQAKAFAWWUAAFoAUAAVQAVSAAFlUAFAUAAAAAAAAUIoQFAAFAAAUAAAAAAAAAAEAAAAiwAAAAAABAAAAWCgQAABLAAEACkogQAAEAiwABAAAARLBLAKBEsAQAEgpLAALEsAQAEgpKIAESiBAoEgEsQKBCAKgQALIAESwSxAARLKBEsEqyABAIESwCoEBEsAqBAIssAgRKSCksASCgEsRLALAEsIsQBKSSwCwAEkqoAEAgsgARKIKSxAASCoAESiCyLAEASygASLBLAKBAEsAEsQCLKABAIsAqBAIAALAEogAEsARLAAKSiAABEsAAAIssAgAAOkcYAoAoAAChApKAAKAAAAKBKAAAACgUAAKAoAAKAKAECqCAqygASgAUKABRAKAooAoEoFCgBFACrKBALQAooEoCyqALKAC0AKoAVKoALQBKKALLKACqAKC0QKAoCywChAqgoChRKACqKELKoCyqECgKBQoCyqEtAEoAqgAqywCgKAKAEtKAAqyygAoFChALQLKoQAAsoCgAKSgAooACgAqygCkoAAKoAAqygAAAAAAAAKEUICgAKAAAKAAAAAAAAAAACAAAAJRAAAAAAAgAALBQIAAAlEACAABUWIAAACJYAAgAAAIlglgFAiUQIACQUBAAgVAAgEFAkACAQIFAkAlJBQIlgBBYAFkWAIlgliAAiVUCJYAkFAgEWCWIFJYgCUkFJYgCWIFJYgEFiWAJFgFJYiWAUCJYiWAAJJRBQICQEFAgCWWJYAAkFJYgAJFlQAIBBYlgCABUAAliAQUCAJRAAQIlVAAgCUQVFiAJYABYAAlgABAgLAgAVFgACARYAAJRBYlgAB0jjAFAoAAUIAUAAAUAAAUCUAAAAFAWUAABRQAACgBQgBRQAFAIBQFlAUBZYABQKFAUgFFAUAWAUCgCVZQFAWVQgChQFllAFUFWUAAoUIFtCUBQBVIBQKFAWVQhZQFCKAFCVZQFFBYBQUCiUBZVAoUIWUBRVABVAJaAJQFlUAFUgFAoUAFWWFlAUIUUAFFAUIWVQFlUIAAoAUAIoUAFWUABQAWgUAgFABaAAVQAAAAAAAAUAIoAAFAAAFAAAAAAAAAAAAAABAAAEoiwAAAAAABAWCgQAAACLAAEACksQAAAEAgAAQAABLAEgoEAgQAEgoCAACyABAIKBIsAQCLECgSABIKBEsAIsoECxLAESwSiBAQCCxLACLLAQBLBLAESywAEgpLEABIKSxAIssSiBEsAoEgIKBAJLEABICCgQBLEgoEASxEsoAEgAqBARLBLKBAEsRLKABApLABKSASygAQCLACLEAiygAQCLKSxAAIAALAAIsAEogRLAAKAgAARKIAACLLAIADpHGICygAASgKAAAKAAAAooQAAAACgUAAKKSgAAsoAChAFACigASgAKKCAtEAAqygKKBAKsoCgLLAKsoAEqygKAooQsqgAtEAqygqgACqEAqygKKAAtEAqygKApKBQAosAoAS0AqhCyqACrKBKBQoqhAFCgLKoALRCyqChALQAoFEoCygKAEqgoAoRQoAKsoChCigLKoQAKAoACyygAAtACgAAtBQBKAAKoALQAAAAAAAAoAAsAACgAAKAAAAACggAAAAAAAAAIAAABFgAAAAAABBQAIAAAlgACAABUCAAAgCWAAIAAAlgCQAWAQIABBYBFgAFiWAIBBQIlgCAJYgAVAgEFgIlEAllAgCVZAiWAECAAkWWJYAJZYACJRJYAgVAgJBSUQICQUlJAJYgVAgEFAQJFgFgECQAIlhFgFgCWIllAgAJJZQAJFgFQIAliJZQIAlJBUACAJZQAJAAQUCAJRAJYgCVUACAJVQECAJRABYAAlEABAgEAAFJRAAgCWAACUQWJYAdJeMYoCAAUAUAABQAAAFAJQAAAAUBQAAFAUAACgBQAhZQAFWUACUAUABRQIBQFlAVSAAVQBQigBaAIBaAFAolAoUAJaAFoFFAAWVQgFoAWgAWWUAFUUAUCUUBQFlgFCAWlAUIoUAFUUIFUBZVCBQFAUUBZVCVQBQgVQAVZYBQFAFACWgoAVZYBQUBRQgFoAVZQIAUAUAIoUAFAoAUAFUBQIBQAFlUAFoAAAAAAAUAACiABQAAFAAAAABQgALAAAAAAAAAAQAAACLAAAAAACCgAQAAACABAAApLEAAABEogAAQABLAEiwCwBLAEAgoESwACxLAEAgAsSwABEsAQKgQBLECgSASygQALIBLEAixAARLKSxAEqyABAJKIECoEBIKAgQBLLASABIKgASLKAixEsAsAixIABLESwCwBKSSygAQCCyABEsAqLEABJLKABASCoAEACoAESwASygQACLBKSAAiygQACCosQACLAALAAEsAEsARLAAKAiwABAIsoIAiywCA6hniAAACigAAAKAAAKBKAAAACgLKAAAKAKAAKAAoQBQAoFAEoACyqCAqkAAoFCigQCgUKAEUKsoAEooACigSrKAoCyygAtKAoACihAqgqywFAqkAoFCgKQCrKAoRQAoSrKLKBKKAoKBRKAsqgUKELKAoFCgqkAtAChCigAtEAoFCgAqywBQoQooAKBQoQsqgAqgECgAKALKAACrKAAoCgCrKBAKAC0AALQAAAAAAAoACkAAKAAAKAAAAAEoAAAWAAAAAAAAAAgAAACUQAAAAEFAAgAAAEWAAIAFJSQAAAIBFgACAAJYAiWAUCJYAgEFAiWAAIlVAgEAFAkACAQIFQIAliBQJABUCACIWUliAJYgAIlVJYgAJBQIBAQIFJYgECBUWIAliBUCAkFJYAiWAUliJRBQIliJYAAkBBYACQEFAgECQUCJYAJZYACQEFAgCWWRYAAgVAgKliABUACAJRAQIAlVAAgEWWJYAAAkWKFgAAEWAECAQAAUBAAgCUQUEJRBYlh1DPEAAFAUAAAUAAAChQgAAAAUlAFAAAoUAABQBQAgUABVlAAlAAoAUCiAUAChVIABRQFAWWAWgACVZQFAWVQihQAFllAWVVlAUAFogFWUAUlABaAFWUBVlgAFoAUWAUAWUCgCVZVABRQJQKFFUIAUUBZVABaIWVQAUJaAFFAlAWUBQAlUAWgCKFABVlAUIUUAFogBQBQAhRQAAWgBQFAAFoAlAAFUAFAoAAAAAAUABZYAAUAAAUAAAAAJQAAAAAsAAAAAAAAAABAAAEogAAAEsAoAEAAASiABAAAqBAAAARLAAEAASwASkgoESiBAIKBAIAECoAEgAoEgAQCBAqBAEpIKBIsAqABEsQBLKBEogQEAkqoEAiywEASwiwBEssAgAsSxAEsQKSxAEsRLKBEogpLEAgoESkksAASAiywACLEiygQBLEiygASBEsoAEgIKBAEsRKqABApLAEAgAEssAAAgEsQACLLAAEsRKqAAASkgULAAEogEsARKIAKASiABAEsoIAiywDpGeIAAKKAAAoAAACihAAApFAAAKAAAsoCgACgAKEAUAKAoBKAAsoACrLAAKAsoKoQACrKAoQsosqgBAKoAoFCqQCgAtEAqylACgLKoQCqAFEoCyqACqKKBAKKAoCywCigQKoKEUKACrKBKKoCgEoFCgKKAKoSqAKKSyygAqywCgKAKAEtAKoAsAoAKooQC0AKKBAFACgCygAAooACrKAACqAEoACyqACgUAAAAAKAALAAAoAACgAAAABKAAUQAAAAAWAAAAAAAAAAgAAAEWAAAEFAAgAAAEACAABSWIAAACAQAAIAlgACQUCAQIBBQIBAABZAAkWAUCRYAgCWIFRYgAJBQIlgBFlAgECJYBYBAgAJFlQIAllgAIgJYAiVZAQAWJRAiWIFJYgCWIFQIBBQJAJYBYBJSQAJFgllgACWIllAgCWIllAAkAlWQAIlhFlAgCUkFJYAgCWUCARYABZAAAJYJYgACVZAAAQWQAAAIlEFAAARYARYgEWAAUBFgCAARZQQlEFnSM8QAUBQABQAAAFlAlAKJQAAAABQAAKAFAAWUBQAhZQAFFAAlAAUAAWiAAUBRVIABQKAFCKChQAgFoAUCiWgBQBZQAVZShQAFFCAWgWWUAFUAUChVIABVlAUIoAWgCVZQJQKFBQKJQFlVQCAVZQFAoUFWUCWgBVlAlABaIBQKFABVlgUBQhZVABQKFCFlUAFWUCFlAUABSUAAFUAUBZQAFWUCAUAFUAAUWAoAAAFAAAogAUAABQAAAAAUIAFAEogAAAAAsAAAAAAAAABAAAAIsAAIsAoAEAAASwABAAAqBAAAQCLAAEASwABIALAIsQCLKABEsAAsSwBEsAoESwBAEsARLKBAILARLABLKBAIESiCwCLEABEsqLEASrIAEiwSiBAqBIALAIESwCwEgASCoEAiwCoESwCwCBIABLEBIKASxAIKBASSqgASLAEgoBLESygQAEgoEgAAqBAEsAAsSwAASiAgQAEiygAIESygAAASLFCwABKIBLAEAgAoAEgUEASiCgiLLOkZ4gAooAACgAACgSgiygKAAAACgAACgKAABQAoARQAAqygASgCgAKLAAKABQtEAAoFCgCwKAoASigKAsossoAKAssoAK9efQCgAUSgqygCyygAtACrLCyqAAC0AKLAKoABLQBKsqgAooEoCi0QCgKAKsqgAtECqAC0KEAosAoCygKAEqgoAoRQoAKsoChCyqAC0QBQAoARQoAKKAAoCygAKoBAKAC0AKAssBQAAAKAApAACgAACgAAAABKAKAAAARYAAAABYAAAAAAAAACAAAAJRAJYBQAIAAABAAgAAVFiAAAAiUQAIAlgACJYBQIlgCJZQAIlgAFiWAIlgAFiWAAIlECJZQIBFlgCWIAllAgECAQUCJYgAIllJYAgJBQIlgBAgVFiQAWAQIlgFgECAkWVFgCJYBUWIBBYAliJYAJYgEWWAAkBFlAgECQUCJYAkFAJSQEFgAJBQJFgAFQIABAAgVAAAQEWIACJVQACWIlVAAAAgEWUAABFgBAgCUQAUAlECAAJYBSVHQOMAUBQABQAACgAIFAUAAAAFAAAAUAUABZQAFCFlAAUCgCUABZQAFUgAFAFBQJQAVZQFAWWFlAUAJVlAUBZVWWAUABSUAFtlAUAVQgFoAKJQFlUAFUgFoAUUBQFlgVQAgVQUIUUAFWUCVQFUIBQKFAWVQBVCFlUFFAlABVIBQKAFAFlFAAVZYBQAVZQJQKFBRQIWUBQAFllAABVAAFAWUAFUAJQAFlUAFAogKAABQAFlgABQAABQAAAAAlAAUAAAAAIsAAAAAsAAAAAAAAAABAAAIFBIKABAAAAIsAAQAKSkgAAAQCAABEsAAEsQKBEsARKqABEogAQKgAIECgSABAIECoEASxApLEASqgQBLEAgoESiBARLKSiBAIssBEsAIEASyyLAALEsRLALAEsQESyksAQCCksQCLECksRKIAEgEssABIBLLAAIsRLKBEsARLKABICLLAASCgEpIAKSwBAIAALEsAAIsEsQAAEiygEogSLKAAABEogoABKIBLAEAiwCgASLFBAAIsoI6BxgCigAAKKRQAEAAUKAAAAACgAAKAKAAAoAoBUAAAqygASgAUAKBRAKAAoLLAKACrKAoQoKAKEAtACgUS0AKAC0QCgWygKAsqhCigCwCgqygKBRAqgAqgChFBQoASrKAoRQoALRKoALKoQCrKAoFCgqygS0AKsoEoKBRKAKAoAoEqygKEKKACgUKECqACrKBCyqAAEUKACgUAKAAsoCrKBAKACqAAKKBAUACgACwAAKAAAoAAAAASgAKAAAKCAAARRAAAABYAAAAAAAAAACAAQKCJYBQAIAAAlEACAABUCAAAAiWAAIlEAACQUCAQIBBQIBAABZAAQIFAkACARYgVAgCWIFJYgAVAgCWIAllAgECAJZYBAgCWWAJYgCWAIlWSWAAWJYJYgWAJYgCWWJYAgEFJSQCWIFJYAkACQAJBQEWICQUAliJVQAJAiWUACQCWWAARZYACRYAJVQIAlgAFgEAAlglJAAAiWUABAiVUAAACARZQAAEWICwIABABQAJAAAJRBZ0DPIBQAFJQCAUAABRQAAAAAUAAAUBQAABQIKUAAAFAUAlAAWUABVlgAFAAoFJQAUChQAigoUAIBaAFApZQAUAWUAFWUWUBQKFFgFAWWUAFoAVZYAWVQAlotAFhZQFACVQCVZVABRRZZQAKFCUBQBRVABaIFUAFUUIBVlgFAWUBRQIBaAFCKFABRQFCFlUAFoAhZVAAWWUAAFWUABQAVZQCgCUAAFoAAVZYACgUAACiABQAAFAAAAABQgAUAABQAAQAABKIAAAAALAAAAAAAAAAQCBQRKIKABAAAAIAEAACksQAAAESiAAAgQAEgAsAgQCCgASLAALIsAIsQKBEsAQBLECosQAEgpLEAAgoESkgEsoEAgQBLLAIsQBKsgEsQBLAECpKSACwCSxAoESkgEssAgQBLALIBKSCksARLAEiwBIsoBLEAiywBLEAgoEgASCgRLALIABLECgRKIAKgQBKIALAEsAAICLEABAqAAixAEsoAAAEAgoABKIESxQQBKIKABEogAAEsroGeIoAKBAAKAAAsoCgAAAAoAAAFACgAFEpAFACgAAooAEoAFAAC0QACgLKAUSgAooCgLLAoCgBKsoCgLKLLKACgLLKACqCgCiqEUAKBRKAKoAqhALQAosAoCyigChALQoQooAKoKSgCqEAoFCgLKoAsoCyqCgUSgAqkAoFAC0QAKoAKssAoAKoBKBQoALRAKsoAEUKACgUAKAACqCygQCgACqACgKQAFAoACkAAKAAAKAAAAAEoAoAAACgAAAgAACUQAAAAAWAAAAAAAAAAQAAJFlAAAgAACWAAIAFJRAgAAIBFgABAgAJFgFgCWAIllAAiWAAWJYAJYgUCJYAgCWAWJYAgJBSUQIAllAgECJZQIBFiAJZQIlgCAkFJYAgECBUBAgWAQJABYCQCWUCQAIlEFQICQUlgCJRAJYgIllAJYgCWWAAkAllAkWAJFlAiWAWRYAJSQUCARYBUWAIBAABYlEABAJSQAAJBQCWIABFlAAAgCWAUABFiAsCAARYBQAJFgAABvTjAFAUAgAFAAFAUAAAAFAAAAUAUAoAACFlAAUAAFUAAlAWUABRYABQAKBZYBQAVZQFAohZQFACVZQFAolUAUAFogAVQKFAWVVlgAFAolAWVQVSABVABVlgFAoKFACVZQFCKFAUUIoUBZVCAUUBQKFBVIBaAFWUCUAFolAFAVZYABVlAUIUUAFAoUIFUAFWUCAVZQAWUAAFWUABQABVAoAgFABVAAFAogALQAFlgABZQAAFAAAAACUABQAABQAAAAAQAABKIsAAAAAsAAAAAAAAAgAARLAKABAAAEogAQAAKixAAAARLAABLEABEsAoESwASywAESwACxLABKSACkpIAEAgsSwBAILAIEASygQCBAqABEsQBLALEogQCCxLAEAgQKgIsQALEsSACwCLESygRLAEAgpLEASyxLAEAgEpIAEgoEgAsgAIESqgRLAESygEsQESygASCgARKIKSwBAEsAAsAgAEsASLAAESygAIEAAgoAAEAgAoBKIESwAAAgoAESiAAA6BxgCigQACgAAKKAAAAACgAALKAAKAKAEAUAKAACgUASgAUAAKpAAKAKAUSgAAqgCrLAFAChALQAqygS0AKAEtACqAoCgKS0AAKssoALQLLKAAsqgBLQAqgEVLaEAqgEqygKoBKKAoFChKAsoCiqAsqhALQAqihAKssAoCygQooALQAosAoAKsoChCyqACqAQCrKBCigAAtACgAAqgKABKAAKoAAKssAAoUAKBAAoAACgAAAABKAAoAAAoAAAAAAAAIAABFgAAAAFgAAAAAAAEAACAQUACAAAARYAAgAUliAAAAgEAAlgCAJYgUCJRAJVkACAQAIFQAECBQJAAgEFiUQIAliBUACJZQIAlgFkACJYAiWAIFQIAlliWAIAlgCQUliABYliJYBYAliJZQIlgCAQUliAJYiVUCAJYAkACRZQJAAkWUBFiAQWJYAgVAAkAFkACRZQAIBFglVAgAEAFgEWACUQIlEACJZQAECAAJVQAAIAlgFAARYgEAAAlEFAAkWAAHQOMQFAIABQABQFAAAABQABSKAAFAFAACBQAFAABVlAAlAWUABQKIBQAFAUCUAFAoUCiAKFACUUAFUIFUAFAWWUAVQFlAUCllABQFJQAWlAgFBVAFCKFFAAihQBVACVZVAogFWUBRVCAUChQFlUCiUBZVBQKJQAVSAUUACWgBRQFAWWUAFAUUIBaAFAogFAWUFlAABRQAFAABaBZQIBQAVZQAFAUgAFCgKIAFAAAUAAAAAFCABQAAFAAAAAAAAAABAAAIogAAAAsAAAAAAAgAAARLAKABAAAEsAAQAAKgQAAEASwAAgQAEgoEAgASCgQCAACyAAgQKBIsAQCCwCBAEsQKiwBAqBAEsAsiwBAIESwBAILAEssSwABEsASCkpIALEsEsQLAEpJLAKBIEAgpKSABIKgARKIEgARLKASxARLKASxAEsoEgQKiwBIALIsARLAKBAEsAqBAAEsAQKSwAAgARLAEAgoBLEAAASygAAQCACgEogRKIAACLKABEogAOgcYigQACgAAKKAAAACgFEoAAACgKAAEAKAKAACgUASgAUAAKssAAoAoApKAACigKsoELKAoASrKAqgEqygAKAssoCigKAKpCyqACgUSgLKqywCgAtACrLALQBALQAqygKEUKsoEAtCgLKoQCigKBQooEoKoAqygSgAtEooAELKoAKoAoRQoAKBQoQKoAKsoEAoCiqQAACqAKAACrKALKBKAAC0AAKKBAAKFKQAAoAAAoAAAAASgCgAAAKAAAAAAAAAAACAAAJRAAAABQIAAAABAAAAiUQUACAAAAQAIAAFJYgAAAIlEABAgAJABYBAAkWUACRYABZAAJYgUCJYAgEFgECAJSQUlgCAQUCJYBYlgCAQIlgACJZQICSWUACJRAkFAQIFiWAJABYCSUQUCQAJBQECAkWVAAgECJYAgVAJYgAWQCUkAlVAkACJZQJFgFiWAIlEFAgAEBFlAgAEAFgEABFgCAQAJFlAJRAgAAEWUACAJYABQEWIBFgAABBQAJFgB0DjFQCAAUAAUBQAABSKAAUAAACgBQAAgCgBQAAUUACUBZQAFAogAFAUAKJQAAVZQFogBZQFCAVQBaAJaAFABaIFAUChRYAUUAFFgFBVCiAUBZVACVQUUAIWVQAWgBVIBVlAlFAUBRQlAWUBVAFWVQgFoAVQCUFWUFlAACKFABaAFFgFABVlAUIUUAFoAgFAoWiAAUUABQAAWgBVlgAAFWUABQFlgAFAWUAAWUAABQAAAAAlAAUAAAUAAAAAAAAAAAAAEAAASiAAAAACwAAACAAAABIKABAAAAIsAAQABLEAAACwCLACLEABEsAoEgAEssABEsAAsgAEsQALEsAASCgRLAEBIKSwBAIsoESwCxLAEAixEsAARLKBAILIAEAgSCgIEBEsoEgAsAgSCgSLAEgoCLEBEspLAEASxEsAQCCkpIAEiygIECoEiwBAqBEsAsAgQCLKABAIsEsoEAASwCwCAASwBAEsARLKAAixAAAAqAABAIAAKSiBEogAAEogoESiA6C8YhAAKAAAooAACygAAKAAAAoAoAAAQsoCgAAAqgECrFAAAKssAAoAoAssAoAAKoLKoQBQAoQC0CyqEAtACgCygKAKKAqywBQoKAssoALQUQCgLKoAS0LQABCyqAC0AsoALRAKsoCgtEAoFAsqgoCihCyqAC0KEAqylEoAARQoKsoACrLKAACrKBKBQoALRAKAsqrKBAAKsoACgAqygAKssAAAtAACgUQACgUAAFAAACgAAAABKAsoAAACgAAAAAAAAAAAAAAgAACWAAAAAUCAAAQAAAAIlgAACAJRBQAAIBAAAgAAIJQCWAIAAliAAkFJYAgAIllAAkAlVAgAAJABZBQIlgCAQWAQIAllAiWAUlJAgCWIlgACJZQIBFiQUCAQEFgCWIAllgJFgFgCWJBQIlgCQUAliAJSSWUCAJSSUQAJFlAkACJZQECAJZYlgCBSWIlgCBUCAJRBQIAlglEFgAAJABSWAAEACAQIFQAIlLAgAACVZAoIAlgAFARYgCWAAAEWUACRYdFOMQgAFAAFAUEBQKAAAFAAAWUBQAAAgCgBQAAUCiFAAFAABVIABQFACiUAAFAoWiAAKFACUUBaAIWVQAUBZZRQAFWUBVlgVQAUBSUAFpQIBQWgBQihaAAIoUAVQVZYABaIBVlAUFogFAoVZQFAolAWVQUCiUAFoKJQAAloAVZQFAWWUAFAoUIBaAFAogFAWVVlAgAFWUABQAVZQAFWWAAAWgABQKIABQKAACgAABQAAAAAlAWUAAABQAAAAAAAAAAAAAAQAAACAAAAACwAACAAAABEsAAAQACCgAAQCAABAABAKBEsAQABLEABIKSwBAARLKABIAKgQAAEgAsgoESwBAILAIEASygQCACyABEsRKIAECoEASxIKBAEsIssASxAAsgEsQLAEsSLKBEsASLAKSxAASSqgQAEgIAESwCyABEsoCLEACySwBAoEgIALIEAAiygQBKIEgoAAESwCkogAIsAQCLAEgoEAiwAAACksAARKIAAKSiBAIsAoIBILQRKOgZ4gAoABRKAAAKsoAACgAACgKAAAEALKAAoApFSgAUAKAACigQCgCgAoEoAAKsosqhACygKAEqyiyqAEqygKAApKoAAtACrLCyqACgUSgLKqywCgAtACrLALQBALQAqygKssAAtEAqyqAKoQCgUKsoCgUSgLKoKBRKAC0FEoAAsoAKsoChCyqACgUKEAtACrKBAKAsqrKBAAKsoACgAqygAKssAAAtAACgUQACgUAAFAAACgAAAABKAsoAAACgAAAAAAAAAAAAAAgAAAEAAAAAFgAAEAAAACJYAAAgAEFAAAgEAACACAUACJYAgACWIACQUlgCAAgVAAkAFQAIACQAWQUCJYAgEFgECAJZQIBABZAAiWIBAAgVAgCWJFlAgCWCWWAJYgAWQCWIFgCWIllAiWAIlgFJYgAJAQUCAkBAAiWAWRYAiVUCJYABZJRAgUCQEAFkCAAJRBYABAiWAUACAQAVAAJYAgCUQIllAAiUQAAAAWRYoIAlgAAFRYgCUQAUEJSQWgnQM8QBVigAAAAFAoAAUAAACgBQAAAgBQBQFAIABVlAAUAAFWWAAUBQAUlAABQFlFlgFAUAUIBaChQgFoAUAFoigBQKFAWWFlUAFAolAWVVlgFABaAFWWAWgCBVABVlAlWUAWVQgFUUBZVCAUChVlAUCiUBZVBQKJQAWhaIAAWWUAFWUBQhZVABQKFCAWgBVlAgFAWVVlAgAFWUABQAVZQAFWWAAAWgABQKIABQKAACgAABQAAAAAlAWUAAABQAAAAAAAAAAAAAAAQAACLAAAAALAAAIAAAAESwAABAAIKAABAIAAEAgoAAESwBAAEsQAEgpKIEABAqABIAKgAQAEgAsgoESwBAEssAgQBLKBAIsAsgARLAEiwBAqBAEsRLKABEsEssASxAAsiwSxAsASxEsAoEgRLAKSxAASAgoEBEsIsARLALEsAASCxLAAKgSBAoEiwgAsSxAAASLLQQCLBKSCgAARLAKiwASiABAIsRKqABAIsAAAAoEgUEAgAApKIEASwCgAkiy0E6BnioAAoAAAAKsoAACgAAKAKAAAEACgAAqgBAKAoAoAAKBRAKAKAAUSgAAoFBRAKBQAoQC0FChAqgAoAsooACrKAoCywooAKssAoKoUQCgLKoASqALQBCyqAC0ASrKALKoSgUKAsqhAKBQqygKBRKCqAKsoEoALQtEABCyqACrKAoRQoAKBQoQKoAKsoEAoCyqsoEAAqgCgAAqygAKssAAAtAACgUQACgUAAFAAACgAAAABKAsoAAACgAAAAAAAAAAAAAAAgAACWAAAAAWAAAQAAAAIlgAACAAQUAACAQAAIBBQAAIlgCAAJYgAJBQECAAgVAAkAFQAIACQAWQUCJYAgCWIFQAIllAgCWIFQAIlgCJYAgEFgCWIllAAiWAJBSUkAFiWCWIFAiUklgFAkCAQUCQAJAQUCAJYiUQIBBYlEACQWJRABUCJYAgWJYJYBYlgCAAJSQUAlgCRYBQAIBAJZQAEACAJSQEFAAiUQAAAAWJRAAJYAABUWIABFgFBAJBb0WXPAAAFAAABQKAAFAAAFAUAAAIKJQAAAWVQgAFFAAUAAFWWAAUBQAWWAUAAFAoihQBQFACVZRZVACFlUAFAWWVZQAFWUBQFlihQUBZZQAWgogFAWVQAloUCgCFlUAFoAlWUBVlAlAoUBZVCAVZQFWUBRQJQWgBVlAlABaFogAIWVQAVZQFCKFABQKFCFlUAFWUCAUBRVlAgAFoAUAAFWUABVlgAAFoAAUCiAAUUAAWUAAABQAAAAAlAWUAAABQAAAAAAAAAAAAAAAQAABLAAAAAKBAAIFBAAARLAAAEAAgoAAEAgAAAsgAAARLAEAASxAASCgIEABAIKBIAKgAQAEgAsgoEAgQBLECoAECoEASxAqABEogRKIEAgsASxEsoAESwBIKBIALEokpIALASSwCgSBAIKBIAESwgoEASxAIsQCCwCLAEgoEiwCksQCBApLEBIKAgQAAEiygEogRKIKABAEsAqAASxAAAIEiygAQBKIAAAKBEsAAIAAESrYEASiCgAkSjoHGIAKAAAACrKAAAoAAoCgABACgAAAAC0AQACqAAKAACqQACigAFEoAAKAsossAoCygKAEqyiyqAEqgCgAtEUAKBQAoCyy0AKAssoALQUQCgKKChFCgUAQooALQoQsoC0ASigKAsqhAKsoCrKAqyqEAtACrKBKCrKAtEABCyqAC0AKEUKACgUKELKoAKsoEAoFCrKBAKBQAoAAKsoACrLAAALQAAoFEAAqygACygAAAKAAAAAEoCygAAAKAAAAAAAAAAAAAAACAAAAQAAAAAWAAQShYAACJYAAAgAEFAAAgEAAFAkAAACJYAgACWIACQUBAgAIBBQEAFkACAAkAFkFAgECAJYgVFiABUCAJYgEFAgECAQIBBYAliJZQAIlECRZQECBYBAkAFgJJRBQJAAkWAVAgIlglgFgCUkAlJAQWAJSQCWUCJRBSWIAliBSWICJZQSQUAACJVQAECAJYBQAIBBUAACQAACWIllAAAgEWAAAAWARYAJYAABUWIAAlgFABJ0DjEAFAAABQKAAFAAAUAUJAUBQAAAAAWVQAgFAoAUAAFFAgFAUAFlAlAABQKIUAUBQBQgFoKFCAWgBQBZQKAFAoUAB68+pQAUCiUAVQKJQAWgBVlgFAogChQVZQFCFFAogFWUBQKFCUBZQFWUBVlUIBaAFWUCUFWUBaIACKFABaAFCKFABVlAUIWVQAVZQIBQKFWUCAUCgBQAAVZQAFWWAAAWgABVlgAAFWUAAWUAABQAAAAAAlAWUAAABQAAAAAAAAAAAAAAAQAAACAAAAACwACCULAAARLAAAEAAgoAAEEAAAoEgAAARLAEAASxAASCgIEABAIKAgAsgAQAEgAsgoEAgQBLECksQAKgQBLEAiygQCBAIsQCCwAEkqoAEAgRLKAgQLAIEgAsBICCgSABEsAqBARLBLALAASABIsIsQKBIsEsoEAgEssABIKBIAEgRLKAABAIsoCLAESiCgAQCLBLKABEsAAEsQCCgAQACLAAAKBEogAIAAESrYEAAiygAToGeIKAAAACrKAAAoAAsAAAAooAAAAABQoQACrKAAoAAKssAFAKAApKAACgLKBFCgAUKAELKooChAqgAoCkLKoAKsoCgAWyygAoFEoCyqKBKAC0AKssAoFEAtACrKAoRQoFEAqygKC0QCgLKAqygKsqhALQAqihAKsoC0QAEUKAC0AKEUKACrKAoQsqgAqygQCgUKsoEAoFACgAAqgACrLAAALQAAqywAACrKAAKAAAKAAAAAAEoCygAAAKAAAAAAAAAAAAAAAACAAARYAAAABYABBKFgAAIlgAACAAQUAAIgKCABQJAAAAiWAIAAliACWAAQIACAQUBABZAAgAJABZBQIBAgCWIFJYgAVAgCWIAllAgECAJYgCWWAAkBBQIBAiWUBAgIFRYkAFgECQUCJYAiWAVAgIlglEFgAJAAiWCWAWAiUSWUCAQCVZAAiWUCQAJFiAQUAACJVQCWAIBFgFAgCWCVUAACQAAECJZQAAIAlEAAAFgEWACWAAAJFlAAJRBQHQM8AUAAAFAoAAUAoACAAAUCgAAAAAFUAIBQKAFAABRQIWUABQBQJQAAUCgFgFAWUBQAloFlUAJVlAAUUCFlUAFUAUBZYWVQAUUCUFWUUgFAFUAJVlAUCiFlUAFUAlAoVZQJQKFAFUIBQFAFWVQFlUIWVQAWhQgFWUBaIACKFABaAFCKFABVlAUIWVQAWgCAUChVlAgFWUABQAAWgABVlgABZVABQFlgAAFWUAAoAAAUAAAAAAJQFlAAAAUAAAAAAAAAAAAAAAAEAAASwAAAACwACCULAAARLAAAEAAgoABLAAEACgSAAABEsAQABLEAQoEAgQAEAgoCACyABAASACyCgQCBAEsQKSxAAIKBEsQBLKBAIEASxAEsoEBICCgQCBAqAgQALEsSACwCLEgoESwBAIKSxAEpIEgoAEgARLBLALAASSqgQCLALIAESwCyABEsARLKAABAqLACBAEogoEASiAgoAESwAAixAIKABAAEogAAoESiAAgAARKqAAASygOgZ4gAAAAqygApKAAKEAAAoCgAAAAAAooQACigAKAVAAKBQAAoCywCgAAqygQsoCgLKAoCyygKKAEqgCgKAS0AKBQoAFELKoAKssoALQUQCgLKoAS0AKKBCyqAC0ASrKAqygSgUKAsqhAKBQoCyqBQoQsqgAtChAKsoC0QALKACrKAAqywCgAqygKELKoALRAAKBQqygQCrKAAoAALQAAqywAAsqgAoCywAACrKAAUAAAKAAAAAAEoCygAAAKAAAAAAAAAAAAAAAACAAAJYAAAABQIBBKFgAAIlgAACAAQUAAlgACABQJAAAAiWAIAAliAQUCAQIACAQUBABZAAgAIlgFkFAgECAJYgUliAAQUCAkAlgFgECAJYgCWUCAkAllAgECBUBFiABYliRYBYAliJYBYlgCAQUliAAkBFiBQJAAgElgFgAJAQWAJYBZAAiWAWRYAgECBUAACAJVQECAARZQAIBAJZQAIBAAJYgCWUAACAARYAABYBFgAlgAACRZQAAEWV0DPEAAAFAoAKAAAFCAAAUUAAAAAABaAIABVAAFUgAAFWUABQAKJQAAUCgCFAFAoAUIoUChQgFoAUUCBVABRQFAWWAFlUFAWWUAFoKIBQFlUAJaFAWUCFFABaAJVlUBQCUChQFlUIBQKFAWVQKJQFlUFAolABaAFogBZZQAVZQFAWWAUAFWUBQihQAWiAAUChVlAgFWUABQAAWgBQFlgABZVABQFlgAAFWUAAoAAAUAAAAAAJQFlAAAAUAAAAAAAAAAAAAAAAEAAAAgAAAAAsAglCwAAEAgAAQACCgAEsAAQAKBIAAAESwBAAEsQCCgQCBAAQCCgIALIAEABEsAsgoEAgQBLECksQACCgQCBEsAsAgQAEgEsoEAgRLLAAIEAiyksQALEsRLALAEsRLALEsAQCLKSxAASASxAoESwBAJKILAASAiywBLAEiygEpIESygQCBApLAAEACoBLAEASqgAQCLBLAKABIsAAIEAiygAQAACLAAKBEogAIAAESiCgAEo3HGIAApKAAKsoAAChAAAKAoAAAAAALKoAQClAAAoEoAAKoAAoCygSgAAqygARQoAFCgLLAKKAoQsqgAqgELKoAKsoCgUQAsqgoCkoAqrKBAKC0AKLAKAsoEUKAKoKELKoFEAqygKAooQCigKAsqgUSgLKoKBRKAC0ALRAQsqgAqygKELKoAKAsoEoFCgAtEAoCyqAsoEAqygAKACgUAKAssAALKoAKAssAAAqygCygAAAKAAAAAChACygAAAKAAAAAAAAAAAAAAAACAAAAQAAAAAWAQShYAAACQAAIABBQACWAAIAFAkAAACJYAgACWIBBQIBAgAAJBQEAFiWAIACJYBZBQIBAgCWIFJYgAEFAgECJYBYBFiAAkAllAgECJVkABAgCWUliABYlgliBYAliJRBYlgCAJZSWIACQCUkFAJYgIBAkFAAiWCVZAJYAiWUACQIllAgCWIAFQAAIFRYJYAgAEWUCAJYAQUACJYAAJYgAVAAAgACUQAAWARYAJYAAAiWUAABuOMSiUAAAUCgAABQgAAFFAAAAAABVAFiUAAUABZZQAAUUABQAFJQAAUCgCFlAUBZQFAolAWVQAlWUBRQIAUUAFUAVZQIAoUFAolAUVZYBQAWgBVlgFAoAloAVZQFCKFAogFWUBQWgCUBZQFAoUCiUFWUBRQJQAWhQKICFlUAFWUBQhRQAUChQgFoAUCiAUBZVAWUCAWgBQAAVZQAFAWWAAVZQAFAWWAAAVZQBZQAAAFAAAAACUABZQAAAFAAAAAAAAAAAAAAAABAAAAIsAAAAAsAglCwAAAEgAAQACCgAEsAAQAKBIAAAESwBAAEsQCCgQCBAAASLKAgAsSwBAARLALIKBAIEABIKSxAAEsoEAgQCCwBLEABIBLKBAIEBIKAgARLKSxAAsSwSxAsASxAIKBIEASyksQAEgASCgEsQEAgSCgARLAEiygIEAgoEgASCwBLAECksAAQKSwAgQABKqBAEogEsAoEAgAAIEASqgAQAABKIAKBEogAIAAEAiygAN6cYgAAAAqygAAKEAAAAqgAAAAAApKAoAAAoAFEoAAKsoACgCgSgAAqygARQAoCygKpAKAooQC0AKoBALQAoFCgUQAKoAKBRKKAqywCgCqAEqygKBQosAAqygSgUKsoEAqigAtEAoCygKBQqygSgtACrKBKAC0KBRAQooALQAoRQoAKBQoQC0AKBRAKAsqgLKBKBQAoAAKsoACgLLAAKsoACgLLAAAKoALKAAAoAAAAAASgALKAAAAoAAAAAAAAAAAAAAAAIAAAAlgAAAAFgEEoWAAAAkAACAAQUAAlgACABQJAAAAiWAIAIAAkFAgECAAAiWUBABYlgCAAiWAWQUCAQIACQUliAAJZQIBAgEFgCWIACQCVUCARYgJBQCWAIlVJYgAWASWIFgCUkBBYBAgAEFkACJYAkWUAliAAkWJBQAIlgCJVQECAJVQJAAiWUWIBAgUBAAgCVUBAgAAWRYAAQAEFAgEWAACWIAAllAAgAAEWAAWARYAJYAAAiVUAB0DjEAAAFAoAAAUIAABRQAAAAWJQAAFUAAFAAWWUAAFAoAAUBZYBQAAWgCBQFAAoAWiAUChQgFoBVCABVABVlAVZQIAWVQAVZZQFAFogFAWVQAloAUChVlgAFoAlFAVZQJQKFAWVQgFAoAUVQFlUIBaAFWUCUFFAUCiAihQAWgBQihQAUChQgFoAVZQIBQFlUBZQJQKAFAABVlAAUBZYABVlAAUBZYABQKABQAABQAAAAAAlAAWUAAABQAAAAAAAAAAAAAAAAQAAABLAAAAAKBIJQsAAABIAAEAAgoABLAAEACgSAAABEsAQBAABIKBAIEAABEsoCACxLAEABEsAsgoEAgQAEgpLEAASygQCBAEssASxAASACoEASxAEssASwBAsksAAsAksQKBASASxAqBAAILIAESwBEsApKSABEsEsQKBEsAQCLKgQALIsEsAQKSkgIEACksAQAKgRLFBAApLEAAiwASygARLAAACBAAIsoEAAABIsUKBEogAIAAEASygOgcYgAAAqygAAKEAAAoFAAAUBAAAACigAAoACkoAAKsoACgAUSgAKAAKEKAKAKAooEoCygKELKoCyqEALKoAKsoCrKBACigoCyyigALRAKAsqgBLQoCygKssAAtAEqyqAsoEoFCgLKoQCgUKAsqgLKoQC0AKsoEoKsoCgUQEUKAC0AKEUKACgUKECqACrKBAKAsqgLKoQBQAoAAKsoACgLLAAKoAAoFEAAoFABQAAAoAAAAAASgALKAAAAoAAAAAAAAAAAAAAAAIAAAABAAAAABZBKFgAAAJAAAgAEFAAJYAAgAUCQAAAIlgCCAAAJBQIBAgAAIllJYABYlgCAAiWAWQAWAQIACQUlgCAJZQIBAgCWWAJYAgJABUCAJYgCWWAJYAgVJYgAWAQJABYCQCWIFQAIBBUCAiWAIlEFAkACJYJYgUCAQIAllRYAgIllJYAgUCQCWIAFAkCggVFglJAAABZAAJYABUACJRAAAJYgAAVAAgAACUkChYBFgAlEAACBUWHQOMQAAUCgAABQgAAFWUAFAAAgAABZVAAABQBQJQAAVQABQFlAgFWUABQAihQAFlAVZYBQFlUAJVABSUAFUAAWgBaAIAoUFAWWVQAFUIBQFFBQihQFlAihQBVBQhZVAWVQgUBQFlUIBQKFAWVQKFCBVABVlAlBVlAUCiAloAAWgBRYBQAVZQFCFlUAFWUCAUBZVAWVQgUABQAAVQABQFlgAFoAAUCiAAUCgAoAAAUAAAAAAJQAFlAAAAUAAAAAAAAAAAAAAAAEAAAAAgAAAAAsglCwAAAEgAAQACCgAEsAAQAKBIAAAESwBEsAAASCgQCBAAARLKSwACxLAEABEsASCgsAgQAEgpLAEASygQCBAEssASwBASABIKASxAEqyASwBAqSxAAsAgSACwEgEpIKgAQBLLIAESwBAIKBIAESwBIKBAIEASyksAQBKsksAQKBIsEsAQKASwBApLAEiwAACyAAAgAEsoEAgAAAIEAASqgQAAAESiC0ESiAASwABAArccYgAAqygAAKEAAAFAKAoABAAAAqgAAAoACyygAAooACikpAAALQAAoQsoCgAKALRAKBQoQC0AFEoALQAoFCigQAKoAKBRLQALLKCgAtACrLAKAoBFCgqygKEUKAsqhCygKBQoSgLKAoFCgUSgLKoALQoQCrKAoFECygAooACrLAKACrKAoQsqgAqygQCgUKAsqhCygAKAAC0AAKApAALQAAoFEAAoFABQAAAoAAAAAASgAUAAAKAAAAAAAAAAAAAAAAACAAAAAQAAAAAWQShYAAACRYAAgACWAUAlgACABQJAAAAiWACWIAACQUCAQIAACJZSWAAWJYAgAIlgCQUFAiWIACQUBAgCWUCAQIAllgCWAICJYAkFAJYgAJBSWAIFQJABYBAkWAWAkACQUlgCAJZZAAJSQIBFlAkACJYAkFAAkCAJZSWAIAFklECBQIlgBAgUACQAAVAiUQAAWJYAAQAAWQACWAAICpYgAACWUCAAAAkWKFgEWAAEWAAIFbjjEAFAoAAAUIFJQAABRQAAIAAAUUAAAFAAolAABVlBQIBQAAUUABQAigBQAKAJaAFAoUIFUAWAUBZVABVlAFlUIAWVQAUCllABVlgFABaAFWWAUCiAWgBVlAUIoUBZVCFlAUFogFAWUBQKFFAlBVlAUChQgFWUBQKIWWUAFWUBQFllAABVlAUIWVQAVZQIBQKFAWWUBZQAFAABaAAFAogAFoAAUCiAAUCgWUAAABQAAAAAUIAAoAAAUAAAAAAAAAAAAAAAAAEAAAAAgAAAAAsglCgQAAESwABAAEsAoBLAAEACgSAAABEsAEsQAAEgoEAgQAAEgpLAALEsAQAESwAgsCgRLEABIKAgQBLKBAIEASywBLAEASxASLKASxAASCksAQKgSACwCBEsAsAgQEgpLAEASyxLAAEgARLKBIAEAgRLKABIAESqksAQALICBAoEAgIsQAKBEsAAqBAIsAAEssAASwACksQBKIAEABYEAAAiywAAAEAiygEogAASBQQDcc4gAqygAAKLICgAAAAqgAEAAACqAAACgALLKAAKSigLLAAKAACqAAKECgKAAKAqywCgLKoASrKALLAKAsqgAqgAooQBQoAKLCyqACqQCgLKoASqAKsoELKoAKoBKBQoCyqEUKAKoQCgKAKBQqyqEAtACigSgAqgCrLAQsqgAqygKELKoAKAsoEoCigAtAEAoFCgLLKAsoACgAAtACgAUQAKoAAKBRAAKBQLKAAAAoAAAAASgAAUAAAKAAAAAAAAAAAAAAAAACAAAAAQAAAAAVBAAWAAAiWAAAIAlgFAAQAIAAFkAAACJYAJYgAAJBQIBAgAIllAJYABYlgCAAiWAEFgUCJYAgJBQECAJZQIBAgCWWAJYAgCWIAllgCWIACQUlgCBUCQAWAQIlgFgECAiWUlgCAJZYlgACQAIllAiWAIBAiWUACRYAgVJYAgAWQCWIAFAkAlgCBQIlgAFJYAiUQAAWQACWAAUCQAEWAAIAlgAAAFkAAAACJRBQEWAAIlECgm45xBQKAIAAWUBQAAAUUAACAAAFFAAABQAFJRQAAFAogAFAABaAAFCFAFAAWUCVZQFAUUAJVACiUAFoAUCgBaAIAoUAFUhZVABaIBQFlUAJaAFoAhZVABaAJVlAUFWUCKFAWVQgFAoUBZVAWVQgFoAVZQJQAWgBVlgIWVQAVZQFCFFABQKFCAWgABaIABQKFAWWUBQABQAUUABQAKIAWVQAUACiAAUCgWUAABQAAAAAAlAAFAAAAUAAAAAAAAAAAAAAAAAEAAAAAgAAAAAIAALAAARLAAAEASwCgAIAEAACoEAABEABLEAABIKBAIEABIKASwACxLAEABEogILAoESwBASCgIEASygQBLEASwCwCBAEsQBKsgEpIAEgoCBAqBIAECosQCCwBLEBEsEsoEASyxLAAEgARLKBEsAQCBAqABEsAQCCoEACxLAEgAoESwSiBAoAEgApLAEAiwACyAAAgAAsSwASiABAAWBAAAEqyAAABAEsoBKIAAESxQTcc4gqkAAAAUKAAAACqAAQAAAKoAAAAKKSkAKKAACrKBAKAACrKAAoQBQoAAFAEtACgUKEAtAEUKAC0AKKACqEALC0AKBRCigAtEAoCyqChFCrKABCigAtAEqyqACrKBFCgLKoQCgUKAsqgLKoQC0AKsoEoALQoCywEKKACqAKEUKACgUKEAtACgUQCgAUKAssoFACgAAqygAKABRAKsoACgLLAAAKBQKAAAKAAAAAAEoACygAAAKAAAAAAAAAAAAAAAAACAAAAAQAAAAAEAAFgAAIlgAACAJYBQAEACAABUCAAAkAAliAAAkFAgECAJZQAIlgAFiWAIACAQEFgUCJYAgEFgECAJZQIAliAJYBYBAgCWIACQUCQAJBQECBUWIlgCBSWIBBYAliAJSSWUCABZJYAAkACBUCJYAgECAQUCJYAgEFQIAFiWAIlgFAiWAEWIFAAkAAFQIAlEAFJYgAEAACAQUBFgACAJYAAAAiWUAAACAQUBFgACARYbjnKhAlAAAUAUAAAFAoAAgAABRQAAAVSAAAWiAAUABRQAAUIoAUABRQAAAigBaAFAoUIBaBSAUAFUAVSAFFAABVIBVAChQFFCAUFoAUIoWgCAKFAUUFCFFABVBSAUBRQgFUAUBRQFJQFFABVAJQVQBQFICKFABaAFCKFABQKFCAWgBQKIBQFFAAUlAoAUAAFUAAUBQCAVQABQFIAABVACgAABQAAAAAAlAAUAAAAUAAAAAAAAAAAAAAAAAEAAAAAgAAAAAIAALAAARAAABAEAKAAgAQAAKgQABABAEEAABIKBAIEAgoAEQAAsQAQAEAgILAoEQAQCCwCBAEKBAEEAQAsAgQBBAASCgSABEKAgQKQRAACxBAILAEEABJCgQALJAABEAECoEQAASBAEKBEAEAgqBAAsQAQCCgRAAQQAABCwCABAAIKAQQBACgAARACkAAEAAgAAAASCgAAQBACkAAAEA//xAAfEAACAwEBAQEBAQEAAAAAAAABESAwQFBgcBCAAJD/2gAIAQEAAQIA8sku2sK+GJcNJLGklNJLCtKSWFZ13lcl6xfIlwl116AXJakrVyElsSrVaWRKtVpKtXq9fG189XillWsTWZKpLjJLtqCSsVaxJK1VrEtCuS/iBeDXpFmVazJeLXHVyS2r+uF4ZZlWsyWVevXOXwBelS88viK5arWZLgpe0XOXwBenS8Wta+JrOl6tK1JYV0lektivSXrlx18HXCXkkuuvYrckrkksaXGSS5aSXjUuMprjr7wsKXwYYVyklhSSxpLhpJctJLw6VyyrxStXxZJJeAWJeMXCWVUJeESSvSVySV61pJXrSl3V55Wr4OkkvOLiLWq1mWZVqarSXWW5JYFWrEljVaxKhK5K5e7Vy4C+WrrpckULMq1zEvKpVqtZElWq1YpLSr1cl6lXLhLpD6kuEsy8CvEqtcJaVJdlLiL5gvbL0KXCXglwVUlwFWuEtSxJeRX8aLww9Iq1wl0FWuEuelcvAL3S9ckkl9nSVq8wsCSWpTUl0l3l7tegS+dpeCS9EkuYpKS+aLzqpX1tVrMl4dXroLIks6tUlJenXi15heVS7SXkVmXGXKSwpLtJK5cZfwqqVYkl7VLCvFLhKlSXGStSSxpJfqS5yrXrV7pejXwxegSzLkpWpLAkllSVqS0qtaFylykvnSxL5QvApcJULnLiJL/JK1K5LIq1rWpSUly1Wvl6+QL2otVyqWRdJXpK1K9Vq5JVrUpLIuQvm68Gl41LrJJJcJJJVpJK9XKaWZZlwFxFWq0lkWdJKSksqVqWZfa0l6leZHHU1zlgWRdBYkkuQumlYprxy/hVeuU1zl8xXKXll65fIF5tY1qWtc9edUVxFetC+gKtfYkq1zFarklakuIvLqSitS1LjL5Wq194S4SpSuStS1JY0leuCklwFFSWNSX2dWKldZJLzy8OllWlZElakuGtKVqStSWRd1SViXJXzZVLlpJenS86l2klvSVSW1JWpYElYu8siVy0L5kqVwUl9NHm0lrS2pXJK1VqlSXq1xlqXNXTVK/lJJYElJJWpLrqtVKS4C9gtS7q5KpV6X8uq5JdJVqtcBSXr15hcRfLl6Fd9ZVmXg1WuapL1y1LzypXpl8RVSVK6yzLUsS6CrXxtfG11UvoKW5UK1Z1vWJdFVrUpL++0uGpqauWdcRYliS4SUljUlwFJfCluXfXwJfBFNTU1cs6wpLKsSzpWpJXLUpKK1KSuXulevKL3C+BqamprhpK1LCkrUsC2JYUuGorUpKSuXwlXrqr4GvgSmpqawK5JWpb0lakrUtqS8kta4y9ku2qV69fAVNTWZWJK1LnJWpK1Jd5ewXx9ZF/C6oSVqW5bFgStSXTUlqUVuXPXxBZFSv4XWda0lWlnXllJcBblxlNfFlSqlzEl9/WdJaUsSxLiLeuApLwi+MrIv4uWZdVfRF41blyFSv44WZdpd5WLgrrrcvGq9ecXwFdJchRXo1+LEuIsSxKSktS80vnq+ArjqKiuOorSly0kuosqStSV6xqSksakoLuL6CL1iS8QsKxKhLkrmqpRSksymqElrSSvS5iSViStSVy4Kit6kvsy6yWFYUsKpWFb1FRXXUVFK5SSklJLSkrEkopVJK1JbElakrV11jUlvXz0ZlwElqWtYViVCXNUVxVFY0pKa2JLCsaVqSsSWpYVUtCkuipL58qVUqV5BYlrWFc5RVyityqXKXSWFXpLGsS2KSkuUvqKpWRUrtJaksK1pcVXqhLevGLesSxLiLapKS+7LIqV45YVzl11QvKruLiLEsS2r+CVkVK8El7lUKlRUF5NJLlLEsS6y56kvp6yKlfWlFQXDSkuCktaSX+SXGWJZUlUrlFdVcNfMVSvqSxLKoqlRSkllSmlqSWFJY0lakuYkoKCpUVzlyV8sVS5C9IukuIsiiqlBZUpKaWVJXqhKhLMkrElaktCioLkKCvUlwl8oVK5KuS8AsS1ryCiqlBY0prUl0UtCStSVqS8KoLmKxfI1015BYlQsS9CorxyyK5LQuCkueor5CvILkqleFVCxLEqF5hRXXXg0ljWJYlx1JZFBfwEualeklmWJULEvMKKrXgUlakrllWJcRchKKgsa4qgu+tC9KqVkXlliXvluViuSViSuSrXHWJcpeHXaXxFZF6BfH1JKSWhKtJbUqEsa4izLIoL4mvgCyKlZUkl69eUViilJXJTS66VCV6ypK1JZFBQVK8UuqvhKyKlVL68q1BZlNLCsy0pTSXISVqSgqVBQVy768ivcLIqV8BVK3q5c9QWRLpqhcJKtJalatK+cLyC+MLCuyt6gr10V3FckrUllWFeMUV0F8fXulhS464i3q5QXRWdYlzFcklgXiF9bXOHslhWJULMsKoUFUklBXqSWdLEklWkklwVkWJd5KCrSSvSSXaXmV0lUumvHLClxVQqFQsKgqF+qCuVyglmSwJKpJLAlNJZFxl31BQVK7ygvFLAuuqVyBWvUpbVQqFzFwVBWpSWFLlJUJYUsSxJLnKCtUF4hXL5cqVkVi76wrkLMtCWdWqCrSklelgXFSoSwJLkJLGoK5QVCpVKgvBLz68KqVUqV8SXm1wUu+q0sCSrSW5WqCgs60KC7CpXkV4lVKlZF8IXlVBWLkrCklFLIr0sKStSWNfq/V69fJhcqVkWRfU1BeCSWVLiJZElYklgWNQX8FKpUrIqV8zWFWrEuOlQuGlasyyLiLGtS8GvjiqVKyL3C84oLErVWtCU0sqS/UsKXBWNcRdNdlfHVSsi668UsS8KoL9VqgtKypTS46WFKaWRfx+sipVS9uqF3ViX6oKhUK5VKtKKS4C1LElNJYFjXuVavlCyKlfAFzFhWJfqwrGqVUpKxZl1kqErFkXwFfM1SqlyF59cRYVWs65i5a4i4aVKzpL5KvlypVS88uuu2qVSsizKxJKhLjq5JTS4i9Gucvg46SpXw5ULtqhUqtcBUJWKlKxcpKaWRfqmv1WLvr54OgqVUqV8aXWVS5CVCwKCsS4CypVJK1fqmtamuqu4vfDhqpUrKvnqxLIlgSmlzUppY1nWBLiqCsXQXcXthzFSsi+hK5UqxTVyVCzK5Y0ppYUsi5S/VQsqmt65y+YKpbl84VqzqSsSqXglQlhS764y/V5Ne5VKqVKqVK+dLapqCqVikqlw0tK4aSwJKxeUX6sKxLkrsrxSpWRfa1crVgVyxJYVhSxrAlhSpXl1hXzxVKlZFxB9BVKyKlbksKVKWFLiJYElNJfw8qVkXGHz9Y1kVKvViwpZUsKVizLEl4FeOVK+CrlNt/elBVLQlhS4CV6SSSSSSSSSSVyypQX6prArV9/WZULGsS9gv1dNSWhKC0JRS5C/UuolFLhrgKtVLceMal8SXCWNa15NQVarX6sSwqpcFKC0qC5aVKXVSilYvAKS4BvOM5V8UWZZFrXgVhUFwlpX6pLiLGlStSWFKaSSSsSS6qVi9cfmarXLWJehVC9sqVnSwJKlY0lakksa0pWLxC7KwL4isyrVKxLjrwSgvOLClSsiWBK9a0sqSSqS0pVL8VqtXIUlwljVigvjysVKxL1S6iqFiqUl+rAqVkVqSyLgpaUqkuEv1fqpX6qVzliOtfHllVi2r1S6C/VmUlUoClQWlQXGVCSikljS0pVpRS4KpX6qV+rkror5YrFtWJe8Va/ViXDWxQXDSmktCSSrSSXDSilqUFarV9sWVWKtUrWvSGxVqa/VwFsWdcRJULmpJWJLiJRSzLhLlH6WrVlWtcVeKU1+rwq0pcBJWrspVLipQXqliWNfGFYq1UsS+ArwAiv1Ykv1LQlFYl31WuSormL7krVmWJelWtdQSUl+rKoLQlBLIsaS/UkuQq1FKxLQrViWRfflWsSxLyS4y6y0LElStCSwJTSSVaSXNUUrEsytXGWwxXz5WrMsa8AusPCKS5SqWZYEloWJJJY1nSrStUl+qlQX6ti5x+Wq1VrMta5q6S6avX6pLEJK9KlZVclxFrSSrWhWL8WRWqC4S+vLMq1rXNUVeti46rXBGJXKlZErFzkt6VK8euCrTSfoarXp1zFx1NdNYVoUFesiS2pcBUqKXr1A/PlWsyrWNeWWJcNfq6aqXFUFhV6WBJLWkkuEopa14xSP0dVqtb15tdFfq5CqUlhWVaFUlgSWBJJa0kuClJYV4xeDXq1pWZVrIsS8QtayrpqpWr9WNalJK9LiJJLMlwlFK5fimrV1j9CVarWZbF6ReVFqypaUoJeHSwJQW1b1+qlfq88fiKzKtchfGRyRqWhKK4ySSS4aWBKC4K0qCpWJchdherVirWZcBUL1h5446/VhWBUqS4SSypJLUsysWJRVatVa+4qtVrMvgJ5y1KpaFWqUtqUklcv8s6SS5KViyqxeCP6ch+WrMs64q+Aqa4KuFSuVK2JRWRTXASSmtSVi8oqzSfoirXztfqmu0rVQtaW1WJcZQXIX4vCKpUn4+t6rXOWFcJejX6vILKlUlrSWhJJcVKlblcuKsyqWQxPy9Vrqr1g9AuElSlpSV62JJbUqVsWFWLmKk4D8eXaW5eoUR5NSX6rVjVK0pXJK1JJa0ksqVK5i/VQoLnmC+fKtc1exXjFiWFYVStCVy4KSWhZFUlFcJQVC0LQbDUvlS4SzL6Suor0opYVyks6gtaUVhVygsC4q+fKtZl6VfAlEWLCsyUUsiuSSW1LOoJcVVqK8Gfo6zrlL4soDoLgKlblSliSSWVbEqVxVFaFyD9FWZVr4YuSpDQtCwqpULeopcZJK1JakqUsKzLvn60syzCtefXJXTWFfqwpbVFLrpJUJaVUlFULhroHnn5oq19bX6sKtXDUlkSX6kuUoJUrWl+K5fiwrrmo8AxPyZdEfZlJWKxKhXpLKkkuOqVzF+LEpriLOfpyrWtTXqD6VZVUlUlWrEuQklvVKXMVyguWon6guEuAvRH0atWFUpXKlKxJVJJLWklnVKWleMUz9NVarX19cBYVNYVNclLaoJaEoLEvxePP0tZlWuSvnitWFaFFLpralBaVBK9fiuX4v4DVarX0UdtYVlUUuCktC4a3revxclXmg/PlmVarV69iOeK15JKS3q9JJYFw1tUVsUliW0/T1Wsy4C+kLCsKpWVKKXASSsSS2KCWVRXTW451nPnD1lmVarX2VfqwrCqViSil0UklStKglpVaiuwon6Uq1mVa+tLCt6vSksSSSXFSpVKWNLOq1Fdw/KFjWZVqtal8YSXhVhVSsS0pYUktqVKpSxpTW9fi562n5eq1mVazr5EMSpGZYVaqktKXCSS4CpSxpcVfi6p+hqpVqtZl8qV44ywr9VKoS0rIluSS0KlLEuKvxfc1WsyrXIXxpaVasKyrClFLauMl+rSlBdRcwxP0lVqtZl8zVQ8EpK9KS4q46gtKglwFrPGP0dZlxl86HIVqyJb0sa5q3Jbl+LAch0H6Iq1WrVQq17c+OX6KV+KhSVqxJb0oqpJKtJJcZc1eMP0JZlcsayL6CpqSqXUS4KStSS3KC4yivCH6urVkWRfIl11+rCrkrFzFmS0KC4i8Qfnq4i+pDkLerEq0tKWlZ1SsipS8ebz9gWRfAR5RaVhX4q1WliSilYksS0KlZFQv45XAWNfMVtWFWrclFbEkkqkkksKqWNK9b10T9aXMVCpX1ZbVWl1UklWrVUsi5qmch/g1Vr5gpDaLVJXK5UpeBVaWhQXSXQMj9rWZfOVkU1iVquU0t6XIVi0JQXNX4uof4AVS9WfDKxWL8U1JVL8VyksSVaVaSXBVq3Llr8UTkOk/ZlmVa+djgqpYVBLCrEtKSS1K1LalUr14I/QF50fGVmFQzLCv1YErFy0kliVqguKrVkPMPz5cJVrMsa+RCa7SxrekkuMklSlaoLyR/ghTGtfAl31oWFYEtyVyS4iVCxqlL0J+uKtZlWvoSmuCr1uS2JLeqEsapWRRXgz9CWZVrhLQPkQwrSpK1LMlBLnJJb0sa8CeGfparXOX0FfoyKpSVS/VkUliS/EkuKkksyyLxZ+pLMq1WuWvlCgrhSqlgX6sa0JYUlw1nUF/GSrWZVrgL0A9st6VarXEWtLOoLctC6B+iLMq1wl6weWXHWNWqlZ0lmSSyqC0L0h+gqtcJfehNYUrlJLipLSklav1LQuOvxck2HOflCzKtVr6wvwddXqKXSSWZWqC6KtX4pHmn54q1mWdZlSti+HqxfimrBlVqis6UUuElgWJZl8KPxZVqtZlnVK+cr8U1aq1JVpQSzJSVaSWxYEqFQlSrFUti55vXzNZlcqFmVS2r5oqlJVKKzJcFJLKsKxKpedP09Vq1ZF9pVSiql+pZUueklesSxKlfw2syzrhL50tgzLSu+klNLCl+q5TVC5B+4qtcJfw4lgSrS5yX6sSgv4+XOXEGBfJVYMSypXpVpVpLnLMv45XOWZe0Xjl0lgSqS0pJcdZ1gVC6R1n6WucvtK0qaWBWLjJJcJZ1rVCsWA8E/ZlhXw1ebVqqWdK1XJJLgJLYlnXPXPP8Ar6aMKgKVUpK1K9WJWpJcJLMqVav8sK/wCCy2qpRViWBVJbEktipVqoWlaFcch/g5fZxwliVK5aSzqhKxKhdBc4/WlnWZZVYPqYmsamlgS/EkuAksKVCtVK7R+8rMq19eVS6KksCWFJcFWqhK1bFtOQ+GPyJVrhL6mqlarBmUEsC3pLWlmXWXQPYPyBZlnXxReXW9KCV6XMSSyrOta9+fjqrXOX2FWq9QSwLtJJYFmXFXHP2ZZlWuEvqAyK1QSwLMkkly1as66CxH7Okq1WtCSUlUu6lYlaqkvSPSoClfizpJJJJJJJJQSpSSSSSSSSSSSSSVytUFhS/VhX8HLSv4OHHWlKpLgpKpWrMvPnhHpn+rhnF6zJcBa15w4z0D/Io+HCtZUuClxViXkz4w/xEPiqsGRZFzUuCsSznzZ6h7J/pJWqCzJcFLnrefPnvGw4j6JfHR6wdRalUlwUtCxLjHgHIfKG4/E1z19XVSwrQlkSXAWZYl/E6/i8Z1nXASXhV8FPjz5tVrCMS+wqYkqlcsy5aSzqCwqC8OfLn+FB85GRd9LGv1YlBfMTcfUJcsYF/AY2Jd1LGvAnxB4Rzm00H5wvuCrVCzr8S5iwrMuidpyHWeEfki/gJchULKlal2VnXnzyT9nX21VratCS4awr1ByHIcZ4B9uq1/Fo4aXES3rCuefMHIeGbj8VHpRxB7sbxSl0ktS9EfLntnxiS/iRdJZ0klwUsy/Vav5eXlR8qW5QWVK1LgpLKrVQvjp/rlZ1BZFpS3rAsSoWQ9k+oO0/K19rWRJcVLoK1cU90+iPtF4Yc0fQlgS6aWZZVavWn50vgI+gK9aEklwUuQvoB9WlzhzR3h8kGdZkrElwUrVlXxI3mJ+cr2I+FjrJZ0lvXCXmjkOQ/Sl1R9iWJddJalYsymfZHvHAfUr4WPpqS46SzKxTVq8AfMn4+vBj+BEl1UluVCtX6fPHzZ9QkrFWsI+/jkLwiVqsVC+HH6MumuSOefkC0KCS5a9ycJ3H6mPLj6YsyV6S4ysVioXCNR7J8Acx/Tafmw5g+aDkJbkuErFlXTPPNZ9OfNrir+FVjS5iW1WLMtp82ch+VrwQ+2LCuwlpViyqB5Z4x55yHIfapLWv4iWBaVBJcBJcFe3OQ+MPwdcwSH8FJK9JcBJYFYsx5Z8Cch/iAfSlgS3pc9VqC/lcULx46I+Dq9VJLmpaVgVi/VcfMHnn72tgoHz5VLsJcZYF8nNp9ykvJDkD6IqVpUElwUsCwLCviB3HUfdr0Y4Q+Orji1JcBJbV6o885DkNJ+hiS4Q+erjpLGkuUsCznln0R4x+ir+AklwUlpViwL4Cfqa6QgPDD347CS56S4K4h5Z8eeQfkI/itd1JYFYsC8mcxyHyZ86kuUpDiDrD6CvDpWLgqo8M0HjnIemcBoPwhWrjL7QMSypKhJdZWLAvHnwh+fjmjmDijAIj4E9qWZJePPPNB2mo882mZoOE2ntnpry40ikQHSHrRzEuEkvEnx5ynEaTkP4dRgfHnurAOaOSMQ3j3Y8skusrD2DA8A/pyHIZm03nsneeYkvaj8GkfER5xJcVWKo9A5TWcpxGk5DsPkjlPgFxBUOAOILBpHox6JLKrFlPQNJym88szOg+bO1cZXKA8YP8NI2D2w7KVKS4KSwLx5oOo5TiNJ3nCbz4I+7FA86PkiWVL4AaTlPgTM4Tafla8KPrSXBS9gdBrNBvMjiNJ3mB+IKteCHCH1VLmJeBXcPljE8AzPsElvHhBjHywccdZLoLqHQaznMjcYGkzOQ3n3CXDWIcgWrgDjDkDyI447iW9WKo4DzDQYnxJidh1HIe4kuQvDrljhjIPPjjjUkuKlYuIcB0mk/h0GRqNpmazSZm8xN56B9uucPKD3Q444KS4aqXCOA7z+ms7j3TWcJ+CrSvUjgj2g7iWJLcuWcB1GJ3GRvNBmazScxwG08s+SSsVq6IkNo4Awj5kluSXeWM847jsNBpOA1mJsPLPjlwF2FtFQ3jnj4Kly0uarFzDQdZ55pPGNpznwxuSXEH6OoILhikcI6xEedHMXXS5K75gbT1TQchifXnGku0P0chdMfGh6pLoHAdhxGoxNRyn8OA9w8g+2XKHGFIpHxcccedWc4D4Y0H8OM3nIbDgOExPx1WK1eDFwvHVHcHHGdLtqpZTgPEPKN5/DgPYPlDyUr1tURlVY3CkbBaLRkER5IccYkqUly1UucfHH9OM3mJrMDYazxTE9A+ZVq9gLREfE0s6XGXDWM7zhPINBrMTxzhPq0l6Mfg8KKR8nS4aS9qYnjG0zOYxNZgcp/D65cwSGxVrgj7Cuil642G09QxPDMDuPxgWLeNgwCwfo+aDKuGl2jgO8yOw1GJoMzmOAwOU/DElzB0BcOIP0dQe3GFKhcFLrHAd5xHSdhsNZ5J4p92ukJDmjjC0ejHHFy6SXSOA4zYaT5owMDlN59YkuOsYwjmj5YOOK12UuccBgdZmfAmw0HWfepc1dUbhlHGFA9SMSyCa9acB3mZoNBvOU1Go5TAwPANxieMfgg6g6w9gOOP1L2BwGs5DjOw0Gs4zQdZrPxofo7A6Y4ItGIeYHHHtTgO89w/hxHKYH5Cktw/RsHSH0BWjWq17M0mg2G0xNRoNZxnYZmBifw3H4Qr1hG0Wr7GNyrS8sYHcaDxzgNZmaTYeKfXpLxg1r7KOEq0vZGZynKZngnYZmBid5+bCgdAUjzA8yMqwKtLx5wHwB2GZ+MpeGXjRSOiKBEfAhiWZWJfDDUYmgzOMzOwzMDM/C0l4MTWgaBSPmQuW1KxLwRkchzHtm44DzTE84+ZHCW1YxgFI5giKB8IFa4itS9IegbzWaDM7DMwPgD6ofovXDGodQdsehE1y0rUu2ZHUYmg0HCYGJxGo7j9XF46opG4/wCFotHw1ewOA7z2TUaD+G07DMwPMPu10BIahSOWP4SNZid56poP6eKYnYe4eSuWrljF4kIrSIroD5MPgp3nMeIajUbT+niHgH1qSVgiuyPtC/R8BMD4E5DWdpoPBP6fk6vVggN4+sj4Kc5kaDlNp55ifw4TkPPOI9xJeeHYFIkLhaKB6xYhlX6l6EyP6eUeIYnKdxidh+KqscNblUPPn/CkerGJVL05wHjGo2nhGgxPHPrElyFrGNZRStQpGQZBQLR8AFywpebPnDM3GJ0mJoPyRdYSG8bRSNY5A0i8cgbB8UP4bjYcxtOQ3GgxOM5DuNJ7Z8qLhvEheOEKRWLRAQEREYBrGETHUHjjWdJyGRoP4bjYdBrP4aDQcBtNBoNh2mRynKfGrGIjpCQgNQpFI1CIoFotGIUjENQyjQPSHQaD+GR0GBoMTuP4Yn9MDcbTQcxgYH9PFMzQbzxD1hxhWJCAkNI0ikaxyBpF44ImNo9mf0yPINJ/TExNBiaDAzNxgf0xNBwnKf0xMDWaTI8Q5T4oXDIJDeJDANYpForEBSIjAMgmPGjzR8GZmw1G02HScRtP4ZHWbjYajE4jxD1B4cQEhkFIpGoRFAiKBaMQpGQVCYmMo0j4uZGZ/TSbDaajeYHAaDE4zE8EzNB4R8CuSJDcJDSIjIKRSO0OMOGJjcPIHiHCfwyOc/ppPDP6aDQf07DhNpoN56B4h8COGJDhiImNYpFovFIiMAyCY8cPTHOaD+Haaj+GRiaDaf00G4zMTQaDM0GszO4xN5zHtrMOMLBvEhAVCkUjUIigRFAiKB2RMTGUah7c3Heaj+Gs6DQcRoNBvOMzOc6zjPoxSOoOQKRSO0KxSMQ4YsGoecOk4DjMjI2G02mk4DUajQYmo3Gg0H9OY8o9VahzBgEhlFImNYpFovFwwDIOgOMPTm44DSajYaTtNJgcB/TlMTUZn8MTjNhvPCPqhIZRyRjFI3i0UCIoHIGgTHQHkjwzgP6ZHMYGJqNptP4aT+mg1HKcJ55xnOfOjuiQiMQrFIpFgtHMEx+DEMYmMo1jzprNp/TIzO8wPJP4aTQcR/DI3nGYn8Mj4A+RHGGwVDILhkFItF4uGAWiY0DQOOPan9Np1GJtNptNBwmZ/TQaDecZmcBiaz8FFI4o1CoYx0BQIigTHBHLHFHkzWc5wHIZGJ45tOYwNxiajM6jrN5yH2okJjIKxUOCKRYLRzBSMQrF4yjYPUmw4DAyOU1Go2m0yNBoNRxn8N5mcJ/DoOI+6EhzxIQGMRFIrFItF43C0THQHx01GRgdZiYnObTjP6cJ3mJpOc6znPDXPFI5wkIDUOwKxaIj9ExwRgFAxj4KcxgZGR3mJzG00HCZms0G81GkxOIxNh/TxztXiBSLRUNIkOCKRYLRaN41jUPk5wHKZGBuNptNBicxgYGg0mR/DhMzM8w5T5oUjYMYsFQkJi4ZBsG4WjIMQ2j2R4BwGs1HQZm04zQdJmYmo6DM/h0n244AkOCKRWPwWDiiI0CIqGoTFY+HHiGo4DEyPWNpuNB5xmdZidZ0H0IkOAJD9HMHNERQLRyBvFg+OGJkYmJ4pwmg1n8OQwMzlNx/DE5DM5DefMqoUjijhCYtFwyDYNwtGQVDij2hrOQxMjE7DSbjQbTI/h3mBoN5/DQbjxDxz58SFI44kMAmIi4Ui4RG0UC0XjEMg94eacBzGRgbjE3mwzOY0H9MzE6zE/hmf02HWfLLOOqKhQLB3hEUCIoFg2C8bB787jgNhgZGo3HIbDeaDA5DE/p0G41GJvPFPnReJDEOIMIiPNjIOeJj0J0ms0HAZHomJoNRzms7TIzOU8k8M8tcoZx+DeKBEf4TERSIikXCItGAZReMQsHzIyMjA9cxNBiYn9PGMTeajE1nhG86T4oYRlHCEh+C0WjYMgiKBEUCImLxaOWPgJrOIyPHNJ5BoOQ/hoNB/DQYnQbTWbzYfdDgiQ/BtGAc0dMZBhG4eqPEPIMjIwMTcdRoNBsP4aDeazgMTjOQ8Y+RFA3D8FA4omIikRFIxi0cUXjuCY+SmRgcBuMThNJqMjQYGZmazhP4aDQaznPlF2xIVjaPwUCQ1C4UjaIj9ERMXi0VjGLR8OO4wMjyDSYmgxMDAyOI3GZoNp5BzGJ1HkLzg/BQJDALxcN4tHaHxs8syMj2zmNJxnhH9NhznSdZ6K8KMYkPwbhIUiIuGMWjii8cUWioTHtDsPHMjSeOaTQaz+mJ/TnNZoMTQaz2zwlzlUNQ44kP8JDGLh+CYiKBgERQJi8WisfFzxDwzAyN5uOE0GsyNB/TeZmBgdh/TYcJif0zMTefMD9HDGoSH4LxsG8Wi0fwKZGRyG4xOExP6YmRoMj+njGJ5B6xuPdXWH4KBnFwuERMeaGAYhaJj4Cc5kYHkmJuMDYYm40nln9MDA5DA5TrPJHLUBzhlGIRFwxj8ExEUCIwCgZhaKx8ZPEMjI8c2G4xMDYdhgYmowNBgbzYYms2mJ5R9OKRgGoePERQMIvG0UC0fCTrPBMjI6jSbDiNB/DA0GB/TQbDxDpMjE4Dxxx1kHSER+jMJi4RHfF4xj5yazsMjAyMjSbjYYmJ/DYaDI/hxmg5DQYHyB8WOGP0Wj9FA2D8Fg/RWLhEUCI5AxisYhaMQ+QGBkZHAYGJuNhqP4ZG40HGYmg2G8wMTQf02mk6zxR58ZBjERxBcMAiP0RERYLxzxaPgJrOYyPAMDcbj+mw7DE2H8OEwNZwms4jUYnYeyrxxhaMYoHDFw6wvFo2j4WeIYnjmJtMTSYn9PNNBzmw/piecdZ4Y3rljiCA1CYiPwWC4RFAiOQNw2C0UD5sZGJtNxoMjE3G43Gw/pid5tPgD01vHDEBAbx1xEViIoERrFotHzA8Y1Gs1HSZGJoNxoOsxNBgbzSazaYmJiYnCeCNa7Y2CwUCA4o4wwC8WjKOOPjpkYGRymJidJtMjmOE/h0mBoP6egfHrhjjjIMwmJiYiLhiHIG4fLjqMjI7zE3HAecchrN5tPHNRwneM60jjDCKB+jjjiCI0CI5AtH4KBvHsDnbrMDYcjkYG4xNx/DYbjcbjnMTsNBwGJ+BKYyj9ERvH6OeMooERaLRaMYyC0UDijxZrPJOM0GBuNxiaTE0GRoMjjNRidBznEZGBznaO6IruisaBcKRtGAfgtFoxjILRzRzjtNZ5JrNBoMDcajA3GJoNZ/TQcJqMTYbzUfkosGkUDGP0TExMXCIgNowD8FotHHFo5o5x2ms8k1mg0GB2GgyMTQfw2Gg0Gk/h0mJqPNOs+bHJFQ0j9ExEfgsFwgLhvH4JjGKxyRzR4s1nkms0Gw7DQZGZkfw5DQazpMTlMzgMTUfRipaxUPwcUQF4uGIXDgiYxiseWHizWeSf00Gg2Gs7zM7DjMzUYmo7TpOs8Rc5YRzRQPwVDniAiIjgiY3Dyw8WazyT+mg0Gw1m46DwTlNRiajM2n6OPwahxRUICIiNApExWMY8sOedhrPJP6aDkNZuNhsOI3mg2n8O4yOE2mJmdZ3LwgzD8EhvERSJiYuEREUjQIikYhaPODnnYaziOc/poOQyMTcbDYdZkYGByHSbjI5TUfXjhD8G0fgkIj8ExEfgmIi4RGQWiIpGIWjOOOJDQPFms4jnP6aDkMjE0mJ4JgbjUYHIbDE1HMdJ1nxo4A2CQyj8FguGMZBQIiIpGIWi0VDjiQ0DxZrOI4jE/p2GRuMTSdhoMjcYnWYm80HhH3g3Cgfg1jwYoERWP0YhaLRUOOJDQPFms4jiMT+nYZG43GB0GgyOM8A1mBuMDYbzpPgVSOWPwSG8SHSGEUDAP0WDGLR0RuHQPGOI4jE/p2GRpMTcYHEbD+Gg4T+HMYHYYm4/CR1h+CQkMwuFwiOIP0SEhaMY5IoG4dA8Y4jiMT+nYZGkxNxuNBuNBpNRmbzyjoOw9Mbx0h+CQzD/CYuERSIi4RG8fokJC0YxyRQNw8scRxGJ3mRzmJuNB/TjNJwmZtNhmaTlPxEVigcYf4TERcMYuHCEhjHHGUUDcPLHEcRid5kc5qMDE/hkcx1GZ0nKYnqHojljSLRiEhMWjgjoDSOOLRQLRpHljiOIxO8yOc1GBifwyOs7DI1nScRvPoxqXIFQ7w4YqGkVjCKxaKBaNI6J4pxHEeIdpuMTlNxvO4xNB8UfNDjD9Eh2hcNwiKhxBhFYtFAtGkdE8U4jiMDtP6dpuOE0mgyMT+nWZn9Oo5D5VcEcUSHOFwuERSIiImLREVDCMYwisWjnDyxxHEeCf06jhOE0mg1n9MToMTwTI9Q+kFwsGMSFAmIj8ExEXCIuExQIi8ViQxjkjnDyxxHEf07j+nUdJsNBkfw2GJuNRidxwm8+DXFFK5YkNAsFwiLhtGAQERISFo545w8YajiOI6TQf06jcazYaDI4z+mRidZic5qPKPgheuIJCA3DeOWMAgIiQxjnjnDpHUajiOI/hzmg/p1G45zQdhkYn8Ok4z58YRxhnEhvFI4QuHKEBEaRaOsNQ6R1Go4jiP4c5oP6cpibjlP4aDiOAzOExOkzMzUeGfEjojIJCkWiYuFwiOSNwtHWGoeMNRxHEfw5zQf02Gk3GJyn8PKMzM1GJ45/T4RRGEc8VDIJDSJCYmIi4XCImNo5Y6w1DxhqOI4j+G80Gg/psNJuMTYdhyHGZnCbjUcx3Hxo4wiOIKxcIikRFwmIi0VjQMYpFY7g9QcR/DeaDWbDSaTE4TE6zgOowOs/p0HrqkYRkWoVDlDkC4ahQIisYBQNgrG0bx0z1TkN5oNZsNJpMTcaDabjyjwjQZGo8Q+UHCFYqGocUahERFYqEhQNgrG0bx0z1ThP6bzQazYaTcaTE0G00GRkfwxPCNp3HxQwjEOOIjAJDti4RGURERWICQkMY7I3j1ByG80Gs2Gk5zE0GJoNBsP4YmBqPBNxrPUPZWgUjKIDiiQgP0TERSIikRFguGAQEhpHZEBrHqDgMDecZsNJqNpiYGBiaDQf01mJgYmJ/DjP6c5/ToPeGEWLCOAOAJCAsExYLhEQFQmIjIIiA3joigQHwM5DecZsNJqNpiYGBiaDQf06TE/hzGZ4J9EuKKVrEBIaRlFwgMwyCI2iQ5IoFAgPHnqG8xN5xmw0nOYm01HhG4xNBpP6fSjCKFuGBYRIbxvGIcocISHJFAoHkz1DkN5xnAewcZrMDcZnEbjWcB+BCkTG8QEhSNIvGkc0SGYVi4UD4ebjI3nGZmk9A6zWbDIzPDPkxhGIZRSOeJDAJiYuERUIDKIjgCgYxSKxmHvjhOQ3n8OEzNJ0m01HEaTnNpmaTwT2j2h0RIQGwfgiJiIuEREQERMXCIyiQ1ikVjMOMPHGo4TkN5/DhMzSdJtNRxH9MjM8Q2HCfIjwCkMAgJDeJjGIi4RFIsFwvEhIaxsGkax441HCchvP4cJmaTpOc0mw2mJ4J0Gs4D6gUjeN4gOKMY6QkOCNg0j1JqOE5Defw4TM0nSc5pNhoMTE0n9OU7DafBC1c5VCkZxASGgcoaBmEBvFA2DSPUmozNRyHCcJmaTkMTA4ztMTSYn9NZxGs5j7ofo4AkJDhCwXDAP0ZREWCI2iQ+THCajkOE4TM0ms0mk8IwNRuMTcazUbjA+NFK0C4ULOKBAbxITExMRFIiKx+iImLhETERnEhIckfDjUchwm8/hmaTWaTmNpoMDoNxifw8E1nxw745QkIC0TFguERIUCYiLhMRGcSHPHw41HIcJvP4Zmk1mk3Gg2n9MTsNJiZmZ/TsNhrPUHCFwgumICQ7okMg5IoGwVi4UDjD0BqOQ4Tefw6zSbjQYmg/pibToMTMzNR/TQfOjvikWCQ3iY5o64kOIKxmFY1j2ZrOE3n8Os0mowMT+mJ/DI0G02HQZmBzmJkcJ3HIOELlWNogN4kKRqGEfg54kJDiCsUC4UD9Hxk4Tefw6zSbjE/pifwyNBiaDMxPaNZ8WPEDhCQrcB+iImLhEWD8FguFgpEhwRsGYfo+Gmw4Tefw6zSbjE0Gg2mgzMTac5wms5zuN64gqWsaxIQHEExEXCImPwRExcIiYpG8UDYMw+OHCbz+HWaTjNBsNJqMTcYHW3Wf04j2f/8QAFxABAAMAAAAAAAAAAAAAAAAA4AHA0P/aAAgBAQADPwB//v8A/pDsv/8Af/7/AP3/APv/APf/APsRv//EABURAQEAAAAAAAAAAAAAAAAAAODA/9oACAECAQE/AH/+/wD+Nm//xAAVEQEBAAAAAAAAAAAAAAAAAADgwP/aAAgBAwEBPwB//v8A/jZv/9k=&quot;,&quot;width&quot;:&quot;6000&quot;,&quot;height&quot;:&quot;3000&quot;,&quot;x&quot;:0,&quot;y&quot;:0}" math="0" shadow="0">
      <root>
        <mxCell id="WIyWlLk6GJQsqaUBKTNV-0" />
        <mxCell id="WIyWlLk6GJQsqaUBKTNV-1" parent="WIyWlLk6GJQsqaUBKTNV-0" />
        <mxCell id="zkfFHV4jXpPFQw0GAbJ--0" value="IgoninAnimal" style="swimlane;fontStyle=2;align=center;verticalAlign=top;childLayout=stackLayout;horizontal=1;startSize=26;horizontalStack=0;resizeParent=1;resizeLast=0;collapsible=1;marginBottom=0;rounded=0;shadow=0;strokeWidth=1;" parent="WIyWlLk6GJQsqaUBKTNV-1" vertex="1">
          <mxGeometry x="220" y="120" width="160" height="216" as="geometry">
            <mxRectangle x="230" y="140" width="160" height="26" as="alternateBounds" />
          </mxGeometry>
        </mxCell>
        <mxCell id="zkfFHV4jXpPFQw0GAbJ--1" value="name" style="text;align=left;verticalAlign=top;spacingLeft=4;spacingRight=4;overflow=hidden;rotatable=0;points=[[0,0.5],[1,0.5]];portConstraint=eastwest;" parent="zkfFHV4jXpPFQw0GAbJ--0" vertex="1">
          <mxGeometry y="26" width="160" height="26" as="geometry" />
        </mxCell>
        <mxCell id="zkfFHV4jXpPFQw0GAbJ--2" value="Color" style="text;align=left;verticalAlign=top;spacingLeft=4;spacingRight=4;overflow=hidden;rotatable=0;points=[[0,0.5],[1,0.5]];portConstraint=eastwest;rounded=0;shadow=0;html=0;" parent="zkfFHV4jXpPFQw0GAbJ--0" vertex="1">
          <mxGeometry y="52" width="160" height="26" as="geometry" />
        </mxCell>
        <mxCell id="zkfFHV4jXpPFQw0GAbJ--3" value="Nutrition" style="text;align=left;verticalAlign=top;spacingLeft=4;spacingRight=4;overflow=hidden;rotatable=0;points=[[0,0.5],[1,0.5]];portConstraint=eastwest;rounded=0;shadow=0;html=0;" parent="zkfFHV4jXpPFQw0GAbJ--0" vertex="1">
          <mxGeometry y="78" width="160" height="26" as="geometry" />
        </mxCell>
        <mxCell id="jSXB6XrlbgS2ibM5W66k-3" value="age" style="text;align=left;verticalAlign=top;spacingLeft=4;spacingRight=4;overflow=hidden;rotatable=0;points=[[0,0.5],[1,0.5]];portConstraint=eastwest;rounded=0;shadow=0;html=0;" vertex="1" parent="zkfFHV4jXpPFQw0GAbJ--0">
          <mxGeometry y="104" width="160" height="26" as="geometry" />
        </mxCell>
        <mxCell id="jSXB6XrlbgS2ibM5W66k-4" value="weight" style="text;align=left;verticalAlign=top;spacingLeft=4;spacingRight=4;overflow=hidden;rotatable=0;points=[[0,0.5],[1,0.5]];portConstraint=eastwest;rounded=0;shadow=0;html=0;" vertex="1" parent="zkfFHV4jXpPFQw0GAbJ--0">
          <mxGeometry y="130" width="160" height="26" as="geometry" />
        </mxCell>
        <mxCell id="zkfFHV4jXpPFQw0GAbJ--4" value="" style="line;html=1;strokeWidth=1;align=left;verticalAlign=middle;spacingTop=-1;spacingLeft=3;spacingRight=3;rotatable=0;labelPosition=right;points=[];portConstraint=eastwest;" parent="zkfFHV4jXpPFQw0GAbJ--0" vertex="1">
          <mxGeometry y="156" width="160" height="8" as="geometry" />
        </mxCell>
        <mxCell id="zkfFHV4jXpPFQw0GAbJ--5" value="SetParamsFromConsole" style="text;align=left;verticalAlign=top;spacingLeft=4;spacingRight=4;overflow=hidden;rotatable=0;points=[[0,0.5],[1,0.5]];portConstraint=eastwest;" parent="zkfFHV4jXpPFQw0GAbJ--0" vertex="1">
          <mxGeometry y="164" width="160" height="26" as="geometry" />
        </mxCell>
        <mxCell id="jSXB6XrlbgS2ibM5W66k-5" value="Print" style="text;align=left;verticalAlign=top;spacingLeft=4;spacingRight=4;overflow=hidden;rotatable=0;points=[[0,0.5],[1,0.5]];portConstraint=eastwest;" vertex="1" parent="zkfFHV4jXpPFQw0GAbJ--0">
          <mxGeometry y="190" width="160" height="26" as="geometry" />
        </mxCell>
        <mxCell id="zkfFHV4jXpPFQw0GAbJ--6" value="IgoninReptile" style="swimlane;fontStyle=0;align=center;verticalAlign=top;childLayout=stackLayout;horizontal=1;startSize=26;horizontalStack=0;resizeParent=1;resizeLast=0;collapsible=1;marginBottom=0;rounded=0;shadow=0;strokeWidth=1;" parent="WIyWlLk6GJQsqaUBKTNV-1" vertex="1">
          <mxGeometry x="334" y="400" width="160" height="90" as="geometry">
            <mxRectangle x="130" y="380" width="160" height="26" as="alternateBounds" />
          </mxGeometry>
        </mxCell>
        <mxCell id="zkfFHV4jXpPFQw0GAbJ--7" value="isPoisonous" style="text;align=left;verticalAlign=top;spacingLeft=4;spacingRight=4;overflow=hidden;rotatable=0;points=[[0,0.5],[1,0.5]];portConstraint=eastwest;" parent="zkfFHV4jXpPFQw0GAbJ--6" vertex="1">
          <mxGeometry y="26" width="160" height="26" as="geometry" />
        </mxCell>
        <mxCell id="zkfFHV4jXpPFQw0GAbJ--8" value="tailLength" style="text;align=left;verticalAlign=top;spacingLeft=4;spacingRight=4;overflow=hidden;rotatable=0;points=[[0,0.5],[1,0.5]];portConstraint=eastwest;rounded=0;shadow=0;html=0;" parent="zkfFHV4jXpPFQw0GAbJ--6" vertex="1">
          <mxGeometry y="52" width="160" height="26" as="geometry" />
        </mxCell>
        <mxCell id="zkfFHV4jXpPFQw0GAbJ--12" value="" style="endArrow=block;endSize=10;endFill=0;shadow=0;strokeWidth=1;rounded=0;curved=0;edgeStyle=elbowEdgeStyle;elbow=vertical;" parent="WIyWlLk6GJQsqaUBKTNV-1" source="zkfFHV4jXpPFQw0GAbJ--6" target="zkfFHV4jXpPFQw0GAbJ--0" edge="1">
          <mxGeometry width="160" relative="1" as="geometry">
            <mxPoint x="200" y="203" as="sourcePoint" />
            <mxPoint x="200" y="203" as="targetPoint" />
          </mxGeometry>
        </mxCell>
        <mxCell id="zkfFHV4jXpPFQw0GAbJ--17" value="IgoninForest" style="swimlane;fontStyle=0;align=center;verticalAlign=top;childLayout=stackLayout;horizontal=1;startSize=26;horizontalStack=0;resizeParent=1;resizeLast=0;collapsible=1;marginBottom=0;rounded=0;shadow=0;strokeWidth=1;" parent="WIyWlLk6GJQsqaUBKTNV-1" vertex="1">
          <mxGeometry x="508" y="120" width="160" height="250" as="geometry">
            <mxRectangle x="550" y="140" width="160" height="26" as="alternateBounds" />
          </mxGeometry>
        </mxCell>
        <mxCell id="zkfFHV4jXpPFQw0GAbJ--18" value="animals" style="text;align=left;verticalAlign=top;spacingLeft=4;spacingRight=4;overflow=hidden;rotatable=0;points=[[0,0.5],[1,0.5]];portConstraint=eastwest;" parent="zkfFHV4jXpPFQw0GAbJ--17" vertex="1">
          <mxGeometry y="26" width="160" height="26" as="geometry" />
        </mxCell>
        <mxCell id="zkfFHV4jXpPFQw0GAbJ--19" value="reptiles" style="text;align=left;verticalAlign=top;spacingLeft=4;spacingRight=4;overflow=hidden;rotatable=0;points=[[0,0.5],[1,0.5]];portConstraint=eastwest;rounded=0;shadow=0;html=0;" parent="zkfFHV4jXpPFQw0GAbJ--17" vertex="1">
          <mxGeometry y="52" width="160" height="26" as="geometry" />
        </mxCell>
        <mxCell id="zkfFHV4jXpPFQw0GAbJ--23" value="" style="line;html=1;strokeWidth=1;align=left;verticalAlign=middle;spacingTop=-1;spacingLeft=3;spacingRight=3;rotatable=0;labelPosition=right;points=[];portConstraint=eastwest;" parent="zkfFHV4jXpPFQw0GAbJ--17" vertex="1">
          <mxGeometry y="78" width="160" height="8" as="geometry" />
        </mxCell>
        <mxCell id="zkfFHV4jXpPFQw0GAbJ--24" value="AddAnimalsConsole" style="text;align=left;verticalAlign=top;spacingLeft=4;spacingRight=4;overflow=hidden;rotatable=0;points=[[0,0.5],[1,0.5]];portConstraint=eastwest;" parent="zkfFHV4jXpPFQw0GAbJ--17" vertex="1">
          <mxGeometry y="86" width="160" height="26" as="geometry" />
        </mxCell>
        <mxCell id="zkfFHV4jXpPFQw0GAbJ--25" value="ChangeElement" style="text;align=left;verticalAlign=top;spacingLeft=4;spacingRight=4;overflow=hidden;rotatable=0;points=[[0,0.5],[1,0.5]];portConstraint=eastwest;" parent="zkfFHV4jXpPFQw0GAbJ--17" vertex="1">
          <mxGeometry y="112" width="160" height="26" as="geometry" />
        </mxCell>
        <mxCell id="jSXB6XrlbgS2ibM5W66k-7" value="PrintToCosole" style="text;align=left;verticalAlign=top;spacingLeft=4;spacingRight=4;overflow=hidden;rotatable=0;points=[[0,0.5],[1,0.5]];portConstraint=eastwest;" vertex="1" parent="zkfFHV4jXpPFQw0GAbJ--17">
          <mxGeometry y="138" width="160" height="26" as="geometry" />
        </mxCell>
        <mxCell id="jSXB6XrlbgS2ibM5W66k-8" value="SaveSer" style="text;align=left;verticalAlign=top;spacingLeft=4;spacingRight=4;overflow=hidden;rotatable=0;points=[[0,0.5],[1,0.5]];portConstraint=eastwest;" vertex="1" parent="zkfFHV4jXpPFQw0GAbJ--17">
          <mxGeometry y="164" width="160" height="26" as="geometry" />
        </mxCell>
        <mxCell id="jSXB6XrlbgS2ibM5W66k-9" value="LoadSer" style="text;align=left;verticalAlign=top;spacingLeft=4;spacingRight=4;overflow=hidden;rotatable=0;points=[[0,0.5],[1,0.5]];portConstraint=eastwest;" vertex="1" parent="zkfFHV4jXpPFQw0GAbJ--17">
          <mxGeometry y="190" width="160" height="26" as="geometry" />
        </mxCell>
        <mxCell id="jSXB6XrlbgS2ibM5W66k-10" value="Clear" style="text;align=left;verticalAlign=top;spacingLeft=4;spacingRight=4;overflow=hidden;rotatable=0;points=[[0,0.5],[1,0.5]];portConstraint=eastwest;" vertex="1" parent="zkfFHV4jXpPFQw0GAbJ--17">
          <mxGeometry y="216" width="160" height="26" as="geometry" />
        </mxCell>
        <mxCell id="zkfFHV4jXpPFQw0GAbJ--26" value="" style="endArrow=open;shadow=0;strokeWidth=1;rounded=0;curved=0;endFill=1;edgeStyle=elbowEdgeStyle;elbow=vertical;" parent="WIyWlLk6GJQsqaUBKTNV-1" source="zkfFHV4jXpPFQw0GAbJ--0" target="zkfFHV4jXpPFQw0GAbJ--17" edge="1">
          <mxGeometry x="0.5" y="41" relative="1" as="geometry">
            <mxPoint x="380" y="192" as="sourcePoint" />
            <mxPoint x="540" y="192" as="targetPoint" />
            <mxPoint x="-40" y="32" as="offset" />
          </mxGeometry>
        </mxCell>
        <mxCell id="zkfFHV4jXpPFQw0GAbJ--27" value="0..1" style="resizable=0;align=left;verticalAlign=bottom;labelBackgroundColor=none;fontSize=12;" parent="zkfFHV4jXpPFQw0GAbJ--26" connectable="0" vertex="1">
          <mxGeometry x="-1" relative="1" as="geometry">
            <mxPoint y="4" as="offset" />
          </mxGeometry>
        </mxCell>
        <mxCell id="zkfFHV4jXpPFQw0GAbJ--28" value="1" style="resizable=0;align=right;verticalAlign=bottom;labelBackgroundColor=none;fontSize=12;" parent="zkfFHV4jXpPFQw0GAbJ--26" connectable="0" vertex="1">
          <mxGeometry x="1" relative="1" as="geometry">
            <mxPoint x="-7" y="4" as="offset" />
          </mxGeometry>
        </mxCell>
        <mxCell id="zkfFHV4jXpPFQw0GAbJ--29" value="Located in" style="text;html=1;resizable=0;points=[];;align=center;verticalAlign=middle;labelBackgroundColor=none;rounded=0;shadow=0;strokeWidth=1;fontSize=12;" parent="zkfFHV4jXpPFQw0GAbJ--26" vertex="1" connectable="0">
          <mxGeometry x="0.5" y="49" relative="1" as="geometry">
            <mxPoint x="-38" y="31" as="offset" />
          </mxGeometry>
        </mxCell>
      </root>
    </mxGraphModel>
  </diagram>
</mxfile>
